{
.appVersion = "3424";
.formatVersion = 3;
customParameters = (
{
name = "Use Typo Metrics";
value = 1;
}
);
date = "2024-10-21 20:35:37 +0000";
familyName = Tensor;
featurePrefixes = (
{
automatic = 1;
code = "languagesystem DFLT dflt;
";
name = Languagesystems;
}
);
features = (
{
automatic = 1;
code = "feature lnum;
feature onum;
feature case;
";
tag = aalt;
},
{
automatic = 1;
code = "sub zero.osf by zero;
sub one.osf by one;
sub two.osf by two;
sub three.osf by three;
sub four.osf by four;
sub five.osf by five;
sub six.osf by six;
sub seven.osf by seven;
sub eight.osf by eight;
sub nine.osf by nine;
";
tag = lnum;
},
{
automatic = 1;
code = "sub zero by zero.osf;
sub one by one.osf;
sub two by two.osf;
sub three by three.osf;
sub four by four.osf;
sub five by five.osf;
sub six by six.osf;
sub seven by seven.osf;
sub eight by eight.osf;
sub nine by nine.osf;
";
tag = onum;
},
{
automatic = 1;
code = "sub zero.osf by zero;
sub one.osf by one;
sub two.osf by two;
sub three.osf by three;
sub four.osf by four;
sub five.osf by five;
sub six.osf by six;
sub seven.osf by seven;
sub eight.osf by eight;
sub nine.osf by nine;
";
tag = case;
}
);
fontMaster = (
{
customParameters = (
{
name = unitizerUnit;
value = "22.5";
},
{
name = typoAscender;
value = 1000;
},
{
name = typoDescender;
value = -500;
},
{
name = typoLineGap;
value = 0;
},
{
name = winAscent;
value = 1200;
},
{
name = winDescent;
value = 500;
},
{
name = hheaAscender;
value = 1000;
},
{
name = hheaDescender;
value = -500;
},
{
name = hheaLineGap;
value = 0;
}
);
id = m01;
metricValues = (
{
over = 16;
pos = 800;
},
{
over = 16;
pos = 700;
},
{
over = 16;
pos = 500;
},
{
over = -16;
},
{
over = -16;
pos = -300;
}
);
name = Regular;
stemValues = (
46,
90
);
userData = {
GSCornerRadius = 22;
GSOffsetHorizontal = 6;
GSOffsetProportional = 1;
GSOffsetVertical = 10;
};
}
);
glyphs = (
{
glyphname = A;
lastChange = "2025-08-28 19:37:54 +0000";
layers = (
{
anchors = (
{
name = bottom;
pos = (392,0);
},
{
name = ogonek;
pos = (706,10);
},
{
name = top;
pos = (392,700);
}
);
layerId = m01;
shapes = (
{
closed = 1;
nodes = (
(47,-2,o),
(83,0,o),
(133,0,cs),
(186,0,o),
(255,-2,o),
(280,-6,c,{
"Letterink-NibData" = {
AngleInDegrees = "0";
};
}),
(280,30,l,{
"Letterink-NibData" = {
AngleInDegrees = "360";
};
}),
(226,35,o),
(192,53,o),
(197,90,cs,{
"Letterink-NibData" = {
AngleInDegrees = "0";
};
}),
(202,120,o),
(224,192,o),
(255,281,c),
(514,281,l),
(545,186,o),
(568,107,o),
(573,74,cs,{
"Letterink-NibData" = {
AngleInDegrees = "360";
};
}),
(577,47,o),
(566,28,o),
(508,25,c,{
"Letterink-NibData" = {
AngleInDegrees = "0";
};
}),
(509,17,o),
(509,5,o),
(508,-5,c,{
"Letterink-NibData" = {
AngleInDegrees = "0";
};
}),
(547,-2,o),
(604,0,o),
(657,0,cs),
(694,0,o),
(741,-2,o),
(764,-4,c,{
"Letterink-NibData" = {
AngleInDegrees = "0";
};
}),
(763,4,o),
(763,16,o),
(764,26,c,{
"Letterink-NibData" = {
AngleInDegrees = "360";
};
}),
(738,30,o),
(712,47,o),
(698,74,cs,{
"Letterink-NibData" = {
AngleInDegrees = "0";
};
}),
(647,165,o),
(512,580,o),
(470,733,c,{
"Letterink-NibData" = {
AngleInDegrees = "0";
};
}),
(357,716,l,{
"Letterink-NibData" = {
AngleInDegrees = "359.99999";
};
}),
(315,563,o),
(175,171,o),
(124,80,cs,{
"Letterink-NibData" = {
AngleInDegrees = "360";
};
}),
(110,53,o),
(75,35,o),
(20,30,c,{
"Letterink-NibData" = {
AngleInDegrees = "0";
};
}),
(20,-6,l,{
"Letterink-NibData" = {
AngleInDegrees = "0";
};
})
);
},
{
closed = 1;
nodes = (
(309,429,o),
(354,548,o),
(389,636,c),
(422,550,o),
(464,432,o),
(499,327,c),
(272,327,l)
);
}
);
width = 784;
}
);
unicode = 65;
},
{
glyphname = AE;
lastChange = "2025-08-28 19:52:22 +0000";
layers = (
{
anchors = (
{
name = bottom;
pos = (300,0);
},
{
name = top;
pos = (300,700);
}
);
layerId = m01;
shapes = (
{
closed = 1;
nodes = (
(347,706,l,{
"Letterink-NibData" = {
AngleInDegrees = "359.99999";
};
}),
(315,563,o),
(175,171,o),
(124,80,cs,{
"Letterink-NibData" = {
AngleInDegrees = "360";
};
}),
(110,53,o),
(75,35,o),
(20,30,c,{
"Letterink-NibData" = {
AngleInDegrees = "0";
};
}),
(20,-6,l,{
"Letterink-NibData" = {
AngleInDegrees = "0";
};
}),
(47,-2,o),
(83,0,o),
(133,0,cs),
(186,0,o),
(255,-2,o),
(280,-6,c,{
"Letterink-NibData" = {
AngleInDegrees = "0";
};
}),
(280,30,l,{
"Letterink-NibData" = {
AngleInDegrees = "360";
};
}),
(226,35,o),
(192,53,o),
(197,90,cs,{
"Letterink-NibData" = {
AngleInDegrees = "0";
};
}),
(202,120,o),
(224,192,o),
(255,281,c),
(489,281,l),
(489,327,l),
(272,327,l),
(309,429,o),
(334,550,o),
(387,684,c)
);
},
{
closed = 1;
nodes = (
(894,60,o),
(908,128,o),
(925,196,c),
(916,198,o),
(907,202,o),
(898,208,c),
(878,134,o),
(832,67,o),
(787,46,cs),
(765,36,o),
(695,37,o),
(672,37,cs),
(619,37,o),
(574,42,o),
(545,60,cs),
(542,62,o),
(541,70,o),
(540,79,cs,{
"Letterink-NibData" = {
AngleInDegrees = "359.99999";
};
}),
(534,172,o),
(529,259,o),
(528,339,c),
(563,340,o),
(599,340,o),
(634,337,cs),
(705,331,o),
(729,277,o),
(740,226,c),
(750,228,o),
(760,228,o),
(770,226,c),
(762,311,o),
(759,428,o),
(764,508,c),
(752,506,o),
(741,506,o),
(729,508,c),
(723,459,o),
(710,389,o),
(634,383,cs),
(599,380,o),
(563,380,o),
(528,381,c),
(527,499,o),
(532,588,o),
(543,643,c),
(556,653,o),
(613,663,o),
(682,659,cs),
(756,655,o),
(802,613,o),
(812,541,c),
(821,543,o),
(829,544,o),
(838,542,c),
(837,599,o),
(837,656,o),
(840,713,c),
(783,705,o),
(574,700,o),
(497,700,cs),
(431,700,o),
(369,702,o),
(347,706,c,{
"Letterink-NibData" = {
AngleInDegrees = "0";
};
}),
(348,694,o),
(348,682,o),
(347,671,c,{
"Letterink-NibData" = {
AngleInDegrees = "360";
};
}),
(395,667,o),
(424,649,o),
(429,621,cs,{
"Letterink-NibData" = {
AngleInDegrees = "0";
};
}),
(449,525,o),
(451,324,o),
(433,84,cs,{
"Letterink-NibData" = {
AngleInDegrees = "0";
};
}),
(431,58,o),
(397,37,o),
(348,24,c,{
"Letterink-NibData" = {
AngleInDegrees = "0";
};
}),
(349,13,o),
(349,1,o),
(348,-6,c,{
"Letterink-NibData" = {
AngleInDegrees = "0";
};
}),
(391,-2,o),
(452,1,o),
(497,0,cs),
(567,-2,o),
(751,3,o),
(881,-8,c)
);
}
);
width = 968;
}
);
unicode = 198;
},
{
glyphname = B;
lastChange = "2025-08-28 19:37:54 +0000";
layers = (
{
anchors = (
{
name = bottom;
pos = (340,0);
},
{
name = center;
pos = (170,174);
},
{
name = top;
pos = (340,700);
}
);
layerId = m01;
shapes = (
{
closed = 1;
nodes = (
(523,-8,o),
(620,66,o),
(620,189,cs),
(620,277,o),
(574,335,o),
(477,365,c),
(543,395,o),
(580,449,o),
(580,519,cs),
(580,632,o),
(498,708,o),
(368,703,cs),
(318,701,o),
(250,700,o),
(196,700,cs),
(160,700,o),
(98,702,o),
(43,706,c,{
"Letterink-NibData" = {
AngleInDegrees = "0";
};
}),
(44,696,o),
(44,682,o),
(43,672,c,{
"Letterink-NibData" = {
AngleInDegrees = "360";
};
}),
(91,670,o),
(123,653,o),
(128,626,cs,{
"Letterink-NibData" = {
AngleInDegrees = "0";
};
}),
(148,530,o),
(150,319,o),
(132,79,cs,{
"Letterink-NibData" = {
AngleInDegrees = "0";
};
}),
(130,53,o),
(99,32,o),
(43,26,c,{
"Letterink-NibData" = {
AngleInDegrees = "0";
};
}),
(44,15,o),
(44,3,o),
(43,-4,c,{
"Letterink-NibData" = {
AngleInDegrees = "0";
};
}),
(100,-2,o),
(158,0,o),
(196,0,cs),
(256,0,o),
(299,-11,o),
(368,-10,cs)
);
},
{
closed = 1;
nodes = (
(315,36,o),
(269,48,o),
(246,62,cs),
(240,66,o),
(236,73,o),
(236,79,cs,{
"Letterink-NibData" = {
AngleInDegrees = "359.99999";
};
}),
(230,171,o),
(226,257,o),
(224,335,c),
(266,338,o),
(298,339,o),
(348,337,cs),
(435,334,o),
(510,275,o),
(510,193,cs),
(510,97,o),
(456,39,o),
(368,37,cs)
);
},
{
closed = 1;
nodes = (
(224,499,o),
(229,591,o),
(239,648,c),
(260,656,o),
(309,661,o),
(367,659,cs),
(436,657,o),
(479,604,o),
(479,516,cs),
(479,440,o),
(416,385,o),
(348,383,cs),
(300,382,o),
(266,382,o),
(224,385,c)
);
},
{
closed = 1;
nodes = (
(230,642,o),
(230,642,o),
(230,642,c),
(230,642,l)
);
}
);
width = 680;
}
);
unicode = 66;
},
{
glyphname = C;
lastChange = "2025-08-28 19:37:54 +0000";
layers = (
{
anchors = (
{
name = bottom;
pos = (376,0);
},
{
name = top;
pos = (376,700);
}
);
background = {
shapes = (
{
closed = 1;
nodes = (
(211,-16,o),
(421,-16,cs),
(663,-16,o),
(797,128,o),
(797,388,cs),
(797,598,o),
(682,714,o),
(475,714,cs),
(230,714,o),
(94,575,o),
(94,324,cs),
(94,105,o)
);
},
{
closed = 1;
nodes = (
(193,150,o),
(193,366,cs),
(193,558,o),
(287,665,o),
(456,665,cs),
(609,665,o),
(694,551,o),
(694,346,cs),
(694,143,o),
(601,30,o),
(434,30,cs),
(279,30,o)
);
}
);
};
backgroundImage = {
imagePath = "../../../Documents/EcTd/Kickoff/n/d22.jpg";
pos = (-54,-141);
scale = (0.4283,0.4283);
};
layerId = m01;
shapes = (
{
closed = 1;
nodes = (
(453,-16,o),
(521,-6,o),
(574,8,cs),
(606,16,o),
(638,25,o),
(671,29,c),
(669,78,o),
(672,142,o),
(677,196,c),
(665,194,o),
(652,194,o),
(640,196,c),
(613,94,o),
(529,30,o),
(423,30,cs),
(269,34,o),
(177,165,o),
(177,368,cs),
(177,550,o),
(277,665,o),
(445,665,cs),
(548,665,o),
(622,592,o),
(636,485,c),
(651,487,o),
(666,487,o),
(681,485,c),
(675,550,o),
(670,615,o),
(668,680,c),
(638,685,o),
(606,688,o),
(575,697,cs),
(544,706,o),
(498,714,o),
(464,714,cs),
(223,714,o),
(70,565,o),
(70,329,cs),
(70,117,o),
(202,-16,o),
(410,-16,cs)
);
}
);
width = 751;
}
);
unicode = 67;
},
{
glyphname = D;
lastChange = "2025-08-28 19:37:54 +0000";
layers = (
{
anchors = (
{
name = bottom;
pos = (429,0);
},
{
name = center;
pos = (214,350);
},
{
name = top;
pos = (429,700);
}
);
backgroundImage = {
imagePath = "../../../Documents/EcTd/Kickoff/n/Bildschirmfoto 2024-10-23 um 23.09.01.png";
locked = 1;
pos = (769,-108);
scale = (-2.3445,2.3445);
};
layerId = m01;
shapes = (
{
closed = 1;
nodes = (
(651,-11,o),
(787,139,o),
(787,379,cs),
(787,578,o),
(651,705,o),
(435,705,cs),
(361,705,o),
(268,700,o),
(197,700,cs),
(134,700,o),
(72,702,o),
(47,706,c,{
"Letterink-NibData" = {
AngleInDegrees = "0";
};
}),
(48,690,o),
(48,678,o),
(47,672,c,{
"Letterink-NibData" = {
AngleInDegrees = "360";
};
}),
(92,668,o),
(124,649,o),
(129,622,cs,{
"Letterink-NibData" = {
AngleInDegrees = "0";
};
}),
(149,526,o),
(151,323,o),
(133,83,cs,{
"Letterink-NibData" = {
AngleInDegrees = "0";
};
}),
(130,46,o),
(92,37,o),
(43,28,c,{
"Letterink-NibData" = {
AngleInDegrees = "0";
};
}),
(44,21,o),
(44,1,o),
(43,-6,c,{
"Letterink-NibData" = {
AngleInDegrees = "0";
};
}),
(73,-2,o),
(137,0,o),
(197,0,cs),
(272,0,o),
(358,-11,o),
(435,-11,cs)
);
},
{
closed = 1;
nodes = (
(385,37,o),
(297,47,o),
(262,60,cs),
(248,65,o),
(249,74,o),
(249,79,cs,{
"Letterink-NibData" = {
AngleInDegrees = "359.99999";
};
}),
(242,260,o),
(244,477,o),
(258,649,c),
(296,656,o),
(378,659,o),
(434,659,c),
(584,649,o),
(679,541,o),
(679,383,cs),
(679,170,o),
(583,37,o),
(434,37,cs)
);
}
);
width = 857;
},
{
associatedMasterId = m01;
background = {
shapes = (
{
closed = 1;
nodes = (
(608,11,l),
(608,20,l,{
"Letterink-NibData" = {
AngleInDegrees = "0";
};
}),
(581,22,o),
(557,23,o),
(545,23,cs,{
"Letterink-NibData" = {
AngleInDegrees = "360";
};
}),
(535,24,o),
(529,36,o),
(529,55,cs),
(529,75,o),
(532,354,o),
(532,385,cs),
(532,555,o),
(532,661,o),
(532,661,cs,{
"Letterink-NibData" = {
AngleInDegrees = "359.99999";
};
}),
(531,663,o),
(531,682,o),
(531,708,c,{
"Letterink-NibData" = {
AngleInDegrees = "0";
};
}),
(527,715,l,{
"Letterink-NibData" = {
AngleInDegrees = "0";
};
}),
(483,705,o),
(440,694,o),
(414,685,c),
(414,676,l,{
"Letterink-NibData" = {
AngleInDegrees = "0";
};
}),
(428,667,o),
(444,652,o),
(455,637,c,{
"Letterink-NibData" = {
AngleInDegrees = "0";
};
}),
(457,549,o),
(459,498,o),
(459,505,cs),
(459,474,o),
(456,435,o),
(451,406,c),
(451,402,l,{
"Letterink-NibData" = {
AngleInDegrees = "0";
};
}),
(430,410,o),
(398,415,o),
(369,415,cs),
(228,415,o),
(139,323,o),
(139,176,cs),
(139,65,o),
(203,-5,o),
(306,-5,cs),
(373,-5,o),
(439,18,o),
(477,55,c,{
"Letterink-NibData" = {
AngleInDegrees = "0";
};
}),
(470,80,l,{
"Letterink-NibData" = {
AngleInDegrees = "0";
};
}),
(429,53,o),
(387,36,o),
(361,36,cs),
(272,36,o),
(216,101,o),
(216,205,cs),
(216,322,o),
(265,396,o),
(342,396,cs),
(379,396,o),
(422,363,o),
(453,311,c),
(453,251,o),
(457,202,o),
(457,167,cs),
(457,110,o),
(451,62,o),
(451,49,c,{
"Letterink-NibData" = {
AngleInDegrees = "0";
};
}),
(444,-9,l,{
"Letterink-NibData" = {
AngleInDegrees = "359.99999";
};
}),
(450,-17,l,{
"Letterink-NibData" = {
AngleInDegrees = "0";
};
})
);
}
);
};
backgroundImage = {
imagePath = "../../../Documents/EcTd/Kickoff/n/Bildschirmfoto 2024-10-23 um 23.09.01.png";
locked = 1;
pos = (748,-108);
scale = (-2.3445,2.3445);
};
layerId = "CC2BD732-3842-4822-AD23-78C5E63CBD6E";
name = "16. Aug. 25, 22:44";
shapes = (
{
closed = 1;
nodes = (
(777,98,o),
(725,135,o),
(725,195,cs),
(725,225,o),
(799,215,o),
(799,236,cs),
(799,256,o),
(758,257,o),
(758,275,cs),
(758,306,o),
(797,326,o),
(859,326,cs),
(955,326,o),
(1015,282,o),
(1015,212,cs),
(1015,142,o),
(955,98,o),
(859,98,cs)
);
},
{
closed = 1;
nodes = (
(871,140,o),
(880,159,o),
(880,174,cs),
(880,264,l),
(864,264,l),
(864,228,o),
(864,181,o),
(864,174,cs),
(864,168,o),
(857,151,o),
(847,130,c),
(856,124,l)
);
},
{
closed = 1;
nodes = (
(905,164,o),
(916,164,o),
(922,164,cs),
(950,164,o),
(967,183,o),
(967,213,cs),
(967,246,o),
(950,266,o),
(922,264,c),
(899,264,l),
(899,164,l)
);
},
{
closed = 1;
nodes = (
(915,250,l),
(918,250,o),
(916,250,o),
(922,250,cs),
(940,250,o),
(951,236,o),
(951,213,cs),
(951,192,o),
(940,178,o),
(922,178,cs),
(918,178,o),
(919,178,o),
(915,178,c)
);
},
{
closed = 1;
nodes = (
(377,-16,o),
(447,20,o),
(496,77,c),
(491,91,l),
(443,58,o),
(390,37,o),
(353,37,cs),
(271,37,o),
(219,113,o),
(219,217,cs),
(219,328,o),
(263,388,o),
(334,388,cs),
(403,388,o),
(460,337,o),
(484,255,c),
(496,374,l),
(465,402,o),
(413,420,o),
(362,420,cs),
(223,420,o),
(135,336,o),
(135,187,cs),
(135,68,o),
(204,-16,o),
(315,-16,cs)
);
},
{
closed = 1;
nodes = (
(450,-17,l),
(609,2,l),
(610,24,l),
(575,26,o),
(553,27,o),
(553,27,cs),
(539,28,o),
(531,41,o),
(531,60,cs),
(530,158,o),
(532,386,o),
(536,651,cs),
(536,671,o),
(537,692,o),
(539,706,c),
(531,716,l),
(392,686,l),
(392,674,l),
(419,670,o),
(443,656,o),
(455,639,c),
(455,398,o),
(453,170,o),
(451,50,c),
(446,-4,l)
);
}
);
width = 678;
}
);
unicode = 68;
},
{
glyphname = E;
lastChange = "2025-08-28 19:37:54 +0000";
layers = (
{
anchors = (
{
name = bottom;
pos = (338,0);
},
{
name = ogonek;
pos = (608,10);
},
{
name = top;
pos = (338,700);
},
{
name = topleft;
pos = (20,700);
}
);
layerId = m01;
shapes = (
{
closed = 1;
nodes = (
(594,60,o),
(608,128,o),
(625,196,c),
(616,198,o),
(607,202,o),
(598,208,c),
(578,134,o),
(532,67,o),
(487,46,cs),
(465,36,o),
(395,37,o),
(372,37,cs),
(319,37,o),
(274,42,o),
(245,60,cs),
(242,62,o),
(241,70,o),
(240,79,cs,{
"Letterink-NibData" = {
AngleInDegrees = "359.99999";
};
}),
(234,172,o),
(229,259,o),
(228,339,c),
(263,340,o),
(299,340,o),
(334,337,cs),
(405,331,o),
(429,277,o),
(440,226,c),
(450,228,o),
(460,228,o),
(470,226,c),
(462,311,o),
(459,428,o),
(464,508,c),
(452,506,o),
(441,506,o),
(429,508,c),
(423,459,o),
(410,389,o),
(334,383,cs),
(299,380,o),
(263,380,o),
(228,381,c),
(227,499,o),
(232,588,o),
(243,643,c),
(256,653,o),
(313,663,o),
(382,659,cs),
(456,655,o),
(502,613,o),
(512,541,c),
(521,543,o),
(529,544,o),
(538,542,c),
(537,599,o),
(537,656,o),
(540,713,c),
(483,705,o),
(274,700,o),
(197,700,cs),
(131,700,o),
(69,702,o),
(47,706,c,{
"Letterink-NibData" = {
AngleInDegrees = "0";
};
}),
(48,694,o),
(48,682,o),
(47,671,c,{
"Letterink-NibData" = {
AngleInDegrees = "360";
};
}),
(95,667,o),
(124,649,o),
(129,621,cs,{
"Letterink-NibData" = {
AngleInDegrees = "0";
};
}),
(149,525,o),
(151,324,o),
(133,84,cs,{
"Letterink-NibData" = {
AngleInDegrees = "0";
};
}),
(131,58,o),
(97,37,o),
(48,24,c,{
"Letterink-NibData" = {
AngleInDegrees = "0";
};
}),
(49,13,o),
(49,1,o),
(48,-6,c,{
"Letterink-NibData" = {
AngleInDegrees = "0";
};
}),
(91,-2,o),
(152,1,o),
(197,0,cs),
(267,-2,o),
(451,3,o),
(581,-8,c)
);
}
);
width = 675;
}
);
unicode = 69;
},
{
glyphname = F;
lastChange = "2025-08-28 19:37:54 +0000";
layers = (
{
anchors = (
{
name = bottom;
pos = (280,0);
},
{
name = top;
pos = (280,700);
}
);
background = {
shapes = (
{
closed = 1;
nodes = (
(616,60,o),
(630,128,o),
(647,196,c),
(638,198,o),
(629,202,o),
(620,208,c),
(600,134,o),
(554,67,o),
(509,46,cs),
(487,36,o),
(417,37,o),
(394,37,cs),
(341,37,o),
(296,42,o),
(267,60,cs),
(264,62,o),
(263,70,o),
(262,79,cs,{
"Letterink-NibData" = {
AngleInDegrees = "359.99999";
};
}),
(255,183,o),
(250,279,o),
(250,364,c),
(219,337,l),
(267,340,o),
(310,341,o),
(356,337,cs),
(427,331,o),
(451,277,o),
(462,226,c),
(472,228,o),
(482,228,o),
(492,226,c),
(484,311,o),
(481,428,o),
(486,508,c),
(474,506,o),
(463,506,o),
(451,508,c),
(445,459,o),
(432,389,o),
(356,383,cs),
(310,379,o),
(267,380,o),
(219,383,c),
(251,342,l),
(248,478,o),
(253,583,o),
(265,643,c),
(278,653,o),
(335,663,o),
(404,659,cs),
(478,655,o),
(524,613,o),
(534,541,c),
(543,543,o),
(551,544,o),
(560,542,c),
(559,599,o),
(559,656,o),
(562,713,c),
(505,705,o),
(296,700,o),
(219,700,cs),
(153,700,o),
(91,702,o),
(69,706,c,{
"Letterink-NibData" = {
AngleInDegrees = "0";
};
}),
(70,694,o),
(70,682,o),
(69,671,c,{
"Letterink-NibData" = {
AngleInDegrees = "360";
};
}),
(117,667,o),
(146,649,o),
(151,621,cs,{
"Letterink-NibData" = {
AngleInDegrees = "0";
};
}),
(171,525,o),
(173,324,o),
(155,84,cs,{
"Letterink-NibData" = {
AngleInDegrees = "0";
};
}),
(153,58,o),
(119,37,o),
(70,24,c,{
"Letterink-NibData" = {
AngleInDegrees = "0";
};
}),
(71,13,o),
(71,1,o),
(70,-6,c,{
"Letterink-NibData" = {
AngleInDegrees = "0";
};
}),
(113,-2,o),
(174,1,o),
(219,0,cs),
(289,-2,o),
(473,3,o),
(603,-8,c)
);
}
);
};
layerId = m01;
shapes = (
{
closed = 1;
nodes = (
(80,-1,o),
(142,0,o),
(197,0,cs),
(352,-4,l),
(350,5,o),
(350,17,o),
(352,26,c),
(297,32,o),
(243,39,o),
(241,79,cs,{
"Letterink-NibData" = {
AngleInDegrees = "359.99999";
};
}),
(236,171,o),
(230,260,o),
(229,337,c),
(264,341,o),
(287,341,o),
(334,337,cs),
(405,331,o),
(429,277,o),
(440,226,c),
(450,228,o),
(460,228,o),
(470,226,c),
(462,326,o),
(460,442,o),
(464,508,c),
(452,506,o),
(441,506,o),
(429,508,c),
(423,459,o),
(410,390,o),
(334,383,cs),
(287,379,o),
(266,379,o),
(229,383,c),
(228,498,o),
(232,588,o),
(243,643,c),
(256,653,o),
(313,663,o),
(382,659,cs),
(456,655,o),
(502,613,o),
(512,541,c),
(521,543,o),
(529,544,o),
(538,542,c),
(537,599,o),
(537,656,o),
(540,713,c),
(483,705,o),
(274,700,o),
(197,700,cs),
(126,700,o),
(68,702,o),
(47,706,c,{
"Letterink-NibData" = {
AngleInDegrees = "0";
};
}),
(48,694,o),
(48,682,o),
(47,671,c,{
"Letterink-NibData" = {
AngleInDegrees = "360";
};
}),
(95,667,o),
(124,648,o),
(129,621,cs,{
"Letterink-NibData" = {
AngleInDegrees = "0";
};
}),
(149,525,o),
(151,324,o),
(133,84,cs,{
"Letterink-NibData" = {
AngleInDegrees = "0";
};
}),
(131,58,o),
(97,37,o),
(48,24,c,{
"Letterink-NibData" = {
AngleInDegrees = "0";
};
}),
(49,13,o),
(49,1,o),
(48,-6,c,{
"Letterink-NibData" = {
AngleInDegrees = "0";
};
})
);
}
);
width = 560;
}
);
unicode = 70;
},
{
glyphname = G;
lastChange = "2025-08-28 19:37:54 +0000";
layers = (
{
anchors = (
{
name = bottom;
pos = (422,0);
},
{
name = top;
pos = (422,700);
}
);
layerId = m01;
shapes = (
{
closed = 1;
nodes = (
(453,-16,o),
(522,-12,o),
(576,-1,cs),
(619,8,o),
(666,21,o),
(710,29,c),
(705,93,o),
(701,177,o),
(706,268,c),
(769,266,l),
(766,288,o),
(766,310,o),
(769,332,c),
(668,331,o),
(568,327,o),
(467,322,c),
(467,307,o),
(471,290,o),
(482,275,c,{
"Letterink-NibData" = {
AngleInDegrees = "0";
};
}),
(610,271,l),
(615,233,o),
(617,187,o),
(615,142,cs),
(613,98,o),
(605,68,o),
(594,58,cs),
(574,40,o),
(508,30,o),
(432,30,cs),
(278,34,o),
(173,165,o),
(173,368,cs),
(173,550,o),
(286,665,o),
(454,665,c),
(557,660,o),
(641,592,o),
(655,485,c),
(673,487,o),
(692,487,o),
(710,485,c),
(704,549,o),
(699,612,o),
(697,680,c),
(666,685,o),
(632,696,o),
(598,702,cs),
(553,709,o),
(492,714,o),
(473,714,cs),
(232,714,o),
(70,565,o),
(70,329,cs),
(70,117,o),
(211,-16,o),
(419,-16,cs)
);
}
);
width = 844;
}
);
unicode = 71;
},
{
glyphname = H;
lastChange = "2025-08-28 19:37:54 +0000";
layers = (
{
anchors = (
{
name = bottom;
pos = (448,0);
},
{
name = center;
pos = (448,530);
},
{
name = top;
pos = (448,700);
},
{
name = topleft;
pos = (20,700);
}
);
layerId = m01;
shapes = (
{
closed = 1;
nodes = (
(609,-2,o),
(659,0,o),
(699,0,cs),
(736,0,o),
(808,-2,o),
(845,-6,c,{
"Letterink-NibData" = {
AngleInDegrees = "0";
};
}),
(844,1,o),
(844,9,o),
(845,16,c,{
"Letterink-NibData" = {
AngleInDegrees = "0";
};
}),
(797,28,o),
(764,53,o),
(762,79,cs,{
"Letterink-NibData" = {
AngleInDegrees = "359.99999";
};
}),
(751,232,o),
(747,535,o),
(766,626,cs,{
"Letterink-NibData" = {
AngleInDegrees = "360";
};
}),
(771,653,o),
(804,672,o),
(848,676,c,{
"Letterink-NibData" = {
AngleInDegrees = "0";
};
}),
(847,682,o),
(847,694,o),
(848,706,c,{
"Letterink-NibData" = {
AngleInDegrees = "0";
};
}),
(822,702,o),
(749,700,o),
(699,700,cs),
(646,700,o),
(595,702,o),
(569,706,c,{
"Letterink-NibData" = {
AngleInDegrees = "0";
};
}),
(570,694,o),
(570,682,o),
(569,676,c,{
"Letterink-NibData" = {
AngleInDegrees = "360";
};
}),
(613,672,o),
(646,653,o),
(651,626,cs,{
"Letterink-NibData" = {
AngleInDegrees = "0";
};
}),
(660,582,o),
(664,486,o),
(664,383,c),
(232,383,l),
(232,486,o),
(236,582,o),
(245,626,cs,{
"Letterink-NibData" = {
AngleInDegrees = "360";
};
}),
(250,653,o),
(283,672,o),
(327,676,c,{
"Letterink-NibData" = {
AngleInDegrees = "0";
};
}),
(326,682,o),
(326,694,o),
(327,706,c,{
"Letterink-NibData" = {
AngleInDegrees = "0";
};
}),
(301,702,o),
(251,700,o),
(201,700,cs),
(148,700,o),
(74,702,o),
(48,706,c,{
"Letterink-NibData" = {
AngleInDegrees = "0";
};
}),
(49,694,o),
(49,682,o),
(48,676,c,{
"Letterink-NibData" = {
AngleInDegrees = "360";
};
}),
(92,672,o),
(125,653,o),
(130,626,cs,{
"Letterink-NibData" = {
AngleInDegrees = "0";
};
}),
(149,535,o),
(145,232,o),
(134,79,cs,{
"Letterink-NibData" = {
AngleInDegrees = "0";
};
}),
(132,53,o),
(99,28,o),
(51,16,c,{
"Letterink-NibData" = {
AngleInDegrees = "0";
};
}),
(52,9,o),
(52,1,o),
(51,-6,c,{
"Letterink-NibData" = {
AngleInDegrees = "0";
};
}),
(88,-2,o),
(161,0,o),
(201,0,cs),
(238,0,o),
(287,-2,o),
(324,-6,c,{
"Letterink-NibData" = {
AngleInDegrees = "0";
};
}),
(323,1,o),
(323,9,o),
(324,16,c,{
"Letterink-NibData" = {
AngleInDegrees = "0";
};
}),
(276,28,o),
(243,53,o),
(241,79,cs,{
"Letterink-NibData" = {
AngleInDegrees = "359.99999";
};
}),
(236,147,o),
(233,242,o),
(232,337,c),
(664,337,l),
(663,242,o),
(660,147,o),
(655,79,cs,{
"Letterink-NibData" = {
AngleInDegrees = "0";
};
}),
(653,53,o),
(620,28,o),
(572,16,c,{
"Letterink-NibData" = {
AngleInDegrees = "0";
};
}),
(573,9,o),
(573,1,o),
(572,-6,c,{
"Letterink-NibData" = {
AngleInDegrees = "0";
};
})
);
}
);
width = 896;
}
);
unicode = 72;
},
{
glyphname = I;
lastChange = "2025-08-28 19:37:54 +0000";
layers = (
{
anchors = (
{
name = bottom;
pos = (183,0);
},
{
name = ogonek;
pos = (318,10);
},
{
name = top;
pos = (183,700);
},
{
name = topleft;
pos = (34,700);
}
);
associatedMasterId = m01;
layerId = "C8B7E400-0FB9-48D5-912C-C0FE4694F34A";
name = "27. Aug. 25, 17:19";
shapes = (
{
closed = 1;
nodes = (
(88,0,o),
(158,0,o),
(198,0,cs),
(235,0,o),
(286,0,o),
(323,0,c,{
"Letterink-NibData" = {
AngleInDegrees = 0;
};
}),
(323,5,o),
(323,9,o),
(323,16,c,{
"Letterink-NibData" = {
AngleInDegrees = 0;
};
}),
(275,28,o),
(232,53,o),
(232,79,cs,{
"Letterink-NibData" = {
AngleInDegrees = 359.99999;
};
}),
(232,232,o),
(232,535,o),
(232,626,cs,{
"Letterink-NibData" = {
AngleInDegrees = 360;
};
}),
(232,654,o),
(282,672,o),
(326,676,c,{
"Letterink-NibData" = {
AngleInDegrees = 0;
};
}),
(326,682,o),
(326,688,o),
(326,700,c,{
"Letterink-NibData" = {
AngleInDegrees = 0;
};
}),
(300,700,o),
(248,700,o),
(198,700,cs),
(145,700,o),
(71,700,o),
(45,700,c,{
"Letterink-NibData" = {
AngleInDegrees = 0;
};
}),
(45,688,o),
(45,682,o),
(45,676,c,{
"Letterink-NibData" = {
AngleInDegrees = 360;
};
}),
(92,672,o),
(140,654,o),
(140,626,cs,{
"Letterink-NibData" = {
AngleInDegrees = 0;
};
}),
(140,535,o),
(140,232,o),
(140,79,cs,{
"Letterink-NibData" = {
AngleInDegrees = 0;
};
}),
(140,53,o),
(99,28,o),
(48,16,c,{
"Letterink-NibData" = {
AngleInDegrees = 0;
};
}),
(48,11,o),
(48,6,o),
(48,0,c,{
"Letterink-NibData" = {
AngleInDegrees = 0;
};
})
);
}
);
width = 372;
},
{
anchors = (
{
name = bottom;
pos = (183,0);
},
{
name = ogonek;
pos = (318,10);
},
{
name = top;
pos = (183,700);
},
{
name = topleft;
pos = (34,700);
}
);
associatedMasterId = m01;
layerId = "E655EA0D-5A4E-4C87-8DB0-DBA9A36A6107";
name = "27. Aug. 25, 17:19";
shapes = (
{
closed = 1;
nodes = (
(88,0,o),
(158,0,o),
(198,0,cs),
(235,0,o),
(286,0,o),
(323,0,c,{
"Letterink-NibData" = {
AngleInDegrees = 0;
};
}),
(323,5,o),
(323,9,o),
(323,16,c,{
"Letterink-NibData" = {
AngleInDegrees = 0;
};
}),
(275,28,o),
(232,53,o),
(232,79,cs,{
"Letterink-NibData" = {
AngleInDegrees = 359.99999;
};
}),
(232,232,o),
(232,535,o),
(232,626,cs,{
"Letterink-NibData" = {
AngleInDegrees = 360;
};
}),
(232,654,o),
(282,672,o),
(326,676,c,{
"Letterink-NibData" = {
AngleInDegrees = 0;
};
}),
(326,682,o),
(326,688,o),
(326,700,c,{
"Letterink-NibData" = {
AngleInDegrees = 0;
};
}),
(300,700,o),
(248,700,o),
(198,700,cs),
(145,700,o),
(71,700,o),
(45,700,c,{
"Letterink-NibData" = {
AngleInDegrees = 0;
};
}),
(45,688,o),
(45,682,o),
(45,676,c,{
"Letterink-NibData" = {
AngleInDegrees = 360;
};
}),
(92,672,o),
(140,654,o),
(140,626,cs,{
"Letterink-NibData" = {
AngleInDegrees = 0;
};
}),
(140,535,o),
(140,232,o),
(140,79,cs,{
"Letterink-NibData" = {
AngleInDegrees = 0;
};
}),
(140,53,o),
(99,28,o),
(48,16,c,{
"Letterink-NibData" = {
AngleInDegrees = 0;
};
}),
(48,11,o),
(48,6,o),
(48,0,c,{
"Letterink-NibData" = {
AngleInDegrees = 0;
};
})
);
}
);
width = 372;
},
{
anchors = (
{
name = bottom;
pos = (186,0);
},
{
name = ogonek;
pos = (335,10);
},
{
name = top;
pos = (186,700);
},
{
name = topleft;
pos = (20,700);
}
);
layerId = m01;
name = Regular;
shapes = (
{
closed = 1;
nodes = (
(88,-2,o),
(158,0,o),
(198,0,cs),
(235,0,o),
(286,-2,o),
(323,-6,c,{
"Letterink-NibData" = {
AngleInDegrees = 0;
};
}),
(322,1,o),
(322,9,o),
(323,16,c,{
"Letterink-NibData" = {
AngleInDegrees = 0;
};
}),
(275,28,o),
(240,53,o),
(238,79,cs,{
"Letterink-NibData" = {
AngleInDegrees = 359.99999;
};
}),
(227,232,o),
(223,535,o),
(242,626,cs,{
"Letterink-NibData" = {
AngleInDegrees = 360;
};
}),
(247,653,o),
(282,672,o),
(326,676,c,{
"Letterink-NibData" = {
AngleInDegrees = 0;
};
}),
(325,682,o),
(325,694,o),
(326,706,c,{
"Letterink-NibData" = {
AngleInDegrees = 0;
};
}),
(300,702,o),
(248,700,o),
(198,700,cs),
(145,700,o),
(71,702,o),
(45,706,c,{
"Letterink-NibData" = {
AngleInDegrees = 0;
};
}),
(46,694,o),
(46,682,o),
(45,676,c,{
"Letterink-NibData" = {
AngleInDegrees = 360;
};
}),
(92,672,o),
(125,653,o),
(130,626,cs,{
"Letterink-NibData" = {
AngleInDegrees = 0;
};
}),
(149,535,o),
(145,232,o),
(134,79,cs,{
"Letterink-NibData" = {
AngleInDegrees = 0;
};
}),
(132,53,o),
(99,28,o),
(48,16,c,{
"Letterink-NibData" = {
AngleInDegrees = 0;
};
}),
(49,9,o),
(49,1,o),
(48,-6,c,{
"Letterink-NibData" = {
AngleInDegrees = 0;
};
})
);
}
);
width = 372;
}
);
unicode = 73;
},
{
glyphname = J;
lastChange = "2025-08-28 19:37:54 +0000";
layers = (
{
anchors = (
{
name = bottom;
pos = (176,0);
},
{
name = top;
pos = (176,700);
}
);
layerId = m01;
shapes = (
{
closed = 1;
nodes = (
(166,-293,o),
(236,-164,o),
(233,29,cs,{
"Letterink-NibData" = {
AngleInDegrees = "359.99999";
};
}),
(228,295,o),
(230,587,o),
(237,626,cs,{
"Letterink-NibData" = {
AngleInDegrees = "360";
};
}),
(242,653,o),
(279,672,o),
(324,676,c,{
"Letterink-NibData" = {
AngleInDegrees = "0";
};
}),
(323,682,o),
(323,694,o),
(324,706,c,{
"Letterink-NibData" = {
AngleInDegrees = "0";
};
}),
(314,702,o),
(262,700,o),
(195,700,cs),
(113,700,o),
(53,702,o),
(43,706,c,{
"Letterink-NibData" = {
AngleInDegrees = "0";
};
}),
(44,694,o),
(44,682,o),
(43,676,c,{
"Letterink-NibData" = {
AngleInDegrees = "360";
};
}),
(88,672,o),
(122,653,o),
(127,626,cs,{
"Letterink-NibData" = {
AngleInDegrees = "0";
};
}),
(136,584,o),
(141,284,o),
(141,9,cs,{
"Letterink-NibData" = {
AngleInDegrees = "0";
};
}),
(141,-159,o),
(102,-272,o),
(20,-283,c,{
"Letterink-NibData" = {
AngleInDegrees = "0";
};
}),
(28,-306,l,{
"Letterink-NibData" = {
AngleInDegrees = "0";
};
})
);
}
);
width = 351;
}
);
unicode = 74;
},
{
glyphname = K;
lastChange = "2025-08-28 19:37:54 +0000";
layers = (
{
anchors = (
{
name = bottom;
pos = (366,0);
},
{
name = top;
pos = (366,700);
}
);
layerId = m01;
shapes = (
{
closed = 1;
nodes = (
(88,-2,o),
(158,0,o),
(198,0,cs),
(235,0,o),
(284,-2,o),
(321,-6,c,{
"Letterink-NibData" = {
AngleInDegrees = "0";
};
}),
(320,1,o),
(320,9,o),
(321,16,c,{
"Letterink-NibData" = {
AngleInDegrees = "0";
};
}),
(273,28,o),
(240,53,o),
(238,79,cs,{
"Letterink-NibData" = {
AngleInDegrees = "359.99999";
};
}),
(234,128,o),
(231,205,o),
(229,287,c),
(259,319,l),
(381,199,o),
(481,92,o),
(546,-6,c),
(597,2,o),
(658,2,o),
(721,-6,c),
(722,23,l),
(677,28,o),
(619,80,o),
(541,164,cs),
(462,250,o),
(381,319,o),
(328,389,c),
(543,613,ls,{
"Letterink-NibData" = {
AngleInDegrees = "0";
};
}),
(575,647,o),
(628,658,o),
(677,658,c),
(677,704,l),
(621,701,o),
(531,701,o),
(425,704,c),
(425,671,l),
(514,671,o),
(505,651,o),
(478,622,cs),
(229,358,l),
(229,470,o),
(232,578,o),
(242,626,cs,{
"Letterink-NibData" = {
AngleInDegrees = "360";
};
}),
(247,653,o),
(280,672,o),
(324,676,c,{
"Letterink-NibData" = {
AngleInDegrees = "0";
};
}),
(323,682,o),
(323,694,o),
(324,706,c,{
"Letterink-NibData" = {
AngleInDegrees = "0";
};
}),
(298,702,o),
(248,700,o),
(198,700,cs),
(145,700,o),
(74,702,o),
(48,706,c,{
"Letterink-NibData" = {
AngleInDegrees = "0";
};
}),
(49,694,o),
(49,682,o),
(48,676,c,{
"Letterink-NibData" = {
AngleInDegrees = "360";
};
}),
(92,672,o),
(125,653,o),
(130,626,cs,{
"Letterink-NibData" = {
AngleInDegrees = "0";
};
}),
(149,535,o),
(145,212,o),
(134,79,cs,{
"Letterink-NibData" = {
AngleInDegrees = "0";
};
}),
(132,53,o),
(99,28,o),
(51,16,c,{
"Letterink-NibData" = {
AngleInDegrees = "0";
};
}),
(52,9,o),
(52,1,o),
(51,-6,c,{
"Letterink-NibData" = {
AngleInDegrees = "0";
};
})
);
}
);
width = 732;
}
);
unicode = 75;
},
{
glyphname = L;
lastChange = "2025-08-28 19:37:54 +0000";
layers = (
{
anchors = (
{
name = bottom;
pos = (332,0);
},
{
name = center;
pos = (332,350);
},
{
name = top;
pos = (332,700);
},
{
name = topright;
pos = (644,700);
}
);
layerId = m01;
shapes = (
{
closed = 1;
nodes = (
(593,57,o),
(607,126,o),
(624,196,c),
(615,198,o),
(606,202,o),
(597,208,c),
(581,149,o),
(531,70,o),
(486,46,cs),
(464,34,o),
(394,37,o),
(371,37,cs),
(318,37,o),
(283,42,o),
(254,60,cs),
(248,64,o),
(244,71,o),
(244,79,cs,{
"Letterink-NibData" = {
AngleInDegrees = "359.99999";
};
}),
(237,172,o),
(233,259,o),
(232,337,cs),
(232,383,ls),
(231,499,o),
(228,581,o),
(247,633,cs),
(253,648,o),
(269,659,o),
(338,665,c),
(336,678,o),
(336,692,o),
(338,705,c),
(296,702,o),
(242,700,o),
(196,700,cs),
(125,700,o),
(67,702,o),
(46,706,c,{
"Letterink-NibData" = {
AngleInDegrees = "0";
};
}),
(48,696,o),
(48,684,o),
(46,676,c,{
"Letterink-NibData" = {
AngleInDegrees = "360";
};
}),
(91,672,o),
(123,653,o),
(128,626,cs,{
"Letterink-NibData" = {
AngleInDegrees = "0";
};
}),
(148,530,o),
(150,319,o),
(132,79,cs,{
"Letterink-NibData" = {
AngleInDegrees = "0";
};
}),
(130,53,o),
(98,28,o),
(49,16,c,{
"Letterink-NibData" = {
AngleInDegrees = "0";
};
}),
(50,9,o),
(50,1,o),
(49,-6,c,{
"Letterink-NibData" = {
AngleInDegrees = "0";
};
}),
(79,-2,o),
(136,1,o),
(196,0,cs),
(326,-2,o),
(450,-4,o),
(580,-13,c)
);
}
);
width = 664;
}
);
unicode = 76;
},
{
glyphname = M;
lastChange = "2025-08-28 19:37:54 +0000";
layers = (
{
anchors = (
{
name = bottom;
pos = (533,0);
},
{
name = top;
pos = (533,700);
}
);
layerId = m01;
shapes = (
{
closed = 1;
nodes = (
(633,221,o),
(725,434,o),
(833,616,c),
(848,448,o),
(833,209,o),
(824,80,cs,{
"Letterink-NibData" = {
AngleInDegrees = "0";
};
}),
(822,54,o),
(789,31,o),
(741,19,c,{
"Letterink-NibData" = {
AngleInDegrees = "0";
};
}),
(742,12,o),
(742,3,o),
(741,-4,c,{
"Letterink-NibData" = {
AngleInDegrees = "0";
};
}),
(778,0,o),
(828,2,o),
(868,0,cs),
(905,-2,o),
(987,0,o),
(1024,-4,c,{
"Letterink-NibData" = {
AngleInDegrees = "0";
};
}),
(1023,3,o),
(1023,11,o),
(1024,18,c,{
"Letterink-NibData" = {
AngleInDegrees = "0";
};
}),
(976,30,o),
(932,53,o),
(930,79,cs,{
"Letterink-NibData" = {
AngleInDegrees = "359.99999";
};
}),
(919,232,o),
(925,535,o),
(932,626,cs,{
"Letterink-NibData" = {
AngleInDegrees = "360";
};
}),
(934,653,o),
(965,672,o),
(1009,676,c,{
"Letterink-NibData" = {
AngleInDegrees = "0";
};
}),
(1008,682,o),
(1008,694,o),
(1009,706,c,{
"Letterink-NibData" = {
AngleInDegrees = "0";
};
}),
(983,702,o),
(913,700,o),
(878,700,cs),
(874,700,l),
(874,700,l),
(819,701,l,{
"Letterink-NibData" = {
AngleInDegrees = "360";
};
}),
(549,145,l),
(234,701,l,{
"Letterink-NibData" = {
AngleInDegrees = "360";
};
}),
(229,701,l),
(229,701,o),
(229,701,o),
(229,701,c),
(229,701,o,{
"Letterink-NibData" = {
AngleInDegrees = "360";
};
}),
(228,701,o),
(228,701,c),
(111,700,ls),
(74,700,o),
(70,703,o),
(48,706,c,{
"Letterink-NibData" = {
AngleInDegrees = "0";
};
}),
(49,694,o),
(49,682,o),
(48,676,c,{
"Letterink-NibData" = {
AngleInDegrees = "360";
};
}),
(92,672,o),
(125,653,o),
(130,626,cs,{
"Letterink-NibData" = {
AngleInDegrees = "0";
};
}),
(149,535,o),
(145,232,o),
(134,79,cs,{
"Letterink-NibData" = {
AngleInDegrees = "0";
};
}),
(132,53,o),
(89,30,o),
(41,18,c,{
"Letterink-NibData" = {
AngleInDegrees = "0";
};
}),
(42,11,o),
(42,3,o),
(41,-4,c,{
"Letterink-NibData" = {
AngleInDegrees = "0";
};
}),
(78,0,o),
(138,0,o),
(178,0,cs),
(195,0,o),
(246,0,o),
(283,-4,c,{
"Letterink-NibData" = {
AngleInDegrees = "0";
};
}),
(282,3,o),
(282,11,o),
(283,18,c,{
"Letterink-NibData" = {
AngleInDegrees = "0";
};
}),
(235,30,o),
(202,53,o),
(200,79,cs,{
"Letterink-NibData" = {
AngleInDegrees = "359.99999";
};
}),
(192,188,o),
(188,393,o),
(198,549,c),
(291,366,o),
(412,162,o),
(525,-21,c,{
"Letterink-NibData" = {
AngleInDegrees = "0";
};
})
);
}
);
width = 1065;
}
);
unicode = 77;
},
{
glyphname = N;
lastChange = "2025-08-28 19:37:54 +0000";
layers = (
{
anchors = (
{
name = bottom;
pos = (442,0);
},
{
name = top;
pos = (442,700);
}
);
layerId = m01;
shapes = (
{
closed = 1;
nodes = (
(88,-2,o),
(138,0,o),
(178,0,cs),
(208,0,o),
(251,-2,o),
(281,-6,c,{
"Letterink-NibData" = {
AngleInDegrees = "0";
};
}),
(280,1,o),
(280,9,o),
(281,16,c,{
"Letterink-NibData" = {
AngleInDegrees = "0";
};
}),
(233,28,o),
(202,53,o),
(200,79,cs,{
"Letterink-NibData" = {
AngleInDegrees = "359.99999";
};
}),
(191,197,o),
(187,405,o),
(201,571,c),
(433,310,o),
(407,341,o),
(696,-2,c,{
"Letterink-NibData" = {
AngleInDegrees = "0";
};
}),
(722,0,o),
(748,0,o),
(774,-2,c,{
"Letterink-NibData" = {
AngleInDegrees = "359.99999";
};
}),
(757,231,o),
(753,535,o),
(772,626,cs,{
"Letterink-NibData" = {
AngleInDegrees = "360";
};
}),
(777,653,o),
(810,672,o),
(853,676,c,{
"Letterink-NibData" = {
AngleInDegrees = "0";
};
}),
(852,682,o),
(852,694,o),
(853,706,c,{
"Letterink-NibData" = {
AngleInDegrees = "0";
};
}),
(828,702,o),
(778,700,o),
(728,700,cs),
(695,700,o),
(644,702,o),
(604,706,c,{
"Letterink-NibData" = {
AngleInDegrees = "0";
};
}),
(605,694,o),
(605,682,o),
(604,676,c,{
"Letterink-NibData" = {
AngleInDegrees = "360";
};
}),
(662,672,o),
(693,653,o),
(698,626,cs,{
"Letterink-NibData" = {
AngleInDegrees = "0";
};
}),
(713,555,o),
(714,357,o),
(705,163,c),
(544,341,o),
(388,519,o),
(229,703,c),
(203,701,o),
(176,701,o),
(148,701,cs),
(116,701,o),
(74,703,o),
(41,706,c,{
"Letterink-NibData" = {
AngleInDegrees = "0";
};
}),
(42,694,o),
(42,682,o),
(41,676,c,{
"Letterink-NibData" = {
AngleInDegrees = "360";
};
}),
(92,672,o),
(125,653,o),
(130,626,cs,{
"Letterink-NibData" = {
AngleInDegrees = "0";
};
}),
(149,535,o),
(145,232,o),
(134,79,cs,{
"Letterink-NibData" = {
AngleInDegrees = "0";
};
}),
(132,53,o),
(99,28,o),
(51,16,c,{
"Letterink-NibData" = {
AngleInDegrees = "0";
};
}),
(52,9,o),
(52,1,o),
(51,-6,c,{
"Letterink-NibData" = {
AngleInDegrees = "0";
};
})
);
}
);
width = 883;
}
);
unicode = 78;
},
{
glyphname = O;
lastChange = "2025-08-28 19:37:54 +0000";
layers = (
{
anchors = (
{
name = bottom;
pos = (422,0);
},
{
name = center;
pos = (422,350);
},
{
name = ogonek;
pos = (759,10);
},
{
name = top;
pos = (422,700);
},
{
name = topleft;
pos = (20,700);
},
{
name = topright;
pos = (823,700);
}
);
background = {
shapes = (
{
closed = 1;
nodes = (
(229,0,o),
(278,-2,o),
(315,-6,c,{
"Letterink-NibData" = {
AngleInDegrees = "0";
};
}),
(314,1,o),
(314,9,o),
(315,16,c,{
"Letterink-NibData" = {
AngleInDegrees = "0";
};
}),
(267,28,o),
(234,53,o),
(232,79,cs,{
"Letterink-NibData" = {
AngleInDegrees = "359.99999";
};
}),
(221,232,o),
(217,535,o),
(236,626,cs,{
"Letterink-NibData" = {
AngleInDegrees = "360";
};
}),
(241,653,o),
(274,672,o),
(318,676,c,{
"Letterink-NibData" = {
AngleInDegrees = "0";
};
}),
(317,682,o),
(317,694,o),
(318,706,c,{
"Letterink-NibData" = {
AngleInDegrees = "0";
};
}),
(292,702,o),
(242,700,o),
(192,700,c),
(139,700,o),
(68,702,o),
(42,706,c,{
"Letterink-NibData" = {
AngleInDegrees = "0";
};
}),
(43,694,o),
(43,682,o),
(42,676,c,{
"Letterink-NibData" = {
AngleInDegrees = "360";
};
}),
(86,672,o),
(119,653,o),
(124,626,cs,{
"Letterink-NibData" = {
AngleInDegrees = "0";
};
}),
(143,535,o),
(139,232,o),
(128,79,cs,{
"Letterink-NibData" = {
AngleInDegrees = "0";
};
}),
(126,53,o),
(93,28,o),
(45,16,c,{
"Letterink-NibData" = {
AngleInDegrees = "0";
};
}),
(46,9,o),
(46,1,o),
(45,-6,c,{
"Letterink-NibData" = {
AngleInDegrees = "0";
};
}),
(82,-2,o),
(152,0,o),
(192,0,cs)
);
},
{
closed = 1;
nodes = (
(739,0,o),
(808,-2,o),
(845,-6,c,{
"Letterink-NibData" = {
AngleInDegrees = "0";
};
}),
(844,1,o),
(844,9,o),
(845,16,c,{
"Letterink-NibData" = {
AngleInDegrees = "0";
};
}),
(797,28,o),
(764,53,o),
(762,79,cs,{
"Letterink-NibData" = {
AngleInDegrees = "359.99999";
};
}),
(751,232,o),
(747,535,o),
(766,626,cs,{
"Letterink-NibData" = {
AngleInDegrees = "360";
};
}),
(771,653,o),
(804,672,o),
(848,676,c,{
"Letterink-NibData" = {
AngleInDegrees = "0";
};
}),
(847,682,o),
(847,694,o),
(848,706,c,{
"Letterink-NibData" = {
AngleInDegrees = "0";
};
}),
(822,702,o),
(752,700,o),
(702,700,c),
(649,700,o),
(598,702,o),
(572,706,c,{
"Letterink-NibData" = {
AngleInDegrees = "0";
};
}),
(573,694,o),
(573,682,o),
(572,676,c,{
"Letterink-NibData" = {
AngleInDegrees = "360";
};
}),
(616,672,o),
(649,653,o),
(654,626,cs,{
"Letterink-NibData" = {
AngleInDegrees = "0";
};
}),
(673,535,o),
(669,232,o),
(658,79,cs,{
"Letterink-NibData" = {
AngleInDegrees = "0";
};
}),
(656,53,o),
(623,28,o),
(575,16,c,{
"Letterink-NibData" = {
AngleInDegrees = "0";
};
}),
(576,9,o),
(576,1,o),
(575,-6,c,{
"Letterink-NibData" = {
AngleInDegrees = "0";
};
}),
(612,-2,o),
(662,0,o),
(702,0,cs)
);
},
{
closed = 1;
nodes = (
(189,337,l),
(699,337,l),
(699,383,l),
(189,383,l)
);
},
{
closed = 1;
nodes = (
(654,-16,o),
(820,141,o),
(820,364,cs),
(820,573,o),
(664,721,o),
(443,721,cs),
(223,721,o),
(67,573,o),
(67,364,cs),
(67,141,o),
(213,-16,o),
(420,-16,cs)
);
},
{
closed = 1;
nodes = (
(301,41,o),
(183,186,o),
(183,390,cs),
(183,558,o),
(272,676,o),
(399,676,cs),
(577,676,o),
(703,537,o),
(703,340,cs),
(703,165,o),
(606,41,o),
(469,41,cs)
);
}
);
};
layerId = m01;
shapes = (
{
closed = 1;
nodes = (
(639,-16,o),
(773,128,o),
(773,388,cs),
(773,598,o),
(658,714,o),
(451,714,cs),
(206,714,o),
(70,575,o),
(70,324,cs),
(70,105,o),
(187,-16,o),
(397,-16,cs)
);
},
{
closed = 1;
nodes = (
(255,30,o),
(173,150,o),
(173,366,cs),
(173,558,o),
(263,665,o),
(432,665,cs),
(585,665,o),
(666,551,o),
(666,346,cs),
(666,143,o),
(577,30,o),
(410,30,cs)
);
}
);
width = 843;
},
{
associatedMasterId = m01;
background = {
shapes = (
{
closed = 1;
nodes = (
(213,0,o),
(262,-2,o),
(299,-6,c,{
"Letterink-NibData" = {
AngleInDegrees = "0";
};
}),
(298,1,o),
(298,9,o),
(299,16,c,{
"Letterink-NibData" = {
AngleInDegrees = "0";
};
}),
(251,28,o),
(218,53,o),
(216,79,cs,{
"Letterink-NibData" = {
AngleInDegrees = "359.99999";
};
}),
(205,232,o),
(201,535,o),
(220,626,cs,{
"Letterink-NibData" = {
AngleInDegrees = "360";
};
}),
(225,653,o),
(258,672,o),
(302,676,c,{
"Letterink-NibData" = {
AngleInDegrees = "0";
};
}),
(301,682,o),
(301,694,o),
(302,706,c,{
"Letterink-NibData" = {
AngleInDegrees = "0";
};
}),
(276,702,o),
(226,700,o),
(176,700,c),
(123,700,o),
(52,702,o),
(26,706,c,{
"Letterink-NibData" = {
AngleInDegrees = "0";
};
}),
(27,694,o),
(27,682,o),
(26,676,c,{
"Letterink-NibData" = {
AngleInDegrees = "360";
};
}),
(70,672,o),
(103,653,o),
(108,626,cs,{
"Letterink-NibData" = {
AngleInDegrees = "0";
};
}),
(127,535,o),
(123,232,o),
(112,79,cs,{
"Letterink-NibData" = {
AngleInDegrees = "0";
};
}),
(110,53,o),
(77,28,o),
(29,16,c,{
"Letterink-NibData" = {
AngleInDegrees = "0";
};
}),
(30,9,o),
(30,1,o),
(29,-6,c,{
"Letterink-NibData" = {
AngleInDegrees = "0";
};
}),
(66,-2,o),
(136,0,o),
(176,0,cs)
);
},
{
closed = 1;
nodes = (
(723,0,o),
(792,-2,o),
(829,-6,c,{
"Letterink-NibData" = {
AngleInDegrees = "0";
};
}),
(828,1,o),
(828,9,o),
(829,16,c,{
"Letterink-NibData" = {
AngleInDegrees = "0";
};
}),
(781,28,o),
(748,53,o),
(746,79,cs,{
"Letterink-NibData" = {
AngleInDegrees = "359.99999";
};
}),
(735,232,o),
(731,535,o),
(750,626,cs,{
"Letterink-NibData" = {
AngleInDegrees = "360";
};
}),
(755,653,o),
(788,672,o),
(832,676,c,{
"Letterink-NibData" = {
AngleInDegrees = "0";
};
}),
(831,682,o),
(831,694,o),
(832,706,c,{
"Letterink-NibData" = {
AngleInDegrees = "0";
};
}),
(806,702,o),
(736,700,o),
(686,700,c),
(633,700,o),
(582,702,o),
(556,706,c,{
"Letterink-NibData" = {
AngleInDegrees = "0";
};
}),
(557,694,o),
(557,682,o),
(556,676,c,{
"Letterink-NibData" = {
AngleInDegrees = "360";
};
}),
(600,672,o),
(633,653,o),
(638,626,cs,{
"Letterink-NibData" = {
AngleInDegrees = "0";
};
}),
(657,535,o),
(653,232,o),
(642,79,cs,{
"Letterink-NibData" = {
AngleInDegrees = "0";
};
}),
(640,53,o),
(607,28,o),
(559,16,c,{
"Letterink-NibData" = {
AngleInDegrees = "0";
};
}),
(560,9,o),
(560,1,o),
(559,-6,c,{
"Letterink-NibData" = {
AngleInDegrees = "0";
};
}),
(596,-2,o),
(646,0,o),
(686,0,cs)
);
},
{
closed = 1;
nodes = (
(173,337,l),
(683,337,l),
(683,383,l),
(173,383,l)
);
}
);
};
layerId = "801EE85E-9957-4828-9855-2D55670D2080";
name = "17. Aug. 25, 09:43";
shapes = (
{
closed = 1;
nodes = (
(638,-16,o),
(804,141,o),
(804,364,cs),
(804,573,o),
(648,721,o),
(427,721,cs),
(207,721,o),
(51,573,o),
(51,364,cs),
(51,141,o),
(197,-16,o),
(404,-16,cs)
);
},
{
closed = 1;
nodes = (
(285,41,o),
(167,186,o),
(167,390,cs),
(167,558,o),
(256,676,o),
(383,676,cs),
(561,676,o),
(687,537,o),
(687,340,cs),
(687,165,o),
(590,41,o),
(453,41,cs)
);
}
);
width = 855;
},
{
associatedMasterId = m01;
background = {
shapes = (
{
closed = 1;
nodes = (
(213,0,o),
(262,-2,o),
(299,-6,c,{
"Letterink-NibData" = {
AngleInDegrees = "0";
};
}),
(298,1,o),
(298,9,o),
(299,16,c,{
"Letterink-NibData" = {
AngleInDegrees = "0";
};
}),
(251,28,o),
(218,53,o),
(216,79,cs,{
"Letterink-NibData" = {
AngleInDegrees = "359.99999";
};
}),
(205,232,o),
(201,535,o),
(220,626,cs,{
"Letterink-NibData" = {
AngleInDegrees = "360";
};
}),
(225,653,o),
(258,672,o),
(302,676,c,{
"Letterink-NibData" = {
AngleInDegrees = "0";
};
}),
(301,682,o),
(301,694,o),
(302,706,c,{
"Letterink-NibData" = {
AngleInDegrees = "0";
};
}),
(276,702,o),
(226,700,o),
(176,700,c),
(123,700,o),
(52,702,o),
(26,706,c,{
"Letterink-NibData" = {
AngleInDegrees = "0";
};
}),
(27,694,o),
(27,682,o),
(26,676,c,{
"Letterink-NibData" = {
AngleInDegrees = "360";
};
}),
(70,672,o),
(103,653,o),
(108,626,cs,{
"Letterink-NibData" = {
AngleInDegrees = "0";
};
}),
(127,535,o),
(123,232,o),
(112,79,cs,{
"Letterink-NibData" = {
AngleInDegrees = "0";
};
}),
(110,53,o),
(77,28,o),
(29,16,c,{
"Letterink-NibData" = {
AngleInDegrees = "0";
};
}),
(30,9,o),
(30,1,o),
(29,-6,c,{
"Letterink-NibData" = {
AngleInDegrees = "0";
};
}),
(66,-2,o),
(136,0,o),
(176,0,cs)
);
},
{
closed = 1;
nodes = (
(723,0,o),
(792,-2,o),
(829,-6,c,{
"Letterink-NibData" = {
AngleInDegrees = "0";
};
}),
(828,1,o),
(828,9,o),
(829,16,c,{
"Letterink-NibData" = {
AngleInDegrees = "0";
};
}),
(781,28,o),
(748,53,o),
(746,79,cs,{
"Letterink-NibData" = {
AngleInDegrees = "359.99999";
};
}),
(735,232,o),
(731,535,o),
(750,626,cs,{
"Letterink-NibData" = {
AngleInDegrees = "360";
};
}),
(755,653,o),
(788,672,o),
(832,676,c,{
"Letterink-NibData" = {
AngleInDegrees = "0";
};
}),
(831,682,o),
(831,694,o),
(832,706,c,{
"Letterink-NibData" = {
AngleInDegrees = "0";
};
}),
(806,702,o),
(736,700,o),
(686,700,c),
(633,700,o),
(582,702,o),
(556,706,c,{
"Letterink-NibData" = {
AngleInDegrees = "0";
};
}),
(557,694,o),
(557,682,o),
(556,676,c,{
"Letterink-NibData" = {
AngleInDegrees = "360";
};
}),
(600,672,o),
(633,653,o),
(638,626,cs,{
"Letterink-NibData" = {
AngleInDegrees = "0";
};
}),
(657,535,o),
(653,232,o),
(642,79,cs,{
"Letterink-NibData" = {
AngleInDegrees = "0";
};
}),
(640,53,o),
(607,28,o),
(559,16,c,{
"Letterink-NibData" = {
AngleInDegrees = "0";
};
}),
(560,9,o),
(560,1,o),
(559,-6,c,{
"Letterink-NibData" = {
AngleInDegrees = "0";
};
}),
(596,-2,o),
(646,0,o),
(686,0,cs)
);
},
{
closed = 1;
nodes = (
(173,337,l),
(683,337,l),
(683,383,l),
(173,383,l)
);
},
{
closed = 1;
nodes = (
(638,-16,o),
(804,141,o),
(804,364,cs),
(804,573,o),
(648,721,o),
(427,721,cs),
(207,721,o),
(51,573,o),
(51,364,cs),
(51,141,o),
(197,-16,o),
(404,-16,cs)
);
},
{
closed = 1;
nodes = (
(285,41,o),
(167,186,o),
(167,390,cs),
(167,558,o),
(256,676,o),
(383,676,cs),
(561,676,o),
(687,537,o),
(687,340,cs),
(687,165,o),
(590,41,o),
(453,41,cs)
);
}
);
};
layerId = "590B7E66-2DA4-4E11-BF2A-6F819622FB95";
name = "17. Aug. 25, 09:58";
shapes = (
{
closed = 1;
nodes = (
(193,-16,o),
(403,-16,cs),
(645,-16,o),
(779,128,o),
(779,388,cs),
(779,598,o),
(664,714,o),
(457,714,cs),
(212,714,o),
(76,575,o),
(76,324,cs),
(76,105,o)
);
},
{
closed = 1;
nodes = (
(175,150,o),
(175,366,cs),
(175,558,o),
(269,665,o),
(438,665,cs),
(591,665,o),
(676,551,o),
(676,346,cs),
(676,143,o),
(583,30,o),
(416,30,cs),
(261,30,o)
);
}
);
width = 855;
}
);
unicode = 79;
},
{
glyphname = Oslash;
lastChange = "2025-08-28 19:53:35 +0000";
layers = (
{
anchors = (
{
name = bottom;
pos = (300,0);
},
{
name = top;
pos = (300,700);
}
);
layerId = m01;
shapes = (
{
ref = O;
},
{
closed = 1;
nodes = (
(93,-2,l),
(129,-32,l),
(745,716,l),
(708,746,l)
);
}
);
width = 843;
}
);
unicode = 216;
},
{
glyphname = OE;
lastChange = "2025-08-28 19:55:14 +0000";
layers = (
{
anchors = (
{
name = bottom;
pos = (878,0);
},
{
name = ogonek;
pos = (1148,10);
},
{
name = top;
pos = (878,700);
},
{
name = topleft;
pos = (560,700);
}
);
layerId = m01;
shapes = (
{
closed = 1;
nodes = (
(639,-16,o),
(763,128,o),
(763,388,cs),
(763,598,o),
(658,714,o),
(451,714,cs),
(206,714,o),
(70,575,o),
(70,324,cs),
(70,105,o),
(187,-16,o),
(397,-16,cs)
);
},
{
closed = 1;
nodes = (
(255,30,o),
(173,150,o),
(173,366,cs),
(173,558,o),
(263,665,o),
(432,665,cs),
(585,665,o),
(666,551,o),
(666,346,cs),
(666,143,o),
(577,30,o),
(410,30,cs)
);
},
{
closed = 1;
nodes = (
(1134,60,o),
(1148,128,o),
(1165,196,c),
(1156,198,o),
(1147,202,o),
(1138,208,c),
(1118,134,o),
(1072,67,o),
(1027,46,cs),
(1005,36,o),
(935,37,o),
(912,37,cs),
(859,37,o),
(814,42,o),
(785,60,cs),
(782,62,o),
(781,70,o),
(780,79,cs,{
"Letterink-NibData" = {
AngleInDegrees = "359.99999";
};
}),
(774,172,o),
(769,259,o),
(768,339,c),
(803,340,o),
(839,340,o),
(874,337,cs),
(945,331,o),
(969,277,o),
(980,226,c),
(990,228,o),
(1000,228,o),
(1010,226,c),
(1002,311,o),
(999,428,o),
(1004,508,c),
(992,506,o),
(981,506,o),
(969,508,c),
(963,459,o),
(950,389,o),
(874,383,cs),
(839,380,o),
(803,380,o),
(768,381,c),
(767,499,o),
(772,588,o),
(783,643,c),
(796,653,o),
(853,663,o),
(922,659,cs),
(996,655,o),
(1042,613,o),
(1052,541,c),
(1061,543,o),
(1069,544,o),
(1078,542,c),
(1077,599,o),
(1077,656,o),
(1080,713,c),
(1023,705,o),
(814,700,o),
(737,700,c),
(684,701,l,{
"Letterink-NibData" = {
AngleInDegrees = "0";
};
}),
(689,525,o),
(691,324,o),
(686,-2,c,{
"Letterink-NibData" = {
AngleInDegrees = "0";
};
}),
(737,0,l),
(807,-2,o),
(991,3,o),
(1121,-8,c)
);
}
);
width = 1215;
}
);
unicode = 338;
},
{
glyphname = P;
lastChange = "2025-08-28 19:37:54 +0000";
layers = (
{
anchors = (
{
name = bottom;
pos = (298,0);
},
{
name = top;
pos = (298,700);
}
);
layerId = m01;
shapes = (
{
closed = 1;
nodes = (
(339,0,o),
(339,9,o),
(340,16,c,{
"Letterink-NibData" = {
AngleInDegrees = "0";
};
}),
(279,31,o),
(243,59,o),
(241,89,cs,{
"Letterink-NibData" = {
AngleInDegrees = "359.99999";
};
}),
(235,169,o),
(231,245,o),
(229,315,c),
(267,310,o),
(302,309,o),
(344,311,cs),
(480,316,o),
(566,392,o),
(566,509,cs),
(566,628,o),
(484,703,o),
(354,703,cs),
(331,703,o),
(310,702,o),
(292,701,cs),
(268,700,o),
(235,700,o),
(197,700,cs),
(129,700,o),
(71,702,o),
(47,706,c,{
"Letterink-NibData" = {
AngleInDegrees = "0";
};
}),
(48,690,o),
(48,674,o),
(47,666,c,{
"Letterink-NibData" = {
AngleInDegrees = "360";
};
}),
(92,662,o),
(124,643,o),
(129,616,cs,{
"Letterink-NibData" = {
AngleInDegrees = "0";
};
}),
(148,523,o),
(150,316,o),
(133,79,cs,{
"Letterink-NibData" = {
AngleInDegrees = "0";
};
}),
(131,53,o),
(99,28,o),
(50,16,c,{
"Letterink-NibData" = {
AngleInDegrees = "0";
};
}),
(51,9,o),
(51,1,o),
(50,-6,c,{
"Letterink-NibData" = {
AngleInDegrees = "0";
};
}),
(84,-2,o),
(141,0,o),
(197,0,cs),
(248,0,o),
(304,-3,o),
(340,-8,c,{
"Letterink-NibData" = {
AngleInDegrees = "0";
};
})
);
},
{
closed = 1;
nodes = (
(226,484,o),
(229,587,o),
(236,646,cs,{
"Letterink-NibData" = {
AngleInDegrees = "360";
};
}),
(236,648,o),
(238,651,o),
(240,653,c),
(269,658,o),
(296,661,o),
(343,659,cs),
(418,657,o),
(465,598,o),
(465,506,cs),
(465,417,o),
(418,358,o),
(344,353,cs),
(301,351,o),
(267,352,o),
(228,357,c)
);
}
);
width = 596;
}
);
unicode = 80;
},
{
glyphname = Q;
lastChange = "2025-08-28 19:37:54 +0000";
layers = (
{
anchors = (
{
name = bottom;
pos = (422,0);
},
{
name = top;
pos = (422,700);
}
);
layerId = m01;
shapes = (
{
closed = 1;
nodes = (
(787,-152,o),
(887,-127,o),
(950,-92,c),
(936,-68,l),
(890,-90,o),
(830,-106,o),
(792,-106,cs),
(696,-106,o),
(599,0,o),
(521,0,cs),
(383,4,l),
(363,-16,l),
(508,-17,o),
(558,-152,o),
(699,-152,cs)
);
},
{
ref = O;
}
);
width = 843;
}
);
unicode = 81;
},
{
glyphname = R;
lastChange = "2025-08-28 19:37:54 +0000";
layers = (
{
anchors = (
{
name = bottom;
pos = (356,0);
},
{
name = top;
pos = (356,700);
}
);
background = {
shapes = (
{
closed = 1;
nodes = (
(639,-9,o),
(721,-3,o),
(743,0,c),
(742,24,l),
(709,34,o),
(652,47,o),
(562,160,cs),
(492,249,o),
(443,364,o),
(290,418,c),
(225,345,l),
(409,252,o),
(482,109,o),
(501,83,cs),
(519,59,o),
(563,-9,o),
(579,-9,cs)
);
},
{
closed = 1;
nodes = (
(649,-9,o),
(700,-5,o),
(720,0,c),
(720,24,l),
(689,34,o),
(640,65,o),
(613,100,cs),
(543,189,o),
(477,296,o),
(394,370,c),
(268,367,l),
(390,254,o),
(448,169,o),
(467,143,cs),
(485,119,o),
(573,-9,o),
(591,-9,cs)
);
}
);
};
layerId = m01;
shapes = (
{
closed = 1;
nodes = (
(340,0,o),
(340,9,o),
(341,16,c,{
"Letterink-NibData" = {
AngleInDegrees = "0";
};
}),
(293,28,o),
(240,63,o),
(238,89,cs,{
"Letterink-NibData" = {
AngleInDegrees = "359.99999";
};
}),
(234,149,o),
(230,248,o),
(229,335,c),
(236,334,o),
(250,334,o),
(256,333,c),
(364,214,o),
(448,93,o),
(521,-6,c),
(572,-2,o),
(648,-2,o),
(701,-6,c),
(702,19,l),
(667,24,o),
(596,73,o),
(517,164,cs),
(460,229,o),
(422,276,o),
(372,331,c),
(372,331,o),
(375,331,o),
(375,331,c),
(499,331,o),
(577,423,o),
(577,527,cs),
(577,635,o),
(499,703,o),
(375,703,cs),
(359,703,o),
(342,703,o),
(324,702,c),
(324,702,o),
(324,702,o),
(324,702,c,{
"Letterink-NibData" = {
AngleInDegrees = "0";
};
}),
(298,700,o),
(248,700,o),
(198,700,cs),
(145,700,o),
(71,702,o),
(45,706,c,{
"Letterink-NibData" = {
AngleInDegrees = "0";
};
}),
(46,694,o),
(46,670,o),
(45,664,c,{
"Letterink-NibData" = {
AngleInDegrees = "360";
};
}),
(89,660,o),
(125,641,o),
(130,614,cs,{
"Letterink-NibData" = {
AngleInDegrees = "0";
};
}),
(149,523,o),
(145,232,o),
(134,79,cs,{
"Letterink-NibData" = {
AngleInDegrees = "0";
};
}),
(132,53,o),
(99,28,o),
(51,16,c,{
"Letterink-NibData" = {
AngleInDegrees = "0";
};
}),
(52,9,o),
(52,1,o),
(51,-6,c,{
"Letterink-NibData" = {
AngleInDegrees = "0";
};
}),
(88,-2,o),
(158,0,o),
(198,0,cs),
(235,0,o),
(304,-3,o),
(341,-8,c,{
"Letterink-NibData" = {
AngleInDegrees = "0";
};
})
);
},
{
closed = 1;
nodes = (
(228,493,o),
(232,594,o),
(241,643,c),
(267,664,o),
(321,659,o),
(374,659,cs),
(440,659,o),
(476,608,o),
(476,524,cs),
(476,451,o),
(440,378,o),
(375,373,cs),
(326,369,o),
(278,372,o),
(229,377,c)
);
}
);
width = 712;
}
);
unicode = 82;
},
{
glyphname = S;
lastChange = "2025-08-28 19:37:54 +0000";
layers = (
{
anchors = (
{
name = bottom;
pos = (291,0);
},
{
name = top;
pos = (291,700);
}
);
layerId = m01;
shapes = (
{
closed = 1;
nodes = (
(431,-14,o),
(512,66,o),
(512,185,cs),
(512,298,o),
(417,349,o),
(311,397,cs),
(215,440,o),
(144,482,o),
(144,556,cs),
(144,639,o),
(198,673,o),
(285,673,cs),
(374,673,o),
(425,608,o),
(431,492,c),
(476,492,l),
(472,689,l),
(447,689,o),
(425,694,o),
(402,700,cs),
(372,707,o),
(348,715,o),
(299,715,cs),
(156,715,o),
(68,643,o),
(68,523,cs),
(68,396,o),
(161,345,o),
(267,297,cs),
(362,254,o),
(435,213,o),
(435,143,cs),
(435,71,o),
(369,30,o),
(294,30,cs),
(184,30,o),
(113,106,o),
(93,196,c),
(60,196,l),
(64,135,o),
(66,70,o),
(66,15,c),
(93,13,o),
(115,8,o),
(139,3,cs),
(174,-5,o),
(213,-14,o),
(279,-14,cs)
);
}
);
width = 582;
}
);
unicode = 83;
},
{
glyphname = T;
lastChange = "2025-08-28 19:37:54 +0000";
layers = (
{
anchors = (
{
name = bottom;
pos = (354,0);
},
{
name = center;
pos = (354,350);
},
{
name = top;
pos = (354,700);
}
);
layerId = m01;
shapes = (
{
closed = 1;
nodes = (
(244,-2,o),
(314,0,o),
(354,0,cs),
(391,0,o),
(440,-2,o),
(507,-6,c,{
"Letterink-NibData" = {
AngleInDegrees = "0";
};
}),
(506,1,o),
(506,9,o),
(507,16,c,{
"Letterink-NibData" = {
AngleInDegrees = "0";
};
}),
(429,28,o),
(398,53,o),
(396,79,cs,{
"Letterink-NibData" = {
AngleInDegrees = "359.99999";
};
}),
(385,232,o),
(381,535,o),
(400,626,cs,{
"Letterink-NibData" = {
AngleInDegrees = "360";
};
}),
(401,630,o),
(401,632,o),
(403,636,c),
(441,646,o),
(554,651,o),
(595,645,cs),
(638,639,o),
(657,560,o),
(671,550,c),
(698,552,l),
(690,592,o),
(686,651,o),
(686,731,c),
(652,722,ls),
(642,719,o),
(558,706,o),
(480,703,c),
(480,703,o),
(480,704,o),
(480,704,c,{
"Letterink-NibData" = {
AngleInDegrees = "0";
};
}),
(478,704,o),
(474,703,o),
(472,703,cs),
(415,701,o),
(365,700,o),
(354,700,cs),
(343,700,o),
(303,701,o),
(257,703,cs),
(234,704,o),
(216,705,o),
(204,706,c),
(204,706,o,{
"Letterink-NibData" = {
AngleInDegrees = "0";
};
}),
(204,705,o),
(204,705,c),
(154,707,o),
(106,710,o),
(99,712,cs),
(22,738,l),
(22,655,o),
(18,601,o),
(10,518,c),
(37,510,l),
(51,560,o),
(70,640,o),
(113,645,cs),
(147,649,o),
(231,647,o),
(280,640,c),
(283,636,o),
(285,631,o),
(286,626,cs,{
"Letterink-NibData" = {
AngleInDegrees = "0";
};
}),
(305,535,o),
(301,232,o),
(290,79,cs,{
"Letterink-NibData" = {
AngleInDegrees = "0";
};
}),
(288,53,o),
(255,28,o),
(187,16,c,{
"Letterink-NibData" = {
AngleInDegrees = "0";
};
}),
(188,9,o),
(188,1,o),
(187,-6,c,{
"Letterink-NibData" = {
AngleInDegrees = "0";
};
})
);
}
);
width = 708;
}
);
unicode = 84;
},
{
glyphname = U;
lastChange = "2025-08-28 19:37:54 +0000";
layers = (
{
anchors = (
{
name = bottom;
pos = (404,0);
},
{
name = ogonek;
pos = (726,10);
},
{
name = top;
pos = (404,700);
},
{
name = topright;
pos = (787,700);
}
);
layerId = m01;
shapes = (
{
closed = 1;
nodes = (
(581,-16,o),
(699,86,o),
(702,249,cs,{
"Letterink-NibData" = {
AngleInDegrees = "359.99999";
};
}),
(705,490,o),
(706,635,o),
(705,626,c,{
"Letterink-NibData" = {
AngleInDegrees = "360";
};
}),
(710,653,o),
(742,672,o),
(787,676,c,{
"Letterink-NibData" = {
AngleInDegrees = "0";
};
}),
(786,682,o),
(786,694,o),
(787,706,c,{
"Letterink-NibData" = {
AngleInDegrees = "0";
};
}),
(771,702,o),
(723,700,o),
(661,700,cs),
(609,700,o),
(567,702,o),
(551,706,c,{
"Letterink-NibData" = {
AngleInDegrees = "0";
};
}),
(552,694,o),
(552,682,o),
(551,676,c,{
"Letterink-NibData" = {
AngleInDegrees = "360";
};
}),
(596,672,o),
(628,653,o),
(633,626,cs,{
"Letterink-NibData" = {
AngleInDegrees = "0";
};
}),
(639,585,o),
(640,439,o),
(637,249,cs,{
"Letterink-NibData" = {
AngleInDegrees = "0";
};
}),
(635,116,o),
(553,32,o),
(424,32,cs),
(295,32,o),
(213,116,o),
(211,249,cs,{
"Letterink-NibData" = {
AngleInDegrees = "359.99999";
};
}),
(208,439,o),
(209,585,o),
(215,626,cs,{
"Letterink-NibData" = {
AngleInDegrees = "360";
};
}),
(220,653,o),
(252,672,o),
(297,676,c,{
"Letterink-NibData" = {
AngleInDegrees = "0";
};
}),
(296,682,o),
(296,694,o),
(297,706,c,{
"Letterink-NibData" = {
AngleInDegrees = "0";
};
}),
(281,702,o),
(233,700,o),
(171,700,cs),
(95,700,o),
(37,702,o),
(21,706,c,{
"Letterink-NibData" = {
AngleInDegrees = "0";
};
}),
(22,694,o),
(22,682,o),
(21,676,c,{
"Letterink-NibData" = {
AngleInDegrees = "360";
};
}),
(66,672,o),
(98,653,o),
(103,626,c,{
"Letterink-NibData" = {
AngleInDegrees = "0";
};
}),
(102,635,o),
(103,490,o),
(106,249,cs,{
"Letterink-NibData" = {
AngleInDegrees = "0";
};
}),
(109,86,o),
(221,-16,o),
(397,-16,cs)
);
}
);
width = 807;
}
);
unicode = 85;
},
{
glyphname = V;
lastChange = "2025-08-28 19:37:54 +0000";
layers = (
{
anchors = (
{
name = bottom;
pos = (397,0);
},
{
name = top;
pos = (397,700);
}
);
layerId = m01;
shapes = (
{
closed = 1;
nodes = (
(452,4,l,{
"Letterink-NibData" = {
AngleInDegrees = "359.99999";
};
}),
(494,157,o),
(624,529,o),
(675,620,cs,{
"Letterink-NibData" = {
AngleInDegrees = "360";
};
}),
(689,647,o),
(729,666,o),
(774,670,c,{
"Letterink-NibData" = {
AngleInDegrees = "0";
};
}),
(775,676,o),
(779,694,o),
(784,706,c,{
"Letterink-NibData" = {
AngleInDegrees = "0";
};
}),
(757,702,o),
(716,700,o),
(666,700,cs),
(613,700,o),
(543,702,o),
(518,706,c,{
"Letterink-NibData" = {
AngleInDegrees = "0";
};
}),
(520,694,o),
(521,676,o),
(518,670,c,{
"Letterink-NibData" = {
AngleInDegrees = "360";
};
}),
(561,666,o),
(607,647,o),
(602,610,cs,{
"Letterink-NibData" = {
AngleInDegrees = "0";
};
}),
(592,542,o),
(489,259,o),
(420,84,c),
(352,260,o),
(252,549,o),
(241,626,cs,{
"Letterink-NibData" = {
AngleInDegrees = "360";
};
}),
(237,653,o),
(255,672,o),
(298,676,c,{
"Letterink-NibData" = {
AngleInDegrees = "0";
};
}),
(295,682,o),
(295,694,o),
(296,706,c,{
"Letterink-NibData" = {
AngleInDegrees = "0";
};
}),
(271,702,o),
(222,700,o),
(162,700,cs),
(109,700,o),
(37,702,o),
(10,706,c,{
"Letterink-NibData" = {
AngleInDegrees = "0";
};
}),
(15,694,o),
(19,682,o),
(20,676,c,{
"Letterink-NibData" = {
AngleInDegrees = "360";
};
}),
(65,672,o),
(105,653,o),
(119,626,cs,{
"Letterink-NibData" = {
AngleInDegrees = "0";
};
}),
(170,535,o),
(306,137,o),
(348,-16,c,{
"Letterink-NibData" = {
AngleInDegrees = "0";
};
})
);
}
);
width = 794;
}
);
unicode = 86;
},
{
glyphname = W;
lastChange = "2025-08-28 19:37:54 +0000";
layers = (
{
anchors = (
{
name = bottom;
pos = (535,0);
},
{
name = top;
pos = (535,700);
}
);
layerId = m01;
shapes = (
{
closed = 1;
nodes = (
(462,4,l,{
"Letterink-NibData" = {
AngleInDegrees = "359.99999";
};
}),
(479,66,o),
(513,167,o),
(550,268,c),
(590,157,o),
(626,49,o),
(644,-16,c,{
"Letterink-NibData" = {
AngleInDegrees = "0";
};
}),
(748,4,l,{
"Letterink-NibData" = {
AngleInDegrees = "359.99999";
};
}),
(790,157,o),
(920,529,o),
(971,620,cs,{
"Letterink-NibData" = {
AngleInDegrees = "360";
};
}),
(985,647,o),
(1025,666,o),
(1070,670,c,{
"Letterink-NibData" = {
AngleInDegrees = "0";
};
}),
(1071,676,o),
(1075,694,o),
(1080,706,c,{
"Letterink-NibData" = {
AngleInDegrees = "0";
};
}),
(1053,702,o),
(1012,700,o),
(962,700,cs),
(909,700,o),
(859,702,o),
(834,706,c,{
"Letterink-NibData" = {
AngleInDegrees = "0";
};
}),
(836,694,o),
(837,676,o),
(834,670,c,{
"Letterink-NibData" = {
AngleInDegrees = "360";
};
}),
(877,666,o),
(903,647,o),
(898,610,cs,{
"Letterink-NibData" = {
AngleInDegrees = "0";
};
}),
(888,541,o),
(788,249,o),
(716,72,c),
(681,161,o),
(637,287,o),
(599,399,c),
(638,498,o),
(674,583,o),
(695,620,cs,{
"Letterink-NibData" = {
AngleInDegrees = "360";
};
}),
(709,647,o),
(729,666,o),
(774,670,c,{
"Letterink-NibData" = {
AngleInDegrees = "0";
};
}),
(775,676,o),
(775,694,o),
(775,706,c,{
"Letterink-NibData" = {
AngleInDegrees = "0";
};
}),
(753,702,o),
(736,700,o),
(686,700,cs),
(633,700,o),
(563,702,o),
(558,706,c,{
"Letterink-NibData" = {
AngleInDegrees = "0";
};
}),
(560,694,o),
(561,676,o),
(558,670,c,{
"Letterink-NibData" = {
AngleInDegrees = "360";
};
}),
(581,666,o),
(627,647,o),
(622,610,cs,{
"Letterink-NibData" = {
AngleInDegrees = "0";
};
}),
(618,584,o),
(601,530,o),
(578,464,c),
(548,557,o),
(525,641,o),
(516,700,c,{
"Letterink-NibData" = {
AngleInDegrees = "360";
};
}),
(448,700,ls),
(395,700,o),
(327,702,o),
(324,706,c,{
"Letterink-NibData" = {
AngleInDegrees = "0";
};
}),
(325,694,o),
(325,682,o),
(326,676,c,{
"Letterink-NibData" = {
AngleInDegrees = "360";
};
}),
(351,672,o),
(391,653,o),
(405,626,cs,{
"Letterink-NibData" = {
AngleInDegrees = "0";
};
}),
(431,580,o),
(480,459,o),
(528,329,c),
(495,243,o),
(459,143,o),
(430,72,c),
(359,250,o),
(252,549,o),
(241,626,cs,{
"Letterink-NibData" = {
AngleInDegrees = "360";
};
}),
(237,653,o),
(255,672,o),
(278,676,c,{
"Letterink-NibData" = {
AngleInDegrees = "0";
};
}),
(275,682,o),
(275,694,o),
(276,706,c,{
"Letterink-NibData" = {
AngleInDegrees = "0";
};
}),
(271,702,o),
(222,700,o),
(162,700,cs),
(109,700,o),
(37,702,o),
(10,706,c,{
"Letterink-NibData" = {
AngleInDegrees = "0";
};
}),
(15,694,o),
(19,682,o),
(20,676,c,{
"Letterink-NibData" = {
AngleInDegrees = "360";
};
}),
(65,672,o),
(105,653,o),
(119,626,cs,{
"Letterink-NibData" = {
AngleInDegrees = "0";
};
}),
(170,535,o),
(316,137,o),
(358,-16,c,{
"Letterink-NibData" = {
AngleInDegrees = "0";
};
})
);
}
);
width = 1070;
}
);
unicode = 87;
},
{
glyphname = X;
lastChange = "2025-08-28 19:37:54 +0000";
layers = (
{
anchors = (
{
name = bottom;
pos = (371,0);
},
{
name = top;
pos = (371,700);
}
);
layerId = m01;
shapes = (
{
closed = 1;
nodes = (
(465,-2,o),
(516,0,o),
(578,0,cs),
(645,0,o),
(701,-2,o),
(722,-6,c,{
"Letterink-NibData" = {
AngleInDegrees = "0";
};
}),
(722,24,l,{
"Letterink-NibData" = {
AngleInDegrees = "360";
};
}),
(680,28,o),
(647,48,o),
(627,74,cs,{
"Letterink-NibData" = {
AngleInDegrees = "0";
};
}),
(567,153,o),
(491,264,o),
(412,386,c),
(487,491,o),
(554,575,o),
(590,619,cs,{
"Letterink-NibData" = {
AngleInDegrees = "360";
};
}),
(612,645,o),
(661,665,o),
(714,670,c,{
"Letterink-NibData" = {
AngleInDegrees = "0";
};
}),
(714,706,l,{
"Letterink-NibData" = {
AngleInDegrees = "0";
};
}),
(692,702,o),
(649,700,o),
(603,700,cs),
(533,700,o),
(476,702,o),
(456,706,c,{
"Letterink-NibData" = {
AngleInDegrees = "0";
};
}),
(456,670,l,{
"Letterink-NibData" = {
AngleInDegrees = "360";
};
}),
(518,664,o),
(529,641,o),
(509,610,cs,{
"Letterink-NibData" = {
AngleInDegrees = "0";
};
}),
(479,564,o),
(432,504,o),
(379,437,c),
(340,498,o),
(299,564,o),
(260,628,cs,{
"Letterink-NibData" = {
AngleInDegrees = "360";
};
}),
(244,654,o),
(255,673,o),
(299,677,c,{
"Letterink-NibData" = {
AngleInDegrees = "360";
};
}),
(299,707,l,{
"Letterink-NibData" = {
AngleInDegrees = "0";
};
}),
(281,704,o),
(225,702,o),
(155,702,cs),
(96,702,o),
(47,704,o),
(29,706,c,{
"Letterink-NibData" = {
AngleInDegrees = "0";
};
}),
(29,676,l,{
"Letterink-NibData" = {
AngleInDegrees = "360";
};
}),
(74,672,o),
(114,653,o),
(133,628,cs,{
"Letterink-NibData" = {
AngleInDegrees = "0";
};
}),
(205,529,o),
(271,434,o),
(330,346,c),
(261,250,o),
(180,144,o),
(127,81,cs,{
"Letterink-NibData" = {
AngleInDegrees = "360";
};
}),
(103,53,o),
(58,33,o),
(20,30,c,{
"Letterink-NibData" = {
AngleInDegrees = "0";
};
}),
(20,-6,l,{
"Letterink-NibData" = {
AngleInDegrees = "0";
};
}),
(42,-2,o),
(85,0,o),
(131,0,cs),
(200,0,o),
(257,-2,o),
(277,-6,c,{
"Letterink-NibData" = {
AngleInDegrees = "0";
};
}),
(274,11,o),
(274,25,o),
(277,30,c,{
"Letterink-NibData" = {
AngleInDegrees = "360";
};
}),
(205,36,o),
(190,59,o),
(209,90,cs,{
"Letterink-NibData" = {
AngleInDegrees = "0";
};
}),
(234,129,o),
(294,209,o),
(364,297,c),
(422,208,o),
(470,130,o),
(500,74,cs,{
"Letterink-NibData" = {
AngleInDegrees = "360";
};
}),
(515,48,o),
(494,28,o),
(446,24,c,{
"Letterink-NibData" = {
AngleInDegrees = "360";
};
}),
(446,-6,l,{
"Letterink-NibData" = {
AngleInDegrees = "0";
};
})
);
}
);
width = 742;
}
);
unicode = 88;
},
{
glyphname = Y;
lastChange = "2025-08-28 19:37:54 +0000";
layers = (
{
anchors = (
{
name = bottom;
pos = (367,0);
},
{
name = top;
pos = (367,700);
},
{
name = topleft;
pos = (20,700);
}
);
layerId = m01;
shapes = (
{
closed = 1;
nodes = (
(267,-2,o),
(323,0,o),
(386,0,cs),
(434,0,o),
(481,-2,o),
(509,-6,c,{
"Letterink-NibData" = {
AngleInDegrees = "0";
};
}),
(508,1,o),
(508,9,o),
(509,16,c,{
"Letterink-NibData" = {
AngleInDegrees = "0";
};
}),
(460,28,o),
(427,52,o),
(425,79,cs,{
"Letterink-NibData" = {
AngleInDegrees = "359.99999";
};
}),
(422,133,o),
(419,202,o),
(417,267,c),
(422,279,l,{
"Letterink-NibData" = {
AngleInDegrees = "359.99999";
};
}),
(465,360,o),
(545,491,o),
(621,619,cs,{
"Letterink-NibData" = {
AngleInDegrees = "360";
};
}),
(637,646,o),
(677,666,o),
(724,670,c,{
"Letterink-NibData" = {
AngleInDegrees = "0";
};
}),
(724,706,l,{
"Letterink-NibData" = {
AngleInDegrees = "0";
};
}),
(704,702,o),
(660,700,o),
(611,700,cs),
(540,700,o),
(483,702,o),
(465,706,c,{
"Letterink-NibData" = {
AngleInDegrees = "0";
};
}),
(465,670,l,{
"Letterink-NibData" = {
AngleInDegrees = "360";
};
}),
(532,664,o),
(569,641,o),
(554,610,cs,{
"Letterink-NibData" = {
AngleInDegrees = "0";
};
}),
(530,562,o),
(466,457,o),
(392,331,c),
(324,452,o),
(267,564,o),
(236,626,cs,{
"Letterink-NibData" = {
AngleInDegrees = "360";
};
}),
(222,653,o),
(244,672,o),
(292,676,c,{
"Letterink-NibData" = {
AngleInDegrees = "360";
};
}),
(292,706,l,{
"Letterink-NibData" = {
AngleInDegrees = "0";
};
}),
(274,702,o),
(221,700,o),
(157,700,cs),
(87,700,o),
(30,702,o),
(10,706,c,{
"Letterink-NibData" = {
AngleInDegrees = "0";
};
}),
(10,676,l,{
"Letterink-NibData" = {
AngleInDegrees = "360";
};
}),
(56,672,o),
(96,653,o),
(114,626,cs,{
"Letterink-NibData" = {
AngleInDegrees = "0";
};
}),
(159,557,o),
(237,418,o),
(330,253,c),
(328,194,o),
(325,131,o),
(322,79,cs,{
"Letterink-NibData" = {
AngleInDegrees = "0";
};
}),
(320,52,o),
(288,28,o),
(239,16,c,{
"Letterink-NibData" = {
AngleInDegrees = "0";
};
}),
(240,9,o),
(240,1,o),
(239,-6,c,{
"Letterink-NibData" = {
AngleInDegrees = "0";
};
})
);
}
);
width = 734;
}
);
unicode = 89;
},
{
glyphname = Z;
lastChange = "2025-08-28 19:37:54 +0000";
layers = (
{
anchors = (
{
name = bottom;
pos = (362,0);
},
{
name = center;
pos = (362,350);
},
{
name = top;
pos = (362,700);
}
);
layerId = m01;
shapes = (
{
closed = 1;
nodes = (
(176,0,o),
(498,1,o),
(609,-8,c),
(663,193,l),
(625,202,l),
(604,146,o),
(551,56,o),
(487,55,cs),
(186,50,l),
(335,260,o),
(481,465,o),
(638,666,c),
(603,709,l),
(529,695,o),
(182,698,o),
(89,707,c),
(89,512,l),
(123,512,l),
(142,615,o),
(169,655,o),
(229,655,cs),
(286,655,o),
(394,655,o),
(495,647,c),
(342,444,o),
(203,241,o),
(50,40,c),
(74,-9,l)
);
}
);
width = 723;
}
);
unicode = 90;
},
{
glyphname = a;
lastChange = "2025-08-28 20:05:13 +0000";
layers = (
{
anchors = (
{
name = bottom;
pos = (248,0);
},
{
name = ogonek;
pos = (416,10);
},
{
name = top;
pos = (248,500);
}
);
layerId = m01;
shapes = (
{
closed = 1;
nodes = (
(489,57,l,{
"Letterink-NibData" = {
AngleInDegrees = 0;
};
}),
(481,81,l,{
"Letterink-NibData" = {
AngleInDegrees = 0;
};
}),
(440,63,o),
(394,92,o),
(394,130,cs),
(394,233,l,{
"Letterink-NibData" = {
AngleInDegrees = 0;
};
}),
(396,368,ls,{
"Letterink-NibData" = {
AngleInDegrees = 360;
};
}),
(397,454,o),
(335,515,o),
(248,515,cs),
(202,515,o),
(151,482,o),
(96,430,c,{
"Letterink-NibData" = {
AngleInDegrees = 0;
};
}),
(87,420,o),
(70,405,o),
(70,387,cs),
(70,369,o),
(76,344,o),
(96,344,cs),
(121,344,o),
(170,372,o),
(170,386,cs),
(170,396,o),
(157,407,o),
(157,425,cs),
(157,441,o),
(184,465,o),
(208,465,cs),
(272,465,o),
(312,409,o),
(312,334,cs),
(312,309,o),
(311,295,o),
(312,273,c),
(165,231,o),
(45,171,o),
(45,129,cs),
(45,55,o),
(95,-7,o),
(166,-7,cs),
(202,-7,o),
(265,23,o),
(316,69,c),
(323,-4,l,{
"Letterink-NibData" = {
AngleInDegrees = 0;
};
}),
(335,-12,l,{
"Letterink-NibData" = {
AngleInDegrees = 0;
};
})
);
},
{
closed = 1;
nodes = (
(142,163,o),
(216,206,o),
(309,232,c),
(309,228,o),
(313,223,o),
(313,219,cs,{
"Letterink-NibData" = {
AngleInDegrees = 0;
};
}),
(313,111,l),
(281,81,o),
(244,58,o),
(224,58,cs),
(163,58,o),
(142,79,o),
(142,141,cs)
);
}
);
width = 495;
}
);
unicode = 97;
},
{
glyphname = ae;
lastChange = "2025-08-28 19:37:54 +0000";
layers = (
{
anchors = (
{
name = bottom;
pos = (372,0);
},
{
name = top;
pos = (372,500);
}
);
layerId = m01;
shapes = (
{
closed = 1;
nodes = (
(387,138,l,{
"Letterink-NibData" = {
AngleInDegrees = "0";
};
}),
(396,368,ls,{
"Letterink-NibData" = {
AngleInDegrees = "360";
};
}),
(399,454,o),
(335,515,o),
(248,515,cs),
(202,515,o),
(151,482,o),
(96,430,c,{
"Letterink-NibData" = {
AngleInDegrees = "0";
};
}),
(87,420,o),
(70,405,o),
(70,387,cs),
(70,369,o),
(76,344,o),
(96,344,cs),
(121,344,o),
(170,372,o),
(170,386,cs),
(170,396,o),
(157,407,o),
(157,425,cs),
(157,441,o),
(184,465,o),
(208,465,cs),
(272,465,o),
(312,409,o),
(312,334,cs),
(312,309,o),
(311,295,o),
(312,273,c),
(165,231,o),
(45,171,o),
(45,129,cs),
(45,55,o),
(95,-7,o),
(166,-7,cs),
(202,-7,o),
(265,23,o),
(316,69,c)
);
},
{
closed = 1;
nodes = (
(142,163,o),
(216,206,o),
(309,232,c),
(309,228,o),
(313,223,o),
(313,219,cs,{
"Letterink-NibData" = {
AngleInDegrees = "0";
};
}),
(313,111,l),
(281,81,o),
(244,58,o),
(224,58,cs),
(163,58,o),
(142,79,o),
(142,141,cs)
);
},
{
closed = 1;
nodes = (
(590,-12,o),
(665,30,o),
(714,96,c,{
"Letterink-NibData" = {
AngleInDegrees = "0";
};
}),
(688,123,l,{
"Letterink-NibData" = {
AngleInDegrees = "360";
};
}),
(658,80,o),
(608,49,o),
(554,49,cs),
(465,49,o),
(406,131,o),
(401,261,cs),
(401,271,o),
(402,286,o),
(402,301,c),
(707,301,l,{
"Letterink-NibData" = {
AngleInDegrees = "0";
};
}),
(708,322,o),
(710,341,o),
(709,351,cs),
(706,448,o),
(645,509,o),
(552,509,cs),
(400,509,o),
(308,397,o),
(314,219,cs),
(319,77,o),
(399,-12,o),
(521,-12,cs)
);
},
{
closed = 1;
nodes = (
(422,420,o),
(472,467,o),
(536,467,cs),
(581,467,o),
(610,435,o),
(612,383,cs),
(612,376,o),
(611,361,o),
(610,344,c),
(407,344,l)
);
}
);
width = 743;
}
);
unicode = 230;
},
{
glyphname = b;
lastChange = "2025-08-28 19:37:54 +0000";
layers = (
{
anchors = (
{
name = bottom;
pos = (293,0);
},
{
name = center;
pos = (146,640);
},
{
name = top;
pos = (293,500);
}
);
layerId = m01;
shapes = (
{
closed = 1;
nodes = (
(442,-6,o),
(546,109,o),
(543,287,cs,{
"Letterink-NibData" = {
AngleInDegrees = 359.99999;
};
}),
(540,428,o),
(457,512,o),
(326,509,cs,{
"Letterink-NibData" = {
AngleInDegrees = 360;
};
}),
(270,507,o),
(213,493,o),
(178,472,c),
(177,515,o),
(180,652,o),
(185,827,c,{
"Letterink-NibData" = {
AngleInDegrees = 0;
};
}),
(132,804,o),
(65,778,o),
(24,764,c,{
"Letterink-NibData" = {
AngleInDegrees = 0;
};
}),
(24,747,l),
(59,726,o),
(86,694,o),
(88,670,cs),
(95,571,o),
(96,328,o),
(92,32,c),
(118,6,o),
(187,-9,o),
(272,-8,c,{
"Letterink-NibData" = {
AngleInDegrees = 0;
};
})
);
},
{
closed = 1;
nodes = (
(178,392,l),
(203,437,o),
(253,466,o),
(307,467,cs,{
"Letterink-NibData" = {
AngleInDegrees = 0;
};
}),
(386,468,o),
(437,385,o),
(440,245,cs,{
"Letterink-NibData" = {
AngleInDegrees = 0;
};
}),
(443,116,o),
(383,34,o),
(285,31,cs,{
"Letterink-NibData" = {
AngleInDegrees = 0;
};
}),
(223,30,o),
(183,51,o),
(180,85,c,{
"Letterink-NibData" = {
AngleInDegrees = 360;
};
})
);
}
);
width = 585;
}
);
unicode = 98;
},
{
glyphname = c;
lastChange = "2025-08-28 20:06:29 +0000";
layers = (
{
anchors = (
{
name = bottom;
pos = (225,0);
},
{
name = top;
pos = (271,500);
}
);
backgroundImage = {
imagePath = "../../../Documents/EcTd/Kickoff/n/Bildschirmfoto 2024-10-23 um 23.09.01.png";
locked = 1;
pos = (832,-135);
scale = (-2.8864,2.8864);
};
layerId = m01;
shapes = (
{
closed = 1;
nodes = (
(320,-12,o),
(395,30,o),
(444,96,c,{
"Letterink-NibData" = {
AngleInDegrees = 0;
};
}),
(417,122,l,{
"Letterink-NibData" = {
AngleInDegrees = 360;
};
}),
(388,80,o),
(339,49,o),
(284,49,cs),
(195,49,o),
(136,135,o),
(131,271,cs),
(127,391,o),
(179,467,o),
(266,467,cs),
(302,467,o),
(325,452,o),
(341,428,cs,{
"Letterink-NibData" = {
AngleInDegrees = 0;
};
}),
(352,408,o),
(360,383,o),
(361,363,c),
(394,353,l,{
"Letterink-NibData" = {
AngleInDegrees = 360;
};
}),
(400,382,o),
(411,429,o),
(422,474,c,{
"Letterink-NibData" = {
AngleInDegrees = 360;
};
}),
(406,479,o),
(381,491,o),
(355,498,cs),
(334,505,o),
(306,509,o),
(283,509,cs),
(130,509,o),
(38,397,o),
(44,219,cs),
(49,77,o),
(129,-12,o),
(251,-12,cs)
);
}
);
width = 450;
},
{
associatedMasterId = m01;
backgroundImage = {
imagePath = "../../../Documents/EcTd/Kickoff/n/Bildschirmfoto 2024-10-23 um 23.09.01.png";
locked = 1;
pos = (831,-135);
scale = (-2.8864,2.8864);
};
layerId = "58E69BF9-75A3-4129-9B42-FC277889AA90";
name = "26. Okt. 24, 17:27";
shapes = (
{
closed = 1;
nodes = (
(482,-23,l,{
"Letterink-NibData" = {
AngleInDegrees = 0;
};
}),
(554,-9,o),
(614,5,o),
(657,10,c),
(657,23,l,{
"Letterink-NibData" = {
AngleInDegrees = 0;
};
}),
(652,24,o),
(629,24,o),
(600,24,cs),
(577,24,o),
(561,39,o),
(561,59,cs),
(561,582,o),
(563,890,o),
(566,803,cs,{
"Letterink-NibData" = {
AngleInDegrees = 359.99999;
};
}),
(564,869,l,{
"Letterink-NibData" = {
AngleInDegrees = 0;
};
}),
(559,880,l,{
"Letterink-NibData" = {
AngleInDegrees = 0;
};
}),
(519,864,o),
(459,848,o),
(415,841,c,{
"Letterink-NibData" = {
AngleInDegrees = 359.99999;
};
}),
(418,826,l,{
"Letterink-NibData" = {
AngleInDegrees = 360;
};
}),
(435,822,o),
(457,803,o),
(472,780,c),
(472,480,l,{
"Letterink-NibData" = {
AngleInDegrees = 0;
};
}),
(446,496,o),
(410,508,o),
(384,508,cs),
(207,508,o),
(81,391,o),
(81,226,cs),
(81,88,o),
(164,-10,o),
(282,-10,cs),
(372,-10,o),
(463,26,o),
(502,77,c,{
"Letterink-NibData" = {
AngleInDegrees = 0;
};
}),
(496,102,l,{
"Letterink-NibData" = {
AngleInDegrees = 0;
};
}),
(452,67,o),
(392,42,o),
(352,42,cs),
(250,42,o),
(177,130,o),
(177,254,cs),
(177,385,o),
(240,478,o),
(328,478,cs),
(411,478,o),
(470,418,o),
(470,333,cs),
(470,66,l,{
"Letterink-NibData" = {
AngleInDegrees = 359.99999;
};
}),
(466,53,l,{
"Letterink-NibData" = {
AngleInDegrees = 360;
};
}),
(475,-14,l,{
"Letterink-NibData" = {
AngleInDegrees = 360;
};
})
);
}
);
width = 700;
},
{
anchors = (
{
name = bottom;
pos = (229,0);
},
{
name = top;
pos = (229,500);
}
);
associatedMasterId = m01;
background = {
shapes = (
{
closed = 1;
nodes = (
(330,-12,o),
(406,30,o),
(458,96,c,{
"Letterink-NibData" = {
AngleInDegrees = "0";
};
}),
(437,119,l,{
"Letterink-NibData" = {
AngleInDegrees = "360";
};
}),
(405,76,o),
(350,49,o),
(296,49,cs),
(207,49,o),
(151,131,o),
(151,261,cs),
(151,271,o),
(152,286,o),
(153,301,c),
(458,301,l,{
"Letterink-NibData" = {
AngleInDegrees = "0";
};
}),
(460,322,o),
(462,341,o),
(462,351,cs),
(462,448,o),
(403,509,o),
(310,509,cs),
(158,509,o),
(62,397,o),
(62,219,cs),
(62,77,o),
(139,-12,o),
(261,-12,cs)
);
},
{
closed = 1;
nodes = (
(177,420,o),
(229,467,o),
(293,467,cs),
(338,467,o),
(366,435,o),
(366,383,cs),
(366,376,o),
(364,361,o),
(362,344,c),
(159,344,l)
);
}
);
};
backgroundImage = {
imagePath = "../../../Documents/EcTd/Kickoff/n/Bildschirmfoto 2024-10-23 um 23.09.01.png";
locked = 1;
pos = (824,-135);
scale = (-2.8864,2.8864);
};
layerId = "72FD4673-29D5-4220-9DEE-221A526CB8AD";
name = "27. Aug. 25, 14:13";
shapes = (
{
closed = 1;
nodes = (
(308,-12,o),
(384,30,o),
(436,96,c,{
"Letterink-NibData" = {
AngleInDegrees = 0;
};
}),
(410,122,l,{
"Letterink-NibData" = {
AngleInDegrees = 360;
};
}),
(379,80,o),
(329,49,o),
(274,49,cs),
(185,49,o),
(129,135,o),
(129,271,cs),
(129,391,o),
(184,467,o),
(271,467,cs),
(307,467,o),
(339,452,o),
(354,428,cs,{
"Letterink-NibData" = {
AngleInDegrees = 0;
};
}),
(365,408,o),
(372,383,o),
(372,363,c),
(395,353,l,{
"Letterink-NibData" = {
AngleInDegrees = 360;
};
}),
(402,382,o),
(414,429,o),
(427,474,c,{
"Letterink-NibData" = {
AngleInDegrees = 360;
};
}),
(411,479,o),
(387,491,o),
(361,498,cs),
(340,505,o),
(312,509,o),
(289,509,cs),
(136,509,o),
(40,397,o),
(40,219,cs),
(40,77,o),
(117,-12,o),
(239,-12,cs)
);
}
);
width = 446;
}
);
unicode = 99;
},
{
glyphname = d;
lastChange = "2025-08-28 19:37:54 +0000";
layers = (
{
anchors = (
{
name = bottom;
pos = (293,0);
},
{
name = center;
pos = (439,640);
},
{
name = top;
pos = (293,500);
},
{
name = topright;
pos = (565,800);
}
);
layerId = m01;
shapes = (
{
closed = 1;
nodes = (
(437,-18,l),
(479,2,o),
(515,-1,o),
(583,28,c,{
"Letterink-NibData" = {
AngleInDegrees = 360;
};
}),
(575,54,l,{
"Letterink-NibData" = {
AngleInDegrees = "360";
};
}),
(534,35,o),
(502,90,o),
(500,129,cs,{
"Letterink-NibData" = {
AngleInDegrees = "359.99999";
};
}),
(492,285,o),
(491,518,o),
(500,741,cs,{
"Letterink-NibData" = {
AngleInDegrees = "0";
};
}),
(501,761,o),
(503,782,o),
(505,802,c),
(500,817,l),
(430,796,o),
(352,774,o),
(296,762,c,{
"Letterink-NibData" = {
AngleInDegrees = 360;
};
}),
(296,730,l,{
"Letterink-NibData" = {
AngleInDegrees = 0;
};
}),
(364,730,o),
(407,710,o),
(408,678,c,{
"Letterink-NibData" = {
AngleInDegrees = "359.99999";
};
}),
(407,684,o),
(407,610,o),
(407,495,c),
(391,503,o),
(357,509,o),
(325,509,cs),
(155,509,o),
(48,397,o),
(48,219,cs),
(48,77,o),
(134,-12,o),
(271,-12,cs),
(329,-12,o),
(382,9,o),
(412,53,c),
(421,-10,l)
);
},
{
closed = 1;
nodes = (
(147,388,o),
(208,467,o),
(306,467,cs),
(334,467,o),
(375,452,o),
(407,426,c),
(407,341,o),
(407,234,o),
(407,108,c),
(382,54,o),
(335,27,o),
(284,27,cs),
(200,27,o),
(147,117,o),
(147,261,cs)
);
}
);
width = 585;
},
{
associatedMasterId = m01;
background = {
shapes = (
{
closed = 1;
nodes = (
(289,-10,o),
(345,17,o),
(393,56,c),
(392,33,o),
(391,10,o),
(390,-13,c),
(399,-13,l),
(451,1,o),
(502,15,o),
(553,29,c),
(553,51,l),
(500,55,l),
(480,58,o),
(478,61,o),
(478,80,c),
(478,641,l),
(479,674,o),
(480,708,o),
(481,740,c),
(471,740,l),
(437,724,o),
(396,709,o),
(329,689,c),
(329,678,l),
(369,661,ls),
(385,654,o),
(393,645,o),
(393,615,cs),
(393,423,l),
(356,440,o),
(329,445,o),
(295,445,cs),
(161,445,o),
(58,331,o),
(58,189,cs),
(58,77,o),
(144,-10,o),
(251,-10,cs)
);
},
{
closed = 1;
nodes = (
(214,52,o),
(142,129,o),
(142,225,cs),
(142,341,o),
(201,410,o),
(291,410,cs),
(345,410,o),
(393,349,o),
(393,324,cs),
(393,75,l),
(370,60,o),
(341,52,o),
(307,52,cs)
);
}
);
};
backgroundImage = {
angle = 359.85001;
crop = (755.556,441.667,1630.555,2777.778);
imagePath = "../../../Documents/EcTd/Kickoff/n/IMG_4970.jpg";
locked = 1;
pos = (-272,-359);
scale = (0.36,0.36);
};
layerId = "8C8A5667-8FAC-4CBC-A5DE-6BBC010473F9";
name = "24. Okt. 24, 11:05";
shapes = (
{
closed = 1;
nodes = (
(287,-6,o),
(363,33,o),
(417,87,c,{
"Letterink-NibData" = {
AngleInDegrees = 0;
};
}),
(416,114,l,{
"Letterink-NibData" = {
AngleInDegrees = 0;
};
}),
(385,84,o),
(331,48,o),
(287,48,cs),
(209,48,o),
(152,120,o),
(152,237,cs),
(152,344,o),
(213,428,o),
(292,428,cs),
(348,428,o),
(396,382,o),
(429,351,c,{
"Letterink-NibData" = {
AngleInDegrees = 0;
};
}),
(445,400,l,{
"Letterink-NibData" = {
AngleInDegrees = 360;
};
}),
(419,428,o),
(358,448,o),
(298,448,cs),
(167,448,o),
(73,344,o),
(73,197,cs),
(73,78,o),
(141,-6,o),
(235,-6,cs)
);
},
{
closed = 1;
nodes = (
(549,0,l),
(549,28,l),
(518,28,o),
(473,42,o),
(473,78,c),
(473,83,o),
(473,632,o),
(473,637,cs),
(473,672,o),
(476,683,o),
(483,719,c,{
"Letterink-NibData" = {
AngleInDegrees = 0;
};
}),
(444,702,o),
(383,683,o),
(344,676,c),
(344,665,l,{
"Letterink-NibData" = {
AngleInDegrees = 360;
};
}),
(395,635,l),
(395,552,o),
(395,108,o),
(395,80,c,{
"Letterink-NibData" = {
AngleInDegrees = 360;
};
}),
(392,0,l)
);
}
);
width = 587;
},
{
associatedMasterId = m01;
layerId = "24220E5F-2B85-409A-8F26-125ED6C2BEA0";
name = "18. Aug. 25, 13:29";
shapes = (
{
closed = 1;
nodes = (
(295,-8,o),
(383,45,o),
(440,118,c,{
"Letterink-NibData" = {
AngleInDegrees = 0;
};
}),
(438,152,l,{
"Letterink-NibData" = {
AngleInDegrees = 360;
};
}),
(401,106,o),
(339,68,o),
(288,68,cs),
(190,68,o),
(120,153,o),
(120,289,cs),
(120,399,o),
(183,468,o),
(271,468,cs),
(338,468,o),
(407,420,o),
(437,339,c,{
"Letterink-NibData" = {
AngleInDegrees = 360;
};
}),
(450,456,l,{
"Letterink-NibData" = {
AngleInDegrees = 360;
};
}),
(417,488,o),
(351,510,o),
(291,510,cs),
(143,510,o),
(40,401,o),
(40,246,cs),
(40,98,o),
(119,-8,o),
(229,-8,cs)
);
},
{
closed = 1;
nodes = (
(481,19,o),
(558,50,o),
(595,62,c,{
"Letterink-NibData" = {
AngleInDegrees = 360;
};
}),
(587,91,l),
(575,86,o),
(561,83,o),
(546,83,cs),
(511,83,o),
(487,114,o),
(487,159,cs),
(487,523,o),
(488,790,o),
(490,811,c,{
"Letterink-NibData" = {
AngleInDegrees = 0;
};
}),
(481,822,l,{
"Letterink-NibData" = {
AngleInDegrees = 0;
};
}),
(434,797,o),
(345,772,o),
(293,762,c,{
"Letterink-NibData" = {
AngleInDegrees = 360;
};
}),
(293,730,l,{
"Letterink-NibData" = {
AngleInDegrees = 0;
};
}),
(392,709,l,{
"Letterink-NibData" = {
AngleInDegrees = 0;
};
}),
(395,557,o),
(396,405,o),
(400,253,c,{
"Letterink-NibData" = {
AngleInDegrees = 0;
};
}),
(409,-2,l,{
"Letterink-NibData" = {
AngleInDegrees = 0;
};
}),
(420,-10,l,{
"Letterink-NibData" = {
AngleInDegrees = 0;
};
})
);
}
);
width = 609;
}
);
unicode = 100;
},
{
glyphname = e;
lastChange = "2025-08-28 20:07:33 +0000";
layers = (
{
anchors = (
{
name = bottom;
pos = (237,0);
},
{
name = ogonek;
pos = (391,10);
},
{
name = top;
pos = (270,500);
}
);
layerId = m01;
shapes = (
{
closed = 1;
nodes = (
(320,-12,o),
(395,30,o),
(444,96,c,{
"Letterink-NibData" = {
AngleInDegrees = 0;
};
}),
(418,123,l,{
"Letterink-NibData" = {
AngleInDegrees = 360;
};
}),
(388,80,o),
(338,49,o),
(284,49,cs),
(195,49,o),
(136,131,o),
(131,261,cs),
(131,271,o),
(132,286,o),
(132,301,c),
(437,301,l,{
"Letterink-NibData" = {
AngleInDegrees = 0;
};
}),
(438,322,o),
(440,341,o),
(439,351,cs),
(436,448,o),
(375,509,o),
(282,509,cs),
(130,509,o),
(38,397,o),
(44,219,cs),
(49,77,o),
(129,-12,o),
(251,-12,cs)
);
},
{
closed = 1;
nodes = (
(152,420,o),
(202,467,o),
(266,467,cs),
(311,467,o),
(340,435,o),
(342,383,cs),
(342,376,o),
(341,361,o),
(340,344,c),
(137,344,l)
);
}
);
width = 473;
},
{
associatedMasterId = m01;
background = {
shapes = (
{
closed = 0;
nodes = (
(258,-8,ls),
(332,-8,o),
(417,35,o),
(465,96,c),
(447,112,l),
(429,89,o),
(375,73,o),
(317,73,cs)
);
},
{
closed = 1;
nodes = (
(303,0,l),
(303,28,l),
(256,28,o),
(222,44,o),
(222,80,cs),
(222,155,o),
(222,196,o),
(221,227,cs),
(219,293,o),
(223,412,o),
(223,425,cs),
(223,472,o),
(223,494,o),
(225,527,c),
(174,503,o),
(114,477,o),
(79,464,c),
(79,457,l),
(108,440,o),
(128,408,o),
(128,380,cs),
(128,343,o),
(131,253,o),
(131,211,cs),
(131,160,o),
(130,117,o),
(130,63,cs),
(130,43,o),
(104,28,o),
(67,28,c),
(67,0,l)
);
},
{
closed = 1;
nodes = (
(647,0,l),
(647,28,l),
(602,28,o),
(571,46,o),
(571,72,cs),
(571,90,o),
(569,155,o),
(569,227,cs),
(569,292,o),
(569,355,o),
(569,373,cs),
(569,459,o),
(505,520,o),
(418,520,cs),
(338,520,o),
(247,452,o),
(178,357,c),
(177,318,l),
(247,409,o),
(322,472,o),
(368,472,cs),
(432,472,o),
(478,414,o),
(478,339,cs),
(478,290,o),
(480,241,o),
(480,211,cs),
(480,110,o),
(478,118,o),
(478,77,cs),
(478,42,o),
(444,28,o),
(395,28,c),
(395,0,l)
);
}
);
};
layerId = "719313AF-75D1-4F3D-9DEE-EEB161BA8632";
name = "30. Juli 25, 13:09";
shapes = (
{
closed = 1;
nodes = (
(335,-8,o),
(417,35,o),
(465,96,c,{
"Letterink-NibData" = {
AngleInDegrees = 0;
};
}),
(445,114,l,{
"Letterink-NibData" = {
AngleInDegrees = 360;
};
}),
(425,88,o),
(370,68,o),
(308,68,cs),
(209,68,o),
(149,162,o),
(149,294,cs),
(149,399,o),
(189,468,o),
(272,468,cs),
(324,468,o),
(360,415,o),
(362,334,c),
(381,334,o),
(459,316,o),
(459,299,c),
(459,430,o),
(399,510,o),
(300,510,c),
(159,510,o),
(69,401,o),
(69,246,cs),
(69,97,o),
(146,-8,o),
(268,-8,cs)
);
},
{
closed = 1;
nodes = (
(459,301,l,{
"Letterink-NibData" = {
AngleInDegrees = 0;
};
}),
(449,344,l),
(89,344,l,{
"Letterink-NibData" = {
AngleInDegrees = 0;
};
}),
(76,301,l)
);
},
{
closed = 1;
nodes = (
(255,510,o),
(186,461,o),
(130,391,c),
(130,342,l,{
"Letterink-NibData" = {
AngleInDegrees = 0;
};
}),
(178,402,o),
(232,447,o),
(260,447,cs),
(301,447,o),
(350,431,o),
(350,369,cs),
(350,346,o),
(257,301,o),
(118,265,c,{
"Letterink-NibData" = {
AngleInDegrees = 359.99999;
};
}),
(119,224,l,{
"Letterink-NibData" = {
AngleInDegrees = 360;
};
}),
(311,277,o),
(441,339,o),
(441,383,cs),
(441,457,o),
(371,510,o),
(300,510,cs)
);
}
);
width = 525;
},
{
anchors = (
{
name = bottom;
pos = (241,0);
},
{
name = ogonek;
pos = (430,10);
},
{
name = top;
pos = (241,500);
}
);
associatedMasterId = m01;
background = {
shapes = (
{
closed = 1;
nodes = (
(410,-12,o),
(504,102,o),
(504,283,cs),
(504,422,o),
(429,509,o),
(310,509,cs),
(158,509,o),
(62,397,o),
(62,219,cs),
(62,77,o),
(139,-12,o),
(261,-12,cs)
);
},
{
closed = 1;
nodes = (
(195,27,o),
(151,118,o),
(151,261,cs),
(151,386,o),
(202,467,o),
(293,467,cs),
(369,467,o),
(412,379,o),
(412,241,cs),
(412,111,o),
(361,27,o),
(273,27,cs)
);
}
);
};
layerId = "95C61827-E51A-48CD-94E4-21D1A5E8111C";
name = "27. Aug. 25, 14:13";
shapes = (
{
closed = 1;
nodes = (
(308,-12,o),
(384,30,o),
(436,96,c,{
"Letterink-NibData" = {
AngleInDegrees = 0;
};
}),
(411,123,l,{
"Letterink-NibData" = {
AngleInDegrees = 360;
};
}),
(379,80,o),
(328,49,o),
(274,49,cs),
(185,49,o),
(129,131,o),
(129,261,cs),
(129,271,o),
(130,286,o),
(131,301,c),
(436,301,l,{
"Letterink-NibData" = {
AngleInDegrees = 0;
};
}),
(438,322,o),
(440,341,o),
(440,351,cs),
(440,448,o),
(381,509,o),
(288,509,cs),
(136,509,o),
(40,397,o),
(40,219,cs),
(40,77,o),
(117,-12,o),
(239,-12,cs)
);
},
{
closed = 1;
nodes = (
(155,420,o),
(207,467,o),
(271,467,cs),
(316,467,o),
(344,435,o),
(344,383,cs),
(344,376,o),
(342,361,o),
(340,344,c),
(137,344,l)
);
}
);
width = 470;
}
);
unicode = 101;
},
{
glyphname = f;
lastChange = "2025-08-28 19:37:54 +0000";
layers = (
{
anchors = (
{
name = bottom;
pos = (169,0);
},
{
name = top;
pos = (169,800);
}
);
background = {
shapes = (
{
closed = 1;
nodes = (
(224,635,o),
(285,720,o),
(322,722,cs),
(359,724,o),
(379,693,o),
(392,681,c),
(407,681,l),
(474,757,l),
(452,785,o),
(406,817,o),
(375,817,cs),
(344,817,o),
(221,670,o),
(185,636,c),
(187,600,l)
);
},
{
closed = 1;
nodes = (
(420,792,l),
(383,809,o),
(369,817,o),
(344,817,cs),
(254,817,o),
(231,719,o),
(194,613,c,{
"Letterink-NibData" = {
AngleInDegrees = "359.99999";
};
}),
(201,572,l,{
"Letterink-NibData" = {
AngleInDegrees = "0";
};
}),
(235,658,o),
(260,707,o),
(309,707,cs),
(330,707,o),
(356,698,o),
(388,679,c)
);
}
);
};
layerId = m01;
shapes = (
{
closed = 1;
nodes = (
(284,0,l),
(284,28,l),
(238,28,o),
(204,50,o),
(203,80,cs),
(201,248,o),
(201,400,o),
(202,448,c),
(337,444,l),
(337,510,l),
(203,506,l),
(203,509,o),
(203,514,o),
(203,518,cs,{
"Letterink-NibData" = {
AngleInDegrees = 0;
};
}),
(203,651,o),
(202,745,o),
(271,745,cs),
(347,745,o),
(405,735,o),
(420,720,c),
(485,804,l,{
"Letterink-NibData" = {
AngleInDegrees = 0;
};
}),
(469,812,o),
(419,817,o),
(356,817,cs),
(179,817,o),
(107,690,o),
(112,511,cs,{
"Letterink-NibData" = {
AngleInDegrees = 0;
};
}),
(112,509,o),
(112,505,o),
(112,503,c),
(35,500,l),
(35,484,o),
(41,465,o),
(50,453,c,{
"Letterink-NibData" = {
AngleInDegrees = "0";
};
}),
(113,451,l),
(115,378,o),
(114,217,o),
(111,63,cs),
(110,43,o),
(84,28,o),
(48,28,c),
(48,0,l)
);
}
);
width = 338;
}
);
unicode = 102;
},
{
glyphname = g;
lastChange = "2025-08-28 19:37:54 +0000";
layers = (
{
anchors = (
{
name = bottom;
pos = (270,-300);
},
{
name = top;
pos = (270,500);
}
);
layerId = m01;
shapes = (
{
closed = 1;
nodes = (
(383,-307,o),
(496,-197,o),
(500,-74,cs),
(502,7,o),
(445,59,o),
(349,59,cs),
(334,59,o),
(315,57,o),
(243,57,cs),
(130,57,o),
(86,98,o),
(164,149,c),
(185,143,o),
(209,140,o),
(227,140,cs),
(363,140,o),
(449,224,o),
(449,359,cs),
(449,395,o),
(439,431,o),
(424,451,c),
(521,449,l),
(521,504,l),
(367,496,l),
(342,508,o),
(305,515,o),
(273,515,cs),
(134,515,o),
(46,436,o),
(46,310,cs),
(46,240,o),
(75,183,o),
(122,161,c),
(75,116,o),
(54,75,o),
(53,31,cs),
(52,8,o),
(64,-6,o),
(86,-16,c),
(34,-57,o),
(5,-102,o),
(3,-143,cs),
(0,-229,o),
(85,-307,o),
(213,-307,cs)
);
},
{
closed = 1;
nodes = (
(180,178,o),
(143,241,o),
(143,341,cs),
(143,423,o),
(187,475,o),
(256,475,cs),
(314,475,o),
(350,418,o),
(350,328,cs),
(350,236,o),
(308,178,o),
(240,178,cs)
);
},
{
closed = 1;
nodes = (
(85,-80,o),
(95,-54,o),
(123,-27,c),
(145,-31,o),
(174,-33,o),
(205,-33,cs),
(323,-32,ls),
(399,-31,o),
(430,-67,o),
(428,-126,cs),
(426,-185,o),
(358,-256,o),
(227,-256,cs),
(132,-256,o),
(81,-189,o),
(84,-107,cs)
);
}
);
width = 540;
}
);
unicode = 103;
},
{
glyphname = h;
lastChange = "2025-08-28 19:37:54 +0000";
layers = (
{
anchors = (
{
name = bottom;
pos = (304,0);
},
{
name = center;
pos = (152,640);
},
{
name = top;
pos = (304,800);
}
);
background = {
shapes = (
{
closed = 1;
nodes = (
(585,0,l),
(585,28,l),
(545,28,o),
(519,45,o),
(519,72,cs,{
"Letterink-NibData" = {
AngleInDegrees = "359.99999";
};
}),
(519,173,o),
(518,284,o),
(517,361,cs),
(516,452,o),
(459,509,o),
(366,509,cs),
(313,509,o),
(251,485,o),
(205,446,c),
(205,442,o),
(206,471,o),
(207,523,c,{
"Letterink-NibData" = {
AngleInDegrees = "360";
};
}),
(152,500,o),
(90,476,o),
(45,460,c),
(45,443,l,{
"Letterink-NibData" = {
AngleInDegrees = "360";
};
}),
(83,422,o),
(108,392,o),
(110,366,cs,{
"Letterink-NibData" = {
AngleInDegrees = "359.99999";
};
}),
(117,272,o),
(118,155,o),
(112,63,cs,{
"Letterink-NibData" = {
AngleInDegrees = "0";
};
}),
(111,42,o),
(85,28,o),
(45,28,c),
(45,0,l),
(270,0,l),
(270,28,l),
(231,28,o),
(205,48,o),
(204,80,cs,{
"Letterink-NibData" = {
AngleInDegrees = "359.99999";
};
}),
(203,165,o),
(203,288,o),
(205,399,c),
(241,432,o),
(284,453,o),
(315,453,cs),
(378,453,o),
(421,404,o),
(426,327,cs,{
"Letterink-NibData" = {
AngleInDegrees = "0";
};
}),
(431,243,o),
(431,147,o),
(426,77,cs,{
"Letterink-NibData" = {
AngleInDegrees = "360";
};
}),
(423,47,o),
(397,28,o),
(360,28,c),
(360,0,l)
);
}
);
};
layerId = m01;
shapes = (
{
closed = 1;
nodes = (
(585,0,l),
(585,28,l),
(545,28,o),
(519,46,o),
(519,72,cs),
(519,90,o),
(517,146,o),
(517,217,cs),
(517,361,ls),
(517,448,o),
(452,509,o),
(364,509,cs),
(314,509,o),
(247,482,o),
(204,445,c),
(205,649,o),
(206,765,o),
(206,725,cs),
(206,788,o),
(206,827,o),
(206,827,c,{
"Letterink-NibData" = {
AngleInDegrees = "360";
};
}),
(178,815,o),
(112,789,o),
(45,764,c),
(45,747,l,{
"Letterink-NibData" = {
AngleInDegrees = "360";
};
}),
(81,726,o),
(107,695,o),
(109,670,cs,{
"Letterink-NibData" = {
AngleInDegrees = "359.99999";
};
}),
(120,515,o),
(120,263,o),
(111,63,cs,{
"Letterink-NibData" = {
AngleInDegrees = "0";
};
}),
(110,43,o),
(84,28,o),
(45,28,c),
(45,0,l),
(270,0,l),
(270,28,l),
(231,28,o),
(206,50,o),
(205,80,cs,{
"Letterink-NibData" = {
AngleInDegrees = "359.99999";
};
}),
(204,128,o),
(203,260,o),
(203,399,c),
(240,431,o),
(286,453,o),
(314,453,cs),
(374,453,o),
(421,401,o),
(426,327,cs),
(431,248,o),
(431,144,o),
(426,77,cs),
(423,48,o),
(396,28,o),
(361,28,c),
(361,0,l)
);
}
);
width = 608;
}
);
unicode = 104;
},
{
glyphname = idotless;
lastChange = "2025-08-28 20:08:57 +0000";
layers = (
{
anchors = (
{
name = bottom;
pos = (147,0);
},
{
name = ogonek;
pos = (257,-14);
},
{
name = top;
pos = (147,500);
}
);
layerId = m01;
shapes = (
{
closed = 1;
nodes = (
(271,0,l),
(271,28,l),
(224,28,o),
(202,44,o),
(201,80,cs,{
"Letterink-NibData" = {
AngleInDegrees = "359.99999";
};
}),
(198,155,o),
(202,408,o),
(202,421,cs),
(202,468,o),
(202,490,o),
(204,523,c,{
"Letterink-NibData" = {
AngleInDegrees = "360";
};
}),
(153,499,o),
(78,473,o),
(43,460,c),
(43,443,l,{
"Letterink-NibData" = {
AngleInDegrees = "360";
};
}),
(72,426,o),
(105,394,o),
(107,366,cs,{
"Letterink-NibData" = {
AngleInDegrees = "359.99999";
};
}),
(110,329,o),
(112,117,o),
(109,63,cs,{
"Letterink-NibData" = {
AngleInDegrees = "0";
};
}),
(108,43,o),
(78,28,o),
(41,28,c),
(41,0,l)
);
}
);
width = 293;
}
);
unicode = 305;
},
{
glyphname = jdotless;
lastChange = "2025-08-28 19:37:54 +0000";
layers = (
{
anchors = (
{
name = bottom;
pos = (147,-300);
},
{
name = top;
pos = (147,500);
}
);
layerId = m01;
shapes = (
{
closed = 1;
nodes = (
(128,-228,o),
(201,-88,o),
(201,0,cs,{
"Letterink-NibData" = {
AngleInDegrees = "360";
};
}),
(201,68,o),
(201,209,o),
(200,227,cs,{
"Letterink-NibData" = {
AngleInDegrees = "359.99999";
};
}),
(198,293,o),
(202,412,o),
(202,425,cs),
(202,472,o),
(202,494,o),
(204,527,c,{
"Letterink-NibData" = {
AngleInDegrees = "360";
};
}),
(153,503,o),
(93,477,o),
(58,464,c),
(58,457,l,{
"Letterink-NibData" = {
AngleInDegrees = "360";
};
}),
(87,440,o),
(107,408,o),
(107,380,cs),
(110,211,l),
(109,-37,ls,{
"Letterink-NibData" = {
AngleInDegrees = "360";
};
}),
(109,-133,o),
(62,-234,o),
(-4,-279,c,{
"Letterink-NibData" = {
AngleInDegrees = "360";
};
}),
(16,-310,l,{
"Letterink-NibData" = {
AngleInDegrees = "0";
};
})
);
}
);
width = 293;
}
);
unicode = 567;
},
{
glyphname = k;
lastChange = "2025-08-28 19:37:54 +0000";
layers = (
{
anchors = (
{
name = bottom;
pos = (293,0);
},
{
name = top;
pos = (293,800);
}
);
layerId = m01;
shapes = (
{
closed = 1;
nodes = (
(273,0,l),
(273,28,l),
(226,28,o),
(203,44,o),
(202,80,cs,{
"Letterink-NibData" = {
AngleInDegrees = "359.99999";
};
}),
(201,100,o),
(201,152,o),
(201,217,c),
(235,244,l),
(282,186,o),
(387,86,o),
(440,0,c),
(585,0,l),
(585,35,l),
(560,35,o),
(529,44,o),
(506,72,cs),
(310,305,l),
(436,413,ls,{
"Letterink-NibData" = {
AngleInDegrees = "0";
};
}),
(477,449,o),
(530,454,o),
(562,454,c),
(562,500,l),
(496,497,o),
(409,497,o),
(323,500,c),
(323,472,l),
(392,472,o),
(395,440,o),
(349,401,cs),
(201,276,l),
(201,463,o),
(203,716,o),
(203,725,cs),
(203,772,o),
(204,794,o),
(206,827,c,{
"Letterink-NibData" = {
AngleInDegrees = "360";
};
}),
(155,803,o),
(80,777,o),
(45,764,c),
(45,747,l,{
"Letterink-NibData" = {
AngleInDegrees = "360";
};
}),
(74,730,o),
(107,698,o),
(109,670,cs,{
"Letterink-NibData" = {
AngleInDegrees = "359.99999";
};
}),
(112,633,o),
(114,117,o),
(111,63,cs,{
"Letterink-NibData" = {
AngleInDegrees = "0";
};
}),
(110,43,o),
(80,28,o),
(43,28,c),
(43,0,l)
);
}
);
width = 585;
}
);
unicode = 107;
},
{
glyphname = l;
lastChange = "2025-08-28 19:37:54 +0000";
layers = (
{
anchors = (
{
name = bottom;
pos = (147,0);
},
{
name = center;
pos = (147,250);
},
{
name = top;
pos = (147,800);
},
{
name = topright;
pos = (273,800);
}
);
layerId = m01;
shapes = (
{
closed = 1;
nodes = (
(117,0,o),
(193,0,o),
(270,-4,c),
(270,28,l),
(223,28,o),
(199,44,o),
(198,80,cs,{
"Letterink-NibData" = {
AngleInDegrees = "359.99999";
};
}),
(195,155,o),
(199,712,o),
(199,725,cs),
(199,772,o),
(201,794,o),
(203,827,c,{
"Letterink-NibData" = {
AngleInDegrees = "360";
};
}),
(152,803,o),
(77,777,o),
(42,764,c),
(42,747,l,{
"Letterink-NibData" = {
AngleInDegrees = "360";
};
}),
(71,730,o),
(104,698,o),
(106,670,cs,{
"Letterink-NibData" = {
AngleInDegrees = "359.99999";
};
}),
(109,633,o),
(111,117,o),
(108,63,cs,{
"Letterink-NibData" = {
AngleInDegrees = "0";
};
}),
(107,43,o),
(77,28,o),
(23,28,c),
(23,-4,l)
);
}
);
width = 293;
}
);
unicode = 108;
},
{
glyphname = m;
lastChange = "2025-08-28 19:37:54 +0000";
layers = (
{
anchors = (
{
name = bottom;
pos = (462,0);
},
{
name = top;
pos = (462,500);
}
);
layerId = m01;
shapes = (
{
closed = 1;
nodes = (
(270,0,l),
(270,28,l),
(234,28,o),
(205,50,o),
(204,80,cs,{
"Letterink-NibData" = {
AngleInDegrees = "359.99999";
};
}),
(203,125,o),
(203,257,o),
(205,399,c),
(242,431,o),
(288,453,o),
(316,453,cs),
(379,453,o),
(421,404,o),
(426,327,cs),
(431,209,o),
(429,128,o),
(426,77,cs),
(424,48,o),
(397,28,o),
(360,28,c),
(360,0,l),
(585,0,l),
(585,28,l),
(570,28,ls),
(539,28,o),
(517,50,o),
(517,80,cs),
(518,399,l),
(552,431,o),
(598,453,o),
(629,453,cs),
(689,453,o),
(734,401,o),
(739,327,cs),
(745,236,o),
(745,133,o),
(739,77,cs),
(736,48,o),
(708,28,o),
(670,28,c),
(675,28,l),
(675,0,l),
(900,0,l),
(900,28,l),
(890,28,ls),
(857,28,o),
(831,46,o),
(832,72,cs),
(833,107,o),
(832,227,o),
(830,361,cs),
(829,448,o),
(767,509,o),
(679,509,cs),
(632,509,o),
(558,478,o),
(501,435,c),
(481,478,o),
(426,509,o),
(369,509,cs),
(318,509,o),
(250,483,o),
(205,446,c),
(207,523,l,{
"Letterink-NibData" = {
AngleInDegrees = "360";
};
}),
(179,511,o),
(113,485,o),
(46,460,c),
(46,443,l,{
"Letterink-NibData" = {
AngleInDegrees = "360";
};
}),
(82,422,o),
(108,391,o),
(110,366,cs,{
"Letterink-NibData" = {
AngleInDegrees = "359.99999";
};
}),
(117,283,o),
(118,158,o),
(112,63,cs,{
"Letterink-NibData" = {
AngleInDegrees = "0";
};
}),
(111,43,o),
(83,28,o),
(45,28,c),
(45,0,l)
);
}
);
width = 924;
},
{
associatedMasterId = m01;
layerId = "E32BE4BD-C72D-4B23-A562-D7D77D2083CF";
name = "22. Okt. 24, 20:01";
shapes = (
{
closed = 1;
nodes = (
(304,0,l),
(304,18,l),
(257,18,o),
(223,44,o),
(223,80,cs),
(223,148,o),
(223,209,o),
(222,227,cs,{
"Letterink-NibData" = {
AngleInDegrees = 0;
};
}),
(223,188,o),
(224,270,o),
(224,425,cs),
(224,465,o),
(225,508,o),
(226,527,c,{
"Letterink-NibData" = {
AngleInDegrees = 360;
};
}),
(174,503,o),
(114,477,o),
(80,464,c),
(80,457,l,{
"Letterink-NibData" = {
AngleInDegrees = 360;
};
}),
(109,440,o),
(129,408,o),
(129,380,cs),
(129,343,o),
(132,253,o),
(132,211,cs),
(132,160,o),
(131,107,o),
(131,53,cs),
(131,33,o),
(105,18,o),
(68,18,c),
(68,0,l)
);
},
{
closed = 1;
nodes = (
(648,3,l),
(648,18,l),
(603,18,o),
(572,36,o),
(572,62,cs),
(572,80,o),
(570,155,o),
(570,227,cs),
(570,292,o),
(570,355,o),
(570,373,cs),
(570,459,o),
(507,520,o),
(419,520,cs),
(348,520,o),
(248,452,o),
(179,357,c,{
"Letterink-NibData" = {
AngleInDegrees = 359.99999;
};
}),
(178,318,l,{
"Letterink-NibData" = {
AngleInDegrees = 0;
};
}),
(247,408,o),
(327,472,o),
(369,472,cs),
(433,472,o),
(479,417,o),
(479,339,cs),
(479,290,o),
(481,241,o),
(481,211,cs),
(481,110,o),
(479,118,o),
(479,77,cs),
(479,42,o),
(445,18,o),
(396,18,c),
(396,0,l,{
"Letterink-NibData" = {
AngleInDegrees = 0;
};
})
);
},
{
closed = 1;
nodes = (
(996,3,l),
(996,18,l),
(951,18,o),
(920,36,o),
(920,62,cs),
(920,80,o),
(918,155,o),
(918,227,cs),
(918,292,o),
(918,355,o),
(918,373,cs),
(918,459,o),
(855,520,o),
(767,520,cs),
(703,520,o),
(604,461,o),
(527,377,c,{
"Letterink-NibData" = {
AngleInDegrees = 359.99999;
};
}),
(526,338,l,{
"Letterink-NibData" = {
AngleInDegrees = 0;
};
}),
(603,416,o),
(683,472,o),
(717,472,cs),
(781,472,o),
(827,417,o),
(827,339,cs),
(827,290,o),
(829,241,o),
(829,211,cs),
(829,110,o),
(827,118,o),
(827,77,cs),
(827,42,o),
(793,18,o),
(744,18,c),
(744,0,l,{
"Letterink-NibData" = {
AngleInDegrees = 0;
};
})
);
}
);
width = 1050;
},
{
anchors = (
{
name = bottom;
pos = (462,0);
},
{
name = top;
pos = (462,500);
}
);
associatedMasterId = m01;
background = {
shapes = (
{
closed = 1;
nodes = (
(605,0,l),
(605,28,l),
(563,28,o),
(536,45,o),
(535,72,cs,{
"Letterink-NibData" = {
AngleInDegrees = "359.99999";
};
}),
(534,106,o),
(533,217,o),
(533,361,cs),
(533,452,o),
(475,509,o),
(382,509,cs),
(331,509,o),
(269,485,o),
(221,446,c),
(221,477,o),
(222,506,o),
(223,523,c,{
"Letterink-NibData" = {
AngleInDegrees = "360";
};
}),
(203,514,o),
(141,489,o),
(62,460,c),
(62,443,l,{
"Letterink-NibData" = {
AngleInDegrees = "360";
};
}),
(100,421,o),
(124,391,o),
(126,366,cs,{
"Letterink-NibData" = {
AngleInDegrees = "359.99999";
};
}),
(133,281,o),
(134,164,o),
(128,63,cs,{
"Letterink-NibData" = {
AngleInDegrees = "0";
};
}),
(127,42,o),
(101,28,o),
(60,28,c),
(60,0,l),
(290,0,l),
(290,28,l),
(248,28,o),
(221,48,o),
(220,80,cs,{
"Letterink-NibData" = {
AngleInDegrees = "359.99999";
};
}),
(218,118,o),
(219,241,o),
(221,399,c),
(260,432,o),
(303,453,o),
(332,453,cs),
(394,453,o),
(437,404,o),
(442,327,cs,{
"Letterink-NibData" = {
AngleInDegrees = "0";
};
}),
(447,243,o),
(447,147,o),
(442,77,cs,{
"Letterink-NibData" = {
AngleInDegrees = "360";
};
}),
(439,47,o),
(414,28,o),
(375,28,c),
(375,0,l)
);
},
{
closed = 1;
nodes = (
(918,0,l),
(918,28,l),
(876,28,o),
(849,45,o),
(848,72,cs,{
"Letterink-NibData" = {
AngleInDegrees = "359.99999";
};
}),
(847,106,o),
(846,217,o),
(846,361,cs),
(846,452,o),
(788,509,o),
(695,509,cs),
(644,509,o),
(582,485,o),
(534,446,c),
(534,477,o),
(535,506,o),
(536,523,c,{
"Letterink-NibData" = {
AngleInDegrees = "360";
};
}),
(516,514,o),
(454,489,o),
(375,460,c),
(375,443,l,{
"Letterink-NibData" = {
AngleInDegrees = "360";
};
}),
(413,421,o),
(437,391,o),
(439,366,cs,{
"Letterink-NibData" = {
AngleInDegrees = "359.99999";
};
}),
(446,281,o),
(447,164,o),
(441,63,cs,{
"Letterink-NibData" = {
AngleInDegrees = "0";
};
}),
(440,42,o),
(414,28,o),
(373,28,c),
(373,0,l),
(603,0,l),
(603,28,l),
(561,28,o),
(534,48,o),
(533,80,cs,{
"Letterink-NibData" = {
AngleInDegrees = "359.99999";
};
}),
(531,118,o),
(532,241,o),
(534,399,c),
(573,432,o),
(616,453,o),
(645,453,cs),
(707,453,o),
(750,404,o),
(755,327,cs,{
"Letterink-NibData" = {
AngleInDegrees = "0";
};
}),
(760,243,o),
(760,147,o),
(755,77,cs,{
"Letterink-NibData" = {
AngleInDegrees = "360";
};
}),
(752,47,o),
(727,28,o),
(688,28,c),
(688,0,l)
);
}
);
};
layerId = "7AEDBE47-C818-4D22-806E-DF14ABEED00C";
name = "28. Aug. 25, 20:22";
shapes = (
{
closed = 1;
nodes = (
(896,0,l),
(896,28,l),
(884,28,ls),
(851,28,o),
(827,46,o),
(826,72,cs),
(825,107,o),
(824,227,o),
(824,361,cs),
(824,448,o),
(761,509,o),
(673,509,cs),
(626,509,o),
(552,478,o),
(495,435,c),
(475,478,o),
(420,509,o),
(363,509,cs),
(312,509,o),
(244,483,o),
(199,446,c),
(199,468,o),
(200,500,o),
(201,523,c,{
"Letterink-NibData" = {
AngleInDegrees = "360";
};
}),
(173,511,o),
(107,485,o),
(40,460,c),
(40,443,l,{
"Letterink-NibData" = {
AngleInDegrees = "360";
};
}),
(76,422,o),
(102,391,o),
(104,366,cs,{
"Letterink-NibData" = {
AngleInDegrees = "359.99999";
};
}),
(111,283,o),
(112,158,o),
(106,63,cs,{
"Letterink-NibData" = {
AngleInDegrees = "0";
};
}),
(105,43,o),
(77,28,o),
(38,28,c),
(38,0,l),
(268,0,l),
(268,28,l),
(228,28,o),
(199,50,o),
(198,80,cs,{
"Letterink-NibData" = {
AngleInDegrees = "359.99999";
};
}),
(197,125,o),
(197,257,o),
(199,399,c),
(236,431,o),
(282,453,o),
(310,453,cs),
(373,453,o),
(415,404,o),
(420,327,cs),
(425,209,o),
(423,128,o),
(420,77,cs),
(418,48,o),
(391,28,o),
(354,28,cs),
(350,28,l),
(350,0,l),
(584,0,l),
(584,28,l),
(564,28,ls),
(533,28,o),
(511,50,o),
(511,80,cs),
(512,399,l),
(546,431,o),
(592,453,o),
(623,453,cs),
(683,453,o),
(728,401,o),
(733,327,cs),
(739,236,o),
(739,133,o),
(733,77,cs),
(730,48,o),
(702,28,o),
(664,28,cs),
(659,28,l),
(659,0,l)
);
}
);
width = 924;
}
);
unicode = 109;
},
{
glyphname = n;
lastChange = "2025-08-28 19:37:54 +0000";
layers = (
{
anchors = (
{
name = bottom;
pos = (304,0);
},
{
name = top;
pos = (304,500);
}
);
layerId = m01;
shapes = (
{
closed = 1;
nodes = (
(585,0,l),
(585,28,l),
(545,28,o),
(519,45,o),
(519,72,cs,{
"Letterink-NibData" = {
AngleInDegrees = 359.99999;
};
}),
(519,173,o),
(518,284,o),
(517,361,cs),
(516,452,o),
(459,509,o),
(366,509,cs),
(313,509,o),
(251,485,o),
(205,446,c),
(205,442,o),
(206,471,o),
(207,523,c,{
"Letterink-NibData" = {
AngleInDegrees = 360;
};
}),
(152,500,o),
(90,476,o),
(45,460,c),
(45,443,l,{
"Letterink-NibData" = {
AngleInDegrees = 360;
};
}),
(83,422,o),
(108,392,o),
(110,366,cs,{
"Letterink-NibData" = {
AngleInDegrees = 359.99999;
};
}),
(117,272,o),
(118,155,o),
(112,63,cs,{
"Letterink-NibData" = {
AngleInDegrees = 0;
};
}),
(111,42,o),
(85,28,o),
(45,28,c),
(45,0,l),
(270,0,l),
(270,28,l),
(231,28,o),
(205,48,o),
(204,80,cs,{
"Letterink-NibData" = {
AngleInDegrees = 359.99999;
};
}),
(203,165,o),
(203,288,o),
(205,399,c),
(241,432,o),
(284,453,o),
(315,453,cs),
(378,453,o),
(421,404,o),
(426,327,cs,{
"Letterink-NibData" = {
AngleInDegrees = 0;
};
}),
(431,243,o),
(431,147,o),
(426,77,cs,{
"Letterink-NibData" = {
AngleInDegrees = 360;
};
}),
(423,47,o),
(397,28,o),
(360,28,c),
(360,0,l)
);
}
);
width = 608;
}
);
unicode = 110;
},
{
glyphname = o;
lastChange = "2025-08-28 20:13:24 +0000";
layers = (
{
anchors = (
{
name = bottom;
pos = (293,0);
},
{
name = center;
pos = (293,250);
},
{
name = ogonek;
pos = (442,10);
},
{
name = top;
pos = (293,500);
},
{
name = topright;
pos = (360,500);
}
);
layerId = m01;
shapes = (
{
closed = 1;
nodes = (
(443,-12,o),
(544,102,o),
(538,283,cs),
(533,422,o),
(446,509,o),
(313,509,cs),
(143,509,o),
(40,397,o),
(46,219,cs),
(51,77,o),
(140,-12,o),
(277,-12,cs)
);
},
{
closed = 1;
nodes = (
(202,27,o),
(148,118,o),
(143,261,cs),
(139,386,o),
(194,467,o),
(295,467,cs),
(380,467,o),
(431,379,o),
(436,241,cs),
(441,111,o),
(387,27,o),
(289,27,cs)
);
}
);
width = 585;
},
{
associatedMasterId = m01;
background = {
shapes = (
{
closed = 1;
nodes = (
(243,0,l),
(243,18,l),
(196,18,o),
(162,44,o),
(162,80,cs),
(162,155,o),
(162,196,o),
(161,227,cs),
(159,293,o),
(163,412,o),
(163,425,cs),
(163,472,o),
(163,494,o),
(165,527,c),
(114,503,o),
(54,477,o),
(19,464,c),
(19,457,l),
(48,440,o),
(68,408,o),
(68,380,cs),
(68,343,o),
(71,253,o),
(71,211,cs),
(71,160,o),
(70,107,o),
(70,53,cs),
(70,33,o),
(44,18,o),
(7,18,c),
(7,0,l)
);
},
{
closed = 1;
nodes = (
(587,3,l),
(587,18,l),
(542,18,o),
(511,36,o),
(511,62,cs),
(511,80,o),
(509,155,o),
(509,227,cs),
(509,292,o),
(509,355,o),
(509,373,cs),
(509,459,o),
(445,520,o),
(358,520,cs),
(278,520,o),
(187,452,o),
(118,357,c),
(117,318,l),
(187,409,o),
(262,472,o),
(308,472,cs),
(372,472,o),
(418,414,o),
(418,339,cs),
(418,290,o),
(420,241,o),
(420,211,cs),
(420,110,o),
(418,118,o),
(418,77,cs),
(418,42,o),
(384,18,o),
(335,18,c),
(335,0,l)
);
}
);
};
layerId = "5EDCC8AC-7B78-469A-BD2A-B88CA09B4DF5";
name = "15. Aug. 25, 22:43";
shapes = (
{
closed = 1;
nodes = (
(445,-15,o),
(545,92,o),
(545,263,cs),
(545,418,o),
(449,515,o),
(295,515,cs),
(138,515,o),
(40,413,o),
(40,250,cs),
(40,87,o),
(135,-15,o),
(285,-15,cs)
);
},
{
closed = 1;
nodes = (
(200,23,o),
(140,118,o),
(140,268,cs),
(140,397,o),
(192,478,o),
(275,478,cs),
(379,478,o),
(445,387,o),
(445,241,cs),
(445,107,o),
(387,23,o),
(295,23,cs)
);
}
);
width = 585;
}
);
unicode = 111;
},
{
glyphname = oslash;
lastChange = "2025-08-28 19:48:08 +0000";
layers = (
{
layerId = m01;
shapes = (
{
ref = o;
},
{
closed = 1;
nodes = (
(121,-27,l),
(479,520,l),
(452,539,l),
(93,-8,l)
);
}
);
width = 585;
}
);
unicode = 248;
},
{
glyphname = oe;
lastChange = "2025-08-28 19:37:54 +0000";
layers = (
{
anchors = (
{
name = bottom;
pos = (439,0);
},
{
name = top;
pos = (439,500);
}
);
layerId = m01;
shapes = (
{
closed = 1;
nodes = (
(443,-12,o),
(534,102,o),
(528,283,cs),
(523,422,o),
(446,509,o),
(313,509,cs),
(143,509,o),
(40,397,o),
(46,219,cs),
(51,77,o),
(140,-12,o),
(277,-12,cs)
);
},
{
closed = 1;
nodes = (
(202,27,o),
(148,118,o),
(143,261,cs),
(139,386,o),
(194,467,o),
(295,467,cs),
(380,467,o),
(431,379,o),
(436,241,cs),
(441,111,o),
(387,27,o),
(289,27,cs)
);
},
{
closed = 1;
nodes = (
(725,-12,o),
(800,30,o),
(849,96,c,{
"Letterink-NibData" = {
AngleInDegrees = "0";
};
}),
(823,123,l,{
"Letterink-NibData" = {
AngleInDegrees = "360";
};
}),
(793,80,o),
(743,49,o),
(689,49,cs),
(600,49,o),
(541,131,o),
(536,261,cs),
(536,271,o),
(537,286,o),
(537,301,c),
(842,301,l,{
"Letterink-NibData" = {
AngleInDegrees = "0";
};
}),
(843,322,o),
(845,341,o),
(844,351,cs),
(841,448,o),
(780,509,o),
(687,509,cs),
(535,509,o),
(443,397,o),
(449,219,cs),
(454,77,o),
(534,-12,o),
(656,-12,cs)
);
},
{
closed = 1;
nodes = (
(557,420,o),
(607,467,o),
(671,467,cs),
(716,467,o),
(745,435,o),
(747,383,cs),
(747,376,o),
(746,361,o),
(745,344,c),
(542,344,l)
);
}
);
width = 878;
}
);
unicode = 339;
},
{
glyphname = p;
lastChange = "2025-08-28 19:37:54 +0000";
layers = (
{
anchors = (
{
name = bottom;
pos = (304,0);
},
{
name = top;
pos = (304,500);
}
);
layerId = m01;
shapes = (
{
closed = 1;
nodes = (
(316,-300,l),
(316,-272,l),
(274,-272,o),
(197,-252,o),
(196,-220,c,{
"Letterink-NibData" = {
AngleInDegrees = "359.99999";
};
}),
(197,-230,o),
(197,-148,o),
(197,0,c),
(211,-7,o),
(247,-12,o),
(290,-12,cs),
(456,-12,o),
(561,102,o),
(561,283,cs),
(561,422,o),
(477,509,o),
(344,509,cs),
(289,509,o),
(232,494,o),
(197,470,c),
(197,480,o),
(198,501,o),
(199,526,c,{
"Letterink-NibData" = {
AngleInDegrees = "360";
};
}),
(170,513,o),
(108,489,o),
(38,463,c),
(38,446,l,{
"Letterink-NibData" = {
AngleInDegrees = "360";
};
}),
(76,424,o),
(100,394,o),
(102,369,cs,{
"Letterink-NibData" = {
AngleInDegrees = "359.99999";
};
}),
(115,208,o),
(116,-25,o),
(104,-237,cs,{
"Letterink-NibData" = {
AngleInDegrees = "0";
};
}),
(103,-258,o),
(77,-272,o),
(40,-272,c),
(40,-300,l)
);
},
{
closed = 1;
nodes = (
(197,165,o),
(197,271,o),
(197,391,c),
(221,438,o),
(271,467,o),
(325,467,cs),
(407,467,o),
(458,380,o),
(458,241,cs),
(458,110,o),
(398,27,o),
(303,27,cs),
(277,27,o),
(236,47,o),
(197,78,c)
);
}
);
width = 608;
}
);
unicode = 112;
},
{
glyphname = q;
lastChange = "2025-08-28 19:37:54 +0000";
layers = (
{
anchors = (
{
name = bottom;
pos = (293,0);
},
{
name = top;
pos = (293,500);
}
);
layerId = m01;
shapes = (
{
closed = 1;
nodes = (
(412,-298,o),
(491,-298,o),
(570,-304,c,{
"Letterink-NibData" = {
AngleInDegrees = "0";
};
}),
(570,-277,l),
(535,-276,o),
(510,-254,o),
(509,-244,cs),
(500,-115,o),
(498,166,o),
(502,478,c),
(478,502,o),
(413,516,o),
(334,515,cs,{
"Letterink-NibData" = {
AngleInDegrees = "0";
};
}),
(150,512,o),
(44,400,o),
(47,219,cs,{
"Letterink-NibData" = {
AngleInDegrees = "359.99999";
};
}),
(49,74,o),
(136,-15,o),
(270,-12,cs,{
"Letterink-NibData" = {
AngleInDegrees = "360";
};
}),
(323,-10,o),
(386,2,o),
(416,20,c),
(417,-14,o),
(415,-107,o),
(411,-225,c),
(406,-266,o),
(368,-273,o),
(334,-274,c),
(334,-306,l)
);
},
{
closed = 1;
nodes = (
(202,26,o),
(149,116,o),
(146,261,cs,{
"Letterink-NibData" = {
AngleInDegrees = "0";
};
}),
(143,391,o),
(205,470,o),
(305,473,cs,{
"Letterink-NibData" = {
AngleInDegrees = "0";
};
}),
(345,474,o),
(393,453,o),
(414,420,c,{
"Letterink-NibData" = {
AngleInDegrees = "360";
};
}),
(416,103,l),
(399,57,o),
(342,28,o),
(283,27,cs,{
"Letterink-NibData" = {
AngleInDegrees = "0";
};
})
);
}
);
width = 585;
},
{
associatedMasterId = m01;
layerId = "1305F0E8-93B7-4313-8A6F-24A77D3CBC2A";
name = "17. Aug. 25, 15:58";
shapes = (
{
closed = 1;
nodes = (
(175,512,o),
(34,371,o),
(38,158,cs,{
"Letterink-NibData" = {
AngleInDegrees = "359.99999";
};
}),
(40,54,o),
(100,-18,o),
(198,-16,cs,{
"Letterink-NibData" = {
AngleInDegrees = "360";
};
}),
(263,-15,o),
(364,-11,o),
(442,96,c,{
"Letterink-NibData" = {
AngleInDegrees = "359.99999";
};
}),
(446,156,l,{
"Letterink-NibData" = {
AngleInDegrees = "0";
};
}),
(376,55,o),
(292,53,o),
(244,52,c,{
"Letterink-NibData" = {
AngleInDegrees = "0";
};
}),
(177,51,o),
(138,111,o),
(136,221,cs,{
"Letterink-NibData" = {
AngleInDegrees = "0";
};
}),
(133,356,o),
(246,449,o),
(334,452,cs,{
"Letterink-NibData" = {
AngleInDegrees = "0";
};
}),
(369,453,o),
(401,429,o),
(402,418,cs,{
"Letterink-NibData" = {
AngleInDegrees = "360";
};
}),
(402,416,o),
(401,277,o),
(404,78,cs,{
"Letterink-NibData" = {
AngleInDegrees = "0";
};
}),
(406,-20,o),
(398,-268,o),
(399,-317,c,{
"Letterink-NibData" = {
AngleInDegrees = "0";
};
}),
(547,-279,l,{
"Letterink-NibData" = {
AngleInDegrees = "0";
};
}),
(547,-264,l),
(518,-244,o),
(491,-224,o),
(490,-212,cs),
(490,-161,o),
(492,366,o),
(490,471,c),
(462,499,o),
(415,516,o),
(368,515,cs,{
"Letterink-NibData" = {
AngleInDegrees = "0";
};
})
);
}
);
width = 583;
}
);
unicode = 113;
},
{
glyphname = r;
lastChange = "2025-08-28 20:14:53 +0000";
layers = (
{
anchors = (
{
name = bottom;
pos = (153,0);
},
{
name = top;
pos = (171,500);
}
);
layerId = m01;
shapes = (
{
closed = 1;
nodes = (
(370,416,l),
(380,499,l),
(361,507,o),
(347,515,o),
(322,515,cs),
(253,515,o),
(221,454,o),
(190,363,c),
(190,527,l,{
"Letterink-NibData" = {
AngleInDegrees = "360";
};
}),
(139,503,o),
(74,477,o),
(39,464,c),
(39,447,l,{
"Letterink-NibData" = {
AngleInDegrees = "360";
};
}),
(68,430,o),
(105,398,o),
(107,370,cs,{
"Letterink-NibData" = {
AngleInDegrees = "359.99999";
};
}),
(110,333,o),
(112,119,o),
(109,65,cs,{
"Letterink-NibData" = {
AngleInDegrees = "0";
};
}),
(108,45,o),
(74,30,o),
(22,30,c),
(22,0,l),
(293,0,l),
(293,30,l),
(221,35,o),
(196,51,o),
(195,87,cs,{
"Letterink-NibData" = {
AngleInDegrees = "359.99999";
};
}),
(193,131,o),
(189,232,o),
(190,296,c),
(221,375,o),
(251,427,o),
(287,427,cs),
(303,427,o),
(331,419,o),
(356,405,c)
);
}
);
width = 383;
}
);
unicode = 114;
},
{
glyphname = s;
lastChange = "2025-08-28 19:37:54 +0000";
layers = (
{
anchors = (
{
name = bottom;
pos = (203,0);
},
{
name = top;
pos = (203,500);
}
);
layerId = m01;
shapes = (
{
closed = 1;
nodes = (
(315,-14,o),
(367,39,o),
(367,130,cs),
(367,305,o),
(105,294,o),
(105,411,cs),
(105,456,o),
(147,481,o),
(189,481,cs),
(260,481,o),
(300,428,o),
(305,347,c),
(341,347,l),
(347,498,l),
(337,498,o),
(303,501,o),
(285,506,cs),
(259,512,o),
(237,517,o),
(208,517,cs),
(103,517,o),
(49,472,o),
(46,371,cs),
(41,193,o),
(308,209,o),
(308,91,cs),
(308,51,o),
(275,22,o),
(212,22,cs),
(148,22,o),
(101,68,o),
(76,149,c),
(38,149,l),
(40,100,o),
(46,46,o),
(46,7,c),
(55,7,o),
(88,3,o),
(108,-2,cs),
(140,-9,o),
(180,-14,o),
(213,-14,cs)
);
}
);
width = 405;
},
{
associatedMasterId = m01;
layerId = "403CFAFC-A54A-4B5D-8446-2D5E52720526";
name = "15. Aug. 25, 11:33";
shapes = (
{
closed = 1;
nodes = (
(295,61,o),
(273,43,o),
(237,43,cs),
(153,43,o),
(82,81,o),
(53,150,c,{
"Letterink-NibData" = {
AngleInDegrees = 0;
};
}),
(40,38,l,{
"Letterink-NibData" = {
AngleInDegrees = 0;
};
}),
(86,7,o),
(146,-12,o),
(197,-12,cs),
(304,-12,o),
(355,65,o),
(355,139,c),
(355,287,o),
(100,312,o),
(100,422,c),
(100,452,o),
(128,463,o),
(172,463,cs),
(249,463,o),
(301,426,o),
(330,358,c,{
"Letterink-NibData" = {
AngleInDegrees = 360;
};
}),
(343,470,l,{
"Letterink-NibData" = {
AngleInDegrees = 359.99999;
};
}),
(297,501,o),
(242,520,o),
(199,520,cs),
(91,520,o),
(40,456,o),
(40,376,cs),
(40,228,o),
(295,203,o),
(295,93,cs)
);
}
);
width = 395;
},
{
associatedMasterId = m01;
layerId = "A2ECB530-800D-45BA-BD1E-94074190BA2F";
name = "17. Aug. 25, 11:44";
shapes = (
{
closed = 1;
nodes = (
(308,56,o),
(280,33,o),
(243,33,cs),
(176,33,o),
(130,58,o),
(89,99,cs,{
"Letterink-NibData" = {
AngleInDegrees = 0;
};
}),
(66,121,o),
(49,117,o),
(46,88,cs),
(44,74,ls,{
"Letterink-NibData" = {
AngleInDegrees = 0;
};
}),
(41,51,o),
(43,29,o),
(68,17,cs),
(112,-5,o),
(162,-12,o),
(202,-12,cs),
(301,-12,o),
(364,52,o),
(364,141,c),
(364,299,o),
(102,299,o),
(102,409,c),
(102,450,o),
(130,473,o),
(176,473,cs),
(232,473,o),
(268,449,o),
(303,412,cs,{
"Letterink-NibData" = {
AngleInDegrees = 360;
};
}),
(326,388,o),
(344,391,o),
(347,421,cs),
(348,434,ls,{
"Letterink-NibData" = {
AngleInDegrees = 359.99999;
};
}),
(351,457,o),
(348,479,o),
(328,489,cs),
(281,513,o),
(236,520,o),
(204,520,cs),
(103,520,o),
(45,455,o),
(45,364,cs),
(45,206,o),
(308,206,o),
(308,96,cs)
);
}
);
width = 405;
}
);
unicode = 115;
},
{
glyphname = germandbls;
lastChange = "2025-08-28 19:37:54 +0000";
layers = (
{
anchors = (
{
name = bottom;
pos = (282,0);
},
{
name = top;
pos = (282,800);
}
);
layerId = m01;
shapes = (
{
closed = 1;
nodes = (
(166,0,l),
(163,79,o),
(163,252,o),
(165,448,c),
(166,506,l),
(166,509,o),
(166,514,o),
(166,518,cs,{
"Letterink-NibData" = {
AngleInDegrees = "0";
};
}),
(166,670,o),
(208,765,o),
(274,765,c),
(339,817,l),
(172,817,o),
(70,699,o),
(75,511,cs,{
"Letterink-NibData" = {
AngleInDegrees = "0";
};
}),
(75,509,o),
(75,505,o),
(75,503,c),
(0,500,l),
(0,484,o),
(6,466,o),
(15,453,c,{
"Letterink-NibData" = {
AngleInDegrees = "0";
};
}),
(76,451,l),
(78,358,o),
(77,209,o),
(74,63,cs),
(73,42,o),
(39,28,o),
(1,28,c),
(1,0,l)
);
},
{
closed = 1;
nodes = (
(488,-14,o),
(540,42,o),
(540,130,cs),
(540,305,o),
(336,324,o),
(336,441,c),
(277,401,l),
(269,223,o),
(481,209,o),
(481,91,cs),
(481,49,o),
(452,22,o),
(405,22,cs),
(358,22,o),
(313,51,o),
(289,129,c),
(251,129,l),
(256,15,o),
(259,-20,o),
(259,7,c),
(280,7,o),
(304,4,o),
(321,-2,cs),
(361,-9,o),
(394,-14,o),
(406,-14,cs)
);
},
{
closed = 1;
nodes = (
(336,441,l),
(336,550,o),
(478,524,o),
(478,657,cs),
(478,755,o),
(412,817,o),
(339,817,c),
(274,765,l),
(337,765,o),
(396,712,o),
(396,628,cs),
(396,513,o),
(277,571,o),
(277,401,c)
);
}
);
width = 563;
}
);
unicode = 223;
},
{
glyphname = t;
lastChange = "2025-08-28 19:37:54 +0000";
layers = (
{
anchors = (
{
name = bottom;
pos = (180,0);
},
{
name = center;
pos = (180,250);
},
{
name = top;
pos = (180,622);
},
{
name = topright;
pos = (340,800);
}
);
layerId = m01;
shapes = (
{
closed = 1;
nodes = (
(223,-8,o),
(295,26,o),
(352,76,c,{
"Letterink-NibData" = {
AngleInDegrees = 0;
};
}),
(325,108,l,{
"Letterink-NibData" = {
AngleInDegrees = 0;
};
}),
(301,86,o),
(274,64,o),
(251,64,cs),
(205,64,o),
(176,85,o),
(176,119,cs),
(176,448,l),
(313,444,l),
(313,510,l),
(178,506,l),
(186,622,l,{
"Letterink-NibData" = {
AngleInDegrees = 359.99999;
};
}),
(90,574,l),
(90,503,l),
(0,500,l),
(0,485,o),
(4,468,o),
(15,453,c,{
"Letterink-NibData" = {
AngleInDegrees = 0;
};
}),
(90,451,l),
(90,81,ls),
(90,26,o),
(121,-8,o),
(170,-8,cs)
);
}
);
width = 360;
}
);
unicode = 116;
},
{
glyphname = u;
lastChange = "2025-08-28 20:16:34 +0000";
layers = (
{
anchors = (
{
name = bottom;
pos = (285,0);
},
{
name = ogonek;
pos = (562,0);
},
{
name = top;
pos = (304,500);
},
{
name = topright;
pos = (386,500);
}
);
background = {
shapes = (
{
closed = 1;
nodes = (
(275,0,l),
(275,28,l),
(228,28,o),
(206,44,o),
(205,80,cs,{
"Letterink-NibData" = {
AngleInDegrees = "359.99999";
};
}),
(202,155,o),
(206,412,o),
(206,425,cs),
(206,472,o),
(206,494,o),
(208,527,c,{
"Letterink-NibData" = {
AngleInDegrees = "360";
};
}),
(157,503,o),
(82,477,o),
(47,464,c),
(47,447,l,{
"Letterink-NibData" = {
AngleInDegrees = "360";
};
}),
(76,430,o),
(109,398,o),
(111,370,cs,{
"Letterink-NibData" = {
AngleInDegrees = "359.99999";
};
}),
(114,333,o),
(116,117,o),
(113,63,cs,{
"Letterink-NibData" = {
AngleInDegrees = "0";
};
}),
(112,43,o),
(82,28,o),
(45,28,c),
(45,0,l)
);
},
{
closed = 1;
nodes = (
(590,0,l),
(590,28,l),
(545,28,o),
(521,46,o),
(520,72,cs,{
"Letterink-NibData" = {
AngleInDegrees = "359.99999";
};
}),
(517,155,o),
(518,355,o),
(518,373,cs),
(518,459,o),
(454,520,o),
(367,520,cs),
(289,520,o),
(204,473,o),
(147,397,c,{
"Letterink-NibData" = {
AngleInDegrees = "360";
};
}),
(146,350,l,{
"Letterink-NibData" = {
AngleInDegrees = "0";
};
}),
(203,420,o),
(269,464,o),
(317,464,cs),
(381,464,o),
(422,414,o),
(427,339,cs,{
"Letterink-NibData" = {
AngleInDegrees = "0";
};
}),
(430,290,o),
(430,118,o),
(427,77,cs,{
"Letterink-NibData" = {
AngleInDegrees = "360";
};
}),
(424,42,o),
(409,28,o),
(360,28,c),
(360,0,l)
);
}
);
};
layerId = m01;
shapes = (
{
closed = 1;
nodes = (
(296,-12,o),
(354,7,o),
(404,47,c),
(404,26,o),
(405,22,o),
(410,-17,c,{
"Letterink-NibData" = {
AngleInDegrees = 360;
};
}),
(418,-13,o),
(477,9,o),
(586,42,c),
(581,67,l,{
"Letterink-NibData" = {
AngleInDegrees = 359.99999;
};
}),
(521,49,o),
(498,77,o),
(497,114,cs),
(494,289,l),
(495,437,l),
(495,500,l),
(322,500,l),
(322,467,l),
(369,467,o),
(405,445,o),
(405,415,cs),
(405,347,o),
(405,291,o),
(406,274,cs,{
"Letterink-NibData" = {
AngleInDegrees = 359.99999;
};
}),
(408,236,o),
(404,235,o),
(404,96,c),
(364,63,o),
(323,46,o),
(303,46,cs),
(227,46,o),
(181,97,o),
(181,169,cs),
(181,218,o),
(179,259,o),
(179,289,cs),
(179,385,o),
(181,377,o),
(181,418,cs,{
"Letterink-NibData" = {
AngleInDegrees = 0;
};
}),
(184,500,l),
(24,500,l),
(24,467,l),
(59,467,o),
(90,449,o),
(90,423,cs),
(90,405,o),
(92,340,o),
(92,273,cs),
(92,135,ls),
(92,49,o),
(153,-12,o),
(253,-12,cs)
);
}
);
width = 608;
}
);
unicode = 117;
},
{
glyphname = v;
lastChange = "2025-08-28 19:37:54 +0000";
layers = (
{
anchors = (
{
name = bottom;
pos = (248,0);
},
{
name = top;
pos = (248,500);
}
);
layerId = m01;
shapes = (
{
closed = 1;
nodes = (
(297,75,o),
(387,301,o),
(455,422,cs,{
"Letterink-NibData" = {
AngleInDegrees = "0";
};
}),
(495,499,l),
(319,499,l),
(315,471,l),
(384,471,o),
(411,450,o),
(391,412,c),
(280,150,l),
(234,278,o),
(186,345,o),
(134,499,c),
(0,499,l),
(0,471,l),
(27,471,o),
(53,455,o),
(65,427,cs),
(87,373,o),
(238,-6,o),
(246,-29,c)
);
}
);
width = 495;
}
);
unicode = 118;
},
{
glyphname = w;
lastChange = "2025-08-28 19:37:54 +0000";
layers = (
{
anchors = (
{
name = bottom;
pos = (338,0);
},
{
name = top;
pos = (338,500);
}
);
layerId = m01;
shapes = (
{
closed = 1;
nodes = (
(276,63,o),
(304,170,o),
(354,266,c),
(393,146,o),
(453,-15,o),
(458,-29,c),
(495,75,o),
(585,301,o),
(640,422,cs,{
"Letterink-NibData" = {
AngleInDegrees = "0";
};
}),
(675,499,l),
(497,499,l),
(497,471,l),
(566,471,o),
(592,450,o),
(584,412,c),
(486,157,l),
(448,259,o),
(419,332,o),
(380,444,c),
(373,471,o),
(399,473,o),
(432,473,c),
(432,499,l),
(217,499,l),
(217,471,l),
(254,471,o),
(280,455,o),
(292,427,cs),
(334,321,l),
(263,145,l),
(217,272,o),
(186,346,o),
(134,499,c),
(0,499,l),
(0,471,l),
(27,471,o),
(53,455,o),
(65,427,cs),
(87,373,o),
(223,-6,o),
(231,-29,c)
);
}
);
width = 675;
}
);
unicode = 119;
},
{
glyphname = x;
lastChange = "2025-08-28 19:37:54 +0000";
layers = (
{
anchors = (
{
name = bottom;
pos = (248,0);
},
{
name = top;
pos = (248,500);
}
);
layerId = m01;
shapes = (
{
closed = 1;
nodes = (
(323,-3,o),
(358,-2,o),
(400,-2,cs),
(438,-2,o),
(485,-3,o),
(495,-6,c,{
"Letterink-NibData" = {
AngleInDegrees = "0";
};
}),
(495,25,l,{
"Letterink-NibData" = {
AngleInDegrees = "360";
};
}),
(472,28,o),
(462,42,o),
(447,61,cs,{
"Letterink-NibData" = {
AngleInDegrees = "0";
};
}),
(421,95,o),
(352,188,o),
(286,283,c),
(346,352,o),
(358,367,o),
(410,432,cs,{
"Letterink-NibData" = {
AngleInDegrees = "360";
};
}),
(426,451,o),
(446,465,o),
(478,468,c,{
"Letterink-NibData" = {
AngleInDegrees = "0";
};
}),
(478,503,l,{
"Letterink-NibData" = {
AngleInDegrees = "0";
};
}),
(458,500,o),
(434,499,o),
(398,499,cs),
(360,499,o),
(311,500,o),
(292,503,c,{
"Letterink-NibData" = {
AngleInDegrees = "0";
};
}),
(292,468,l,{
"Letterink-NibData" = {
AngleInDegrees = "360";
};
}),
(323,465,o),
(357,451,o),
(341,425,cs,{
"Letterink-NibData" = {
AngleInDegrees = "0";
};
}),
(315,384,o),
(306,372,o),
(259,322,c),
(232,362,o),
(205,403,o),
(184,438,cs,{
"Letterink-NibData" = {
AngleInDegrees = "360";
};
}),
(173,457,o),
(170,470,o),
(211,473,c,{
"Letterink-NibData" = {
AngleInDegrees = "360";
};
}),
(211,504,l,{
"Letterink-NibData" = {
AngleInDegrees = "0";
};
}),
(183,501,o),
(140,500,o),
(98,500,cs),
(60,500,o),
(26,500,o),
(7,503,c,{
"Letterink-NibData" = {
AngleInDegrees = "0";
};
}),
(7,472,l,{
"Letterink-NibData" = {
AngleInDegrees = "360";
};
}),
(39,469,o),
(59,456,o),
(72,438,cs,{
"Letterink-NibData" = {
AngleInDegrees = "0";
};
}),
(86,418,o),
(150,329,o),
(212,241,c),
(148,154,o),
(118,123,o),
(73,67,cs,{
"Letterink-NibData" = {
AngleInDegrees = "360";
};
}),
(56,47,o),
(31,32,o),
(0,30,c,{
"Letterink-NibData" = {
AngleInDegrees = "0";
};
}),
(0,-6,l,{
"Letterink-NibData" = {
AngleInDegrees = "0";
};
}),
(19,-3,o),
(44,-2,o),
(80,-2,cs),
(117,-2,o),
(166,-3,o),
(183,-6,c,{
"Letterink-NibData" = {
AngleInDegrees = "0";
};
}),
(182,3,o),
(181,25,o),
(183,30,c,{
"Letterink-NibData" = {
AngleInDegrees = "360";
};
}),
(153,32,o),
(127,48,o),
(142,73,cs,{
"Letterink-NibData" = {
AngleInDegrees = "0";
};
}),
(165,110,o),
(190,138,o),
(241,200,c),
(287,135,o),
(326,78,o),
(335,61,cs,{
"Letterink-NibData" = {
AngleInDegrees = "360";
};
}),
(345,42,o),
(336,28,o),
(305,25,c,{
"Letterink-NibData" = {
AngleInDegrees = "360";
};
}),
(305,-6,l,{
"Letterink-NibData" = {
AngleInDegrees = "0";
};
})
);
}
);
width = 495;
}
);
unicode = 120;
},
{
glyphname = y;
lastChange = "2025-08-28 20:17:14 +0000";
layers = (
{
anchors = (
{
name = bottom;
pos = (317,-49);
},
{
name = top;
pos = (248,500);
}
);
layerId = m01;
shapes = (
{
closed = 1;
nodes = (
(164,-246,o),
(244,-112,o),
(278,-11,cs),
(287,16,o),
(296,41,o),
(303,59,cs),
(350,179,o),
(406,335,o),
(455,422,cs,{
"Letterink-NibData" = {
AngleInDegrees = "0";
};
}),
(495,499,l),
(317,499,l),
(317,471,l),
(386,471,o),
(411,450,o),
(391,412,c),
(276,126,l),
(230,236,o),
(171,386,o),
(128,499,c),
(0,499,l),
(0,471,l),
(-3,471,o),
(42,455,o),
(55,427,cs),
(85,361,o),
(146,213,o),
(220,21,c),
(197,-103,o),
(148,-174,o),
(30,-247,c,{
"Letterink-NibData" = {
AngleInDegrees = "360";
};
}),
(41,-266,o),
(69,-296,o),
(76,-310,c,{
"Letterink-NibData" = {
AngleInDegrees = "0";
};
})
);
}
);
width = 495;
}
);
unicode = 121;
},
{
glyphname = z;
lastChange = "2025-08-28 19:37:54 +0000";
layers = (
{
anchors = (
{
name = bottom;
pos = (270,0);
},
{
name = center;
pos = (270,250);
},
{
name = top;
pos = (270,500);
}
);
layerId = m01;
shapes = (
{
closed = 1;
nodes = (
(129,0,o),
(380,0,o),
(460,-6,c),
(499,137,l),
(461,144,l),
(446,103,o),
(408,48,o),
(362,47,cs),
(168,44,l),
(272,192,o),
(365,338,o),
(475,479,c),
(450,510,l),
(396,500,o),
(140,502,o),
(73,509,c),
(73,368,l),
(107,368,l),
(121,442,o),
(140,461,o),
(184,461,cs),
(223,461,o),
(292,461,o),
(346,456,c),
(244,321,o),
(152,173,o),
(40,26,c),
(55,-7,l)
);
}
);
width = 540;
}
);
unicode = 122;
},
{
glyphname = zero;
lastChange = "2025-08-27 16:16:14 +0000";
layers = (
{
layerId = m01;
shapes = (
{
closed = 1;
nodes = (
(427,-12,o),
(532,146,o),
(532,397,cs),
(532,590,o),
(448,711,o),
(315,711,cs),
(145,711,o),
(38,555,o),
(38,309,cs),
(38,112,o),
(124,-12,o),
(261,-12,cs)
);
},
{
closed = 1;
nodes = (
(187,32,o),
(137,169,o),
(137,366,cs),
(137,540,o),
(195,662,o),
(296,662,cs),
(381,662,o),
(429,530,o),
(429,340,cs),
(429,159,o),
(372,32,o),
(274,32,cs)
);
}
);
width = 561;
}
);
unicode = 48;
},
{
glyphname = one;
lastChange = "2025-08-27 20:53:39 +0000";
layers = (
{
layerId = m01;
shapes = (
{
closed = 1;
nodes = (
(216,-2,o),
(286,0,o),
(326,0,cs),
(363,0,o),
(412,-2,o),
(489,-6,c,{
"Letterink-NibData" = {
AngleInDegrees = "0";
};
}),
(488,1,o),
(488,14,o),
(489,21,c,{
"Letterink-NibData" = {
AngleInDegrees = "0";
};
}),
(401,33,o),
(367,58,o),
(366,84,cs,{
"Letterink-NibData" = {
AngleInDegrees = "359.99999";
};
}),
(361,275,o),
(362,528,o),
(370,705,c,{
"Letterink-NibData" = {
AngleInDegrees = "360";
};
}),
(327,730,l),
(244,639,o),
(172,578,o),
(89,520,c,{
"Letterink-NibData" = {
AngleInDegrees = "0";
};
}),
(103,506,o),
(107,496,o),
(114,480,c,{
"Letterink-NibData" = {
AngleInDegrees = "360";
};
}),
(156,509,o),
(206,552,o),
(265,588,c,{
"Letterink-NibData" = {
AngleInDegrees = "0";
};
}),
(271,439,o),
(272,252,o),
(262,84,cs,{
"Letterink-NibData" = {
AngleInDegrees = "0";
};
}),
(260,58,o),
(227,33,o),
(139,21,c,{
"Letterink-NibData" = {
AngleInDegrees = "0";
};
}),
(140,14,o),
(140,1,o),
(139,-6,c,{
"Letterink-NibData" = {
AngleInDegrees = "0";
};
})
);
}
);
width = 563;
}
);
unicode = 49;
},
{
glyphname = two;
lastChange = "2025-08-28 12:24:25 +0000";
layers = (
{
layerId = m01;
shapes = (
{
closed = 1;
nodes = (
(170,-1,o),
(358,0,o),
(468,-8,c),
(507,137,l),
(469,144,l),
(448,85,o),
(414,58,o),
(380,57,cs),
(309,55,o),
(254,53,o),
(183,53,c),
(183,287,o),
(502,281,o),
(482,537,cs),
(474,637,o),
(389,710,o),
(286,710,cs),
(232,710,o),
(157,669,o),
(96,610,cs,{
"Letterink-NibData" = {
AngleInDegrees = "0";
};
}),
(78,591,o),
(66,570,o),
(66,560,cs),
(66,530,o),
(78,509,o),
(96,509,cs),
(148,509,o),
(184,530,o),
(184,559,cs),
(184,571,o),
(168,583,o),
(168,605,cs),
(168,633,o),
(193,652,o),
(229,652,cs),
(295,652,o),
(376,597,o),
(381,507,cs),
(395,249,o),
(34,237,o),
(68,-9,c)
);
}
);
width = 563;
}
);
unicode = 50;
},
{
glyphname = three;
lastChange = "2025-08-28 12:25:57 +0000";
layers = (
{
background = {
shapes = (
{
closed = 0;
nodes = (
(309,713,ls),
(265,713,o),
(190,672,o),
(129,613,cs,{
"Letterink-NibData" = {
AngleInDegrees = "0";
};
}),
(111,594,o),
(99,573,o),
(99,563,cs),
(99,533,o),
(111,512,o),
(129,512,cs),
(181,512,o),
(217,533,o),
(217,562,cs),
(217,574,o),
(201,586,o),
(201,608,cs),
(201,636,o),
(226,655,o),
(262,655,cs)
);
}
);
};
layerId = m01;
shapes = (
{
closed = 1;
nodes = (
(405,-10,o),
(497,77,o),
(497,199,cs),
(497,297,o),
(451,376,o),
(387,388,c),
(440,398,o),
(477,460,o),
(477,539,cs),
(477,637,o),
(405,707,o),
(304,707,cs),
(263,707,o),
(190,674,o),
(130,628,cs),
(106,610,o),
(89,583,o),
(89,563,cs),
(89,533,o),
(101,512,o),
(119,512,cs),
(171,512,o),
(207,533,o),
(207,562,cs),
(207,574,o),
(191,586,o),
(191,608,c),
(191,641,o),
(222,664,o),
(265,664,cs),
(336,664,o),
(386,603,o),
(386,516,cs),
(386,455,o),
(344,401,o),
(285,385,cs),
(228,370,l),
(235,328,l),
(292,344,ls),
(359,360,o),
(407,293,o),
(407,183,cs),
(407,95,o),
(356,32,o),
(285,32,cs),
(215,32,o),
(165,95,o),
(165,185,c),
(81,165,l),
(81,63,o),
(161,-10,o),
(275,-10,cs)
);
}
);
width = 563;
}
);
unicode = 51;
},
{
glyphname = four;
lastChange = "2025-08-27 16:15:50 +0000";
layers = (
{
layerId = m01;
shapes = (
{
closed = 1;
nodes = (
(413,0,l),
(412,60,o),
(411,123,o),
(411,183,c),
(447,182,o),
(484,181,o),
(522,179,c),
(522,240,l),
(485,238,o),
(447,236,o),
(410,235,c),
(409,393,o),
(410,549,o),
(413,707,c),
(319,707,l),
(37,235,l),
(37,184,l),
(132,185,o),
(226,186,o),
(321,184,c),
(321,124,o),
(320,61,o),
(319,0,c)
);
},
{
closed = 1;
nodes = (
(320,627,l),
(322,494,o),
(322,363,o),
(322,233,c),
(243,232,o),
(162,233,o),
(82,235,c)
);
}
);
width = 563;
}
);
unicode = 52;
},
{
glyphname = five;
lastChange = "2025-08-28 12:26:08 +0000";
layers = (
{
background = {
shapes = (
{
closed = 0;
nodes = (
(375,645,ls),
(412,644,o),
(454,604,o),
(474,548,c),
(512,555,l),
(473,700,l)
);
}
);
};
layerId = m01;
shapes = (
{
closed = 1;
nodes = (
(465,768,l),
(432,773,l),
(425,729,o),
(414,700,o),
(388,699,c),
(122,700,l),
(87,329,l),
(120,287,l),
(160,348,o),
(217,392,o),
(270,392,cs),
(341,392,o),
(392,318,o),
(392,214,cs),
(392,101,o),
(345,30,o),
(270,30,cs),
(223,30,o),
(180,70,o),
(159,134,c),
(77,96,l),
(107,27,o),
(177,-16,o),
(260,-16,cs),
(404,-16,o),
(494,82,o),
(494,239,cs),
(494,356,o),
(405,439,o),
(280,439,cs),
(222,439,o),
(169,411,o),
(136,372,c),
(162,611,l),
(246,614,o),
(397,614,o),
(446,613,c)
);
}
);
width = 563;
}
);
unicode = 53;
},
{
glyphname = six;
lastChange = "2025-08-27 18:19:52 +0000";
layers = (
{
layerId = m01;
shapes = (
{
closed = 1;
nodes = (
(422,-18,o),
(521,79,o),
(521,216,cs),
(521,363,o),
(443,455,o),
(308,455,cs),
(251,455,o),
(197,427,o),
(155,377,c),
(191,522,o),
(295,632,o),
(438,670,c),
(417,712,l),
(190,660,o),
(48,482,o),
(48,283,cs),
(48,107,o),
(145,-18,o),
(282,-18,cs)
);
},
{
closed = 1;
nodes = (
(172,358,o),
(233,395,o),
(308,395,cs),
(381,395,o),
(421,322,o),
(421,205,cs),
(421,102,o),
(363,29,o),
(282,29,cs),
(192,29,o),
(137,141,o),
(148,299,c)
);
}
);
width = 563;
}
);
unicode = 54;
},
{
glyphname = seven;
lastChange = "2025-08-28 06:40:03 +0000";
layers = (
{
layerId = m01;
shapes = (
{
closed = 1;
nodes = (
(284,0,l),
(281,295,o),
(396,500,o),
(545,664,c),
(511,714,l),
(418,701,o),
(231,694,o),
(64,706,c),
(64,512,l),
(98,512,l),
(114,604,o),
(144,644,o),
(194,648,cs),
(262,653,o),
(361,654,o),
(429,647,c),
(296,496,o),
(212,238,o),
(169,0,c)
);
}
);
width = 563;
}
);
unicode = 55;
},
{
glyphname = eight;
lastChange = "2025-08-27 18:19:32 +0000";
layers = (
{
layerId = m01;
shapes = (
{
closed = 1;
nodes = (
(406,-11,o),
(507,83,o),
(507,202,cs),
(507,287,o),
(461,349,o),
(385,377,c),
(440,408,o),
(474,468,o),
(474,547,cs),
(474,634,o),
(388,704,o),
(280,704,cs),
(172,704,o),
(86,626,o),
(86,527,cs),
(86,457,o),
(120,403,o),
(174,375,c),
(97,343,o),
(55,274,o),
(57,182,cs),
(60,74,o),
(159,-11,o),
(280,-11,cs)
);
},
{
closed = 1;
nodes = (
(204,32,o),
(144,107,o),
(144,202,cs),
(144,294,o),
(196,352,o),
(280,352,cs),
(367,352,o),
(422,286,o),
(422,182,cs),
(422,98,o),
(359,32,o),
(280,32,cs)
);
},
{
closed = 1;
nodes = (
(213,394,o),
(171,453,o),
(171,547,cs),
(171,613,o),
(219,665,o),
(280,665,cs),
(341,665,o),
(390,604,o),
(390,527,cs),
(390,445,o),
(348,394,o),
(280,394,cs)
);
}
);
width = 563;
}
);
unicode = 56;
},
{
glyphname = nine;
lastChange = "2025-08-27 18:19:47 +0000";
layers = (
{
layerId = m01;
shapes = (
{
closed = 1;
nodes = (
(388,34,o),
(530,212,o),
(530,411,cs),
(530,587,o),
(433,712,o),
(296,712,cs),
(156,712,o),
(57,615,o),
(57,478,cs),
(57,331,o),
(135,239,o),
(270,239,cs),
(327,239,o),
(381,267,o),
(423,317,c),
(387,172,o),
(283,62,o),
(140,24,c),
(161,-18,l)
);
},
{
closed = 1;
nodes = (
(157,592,o),
(215,665,o),
(296,665,cs),
(386,665,o),
(441,553,o),
(430,395,c),
(406,335,o),
(345,299,o),
(270,299,cs),
(197,299,o),
(157,372,o),
(157,489,cs)
);
}
);
width = 563;
}
);
unicode = 57;
},
{
glyphname = zero.osf;
lastChange = "2025-08-27 17:55:02 +0000";
layers = (
{
layerId = m01;
shapes = (
{
closed = 1;
nodes = (
(427,-12,o),
(532,102,o),
(532,282,cs),
(532,421,o),
(448,508,o),
(315,508,cs),
(145,508,o),
(38,395,o),
(38,219,cs),
(38,78,o),
(124,-12,o),
(261,-12,cs)
);
},
{
closed = 1;
nodes = (
(187,36,o),
(137,118,o),
(137,260,cs),
(137,385,o),
(195,459,o),
(296,459,cs),
(381,459,o),
(429,377,o),
(429,241,cs),
(429,110,o),
(372,36,o),
(274,36,cs)
);
}
);
width = 561;
}
);
},
{
glyphname = one.osf;
lastChange = "2025-08-27 17:55:55 +0000";
layers = (
{
layerId = m01;
shapes = (
{
closed = 1;
nodes = (
(212,-2,o),
(282,0,o),
(322,0,cs),
(359,0,o),
(408,-2,o),
(485,-6,c,{
"Letterink-NibData" = {
AngleInDegrees = "0";
};
}),
(484,1,o),
(484,14,o),
(485,21,c,{
"Letterink-NibData" = {
AngleInDegrees = "0";
};
}),
(397,33,o),
(363,58,o),
(362,84,cs,{
"Letterink-NibData" = {
AngleInDegrees = "359.99999";
};
}),
(357,215,o),
(365,373,o),
(370,490,c,{
"Letterink-NibData" = {
AngleInDegrees = "360";
};
}),
(327,515,l),
(244,424,o),
(172,363,o),
(89,305,c,{
"Letterink-NibData" = {
AngleInDegrees = "0";
};
}),
(103,291,o),
(107,281,o),
(114,265,c,{
"Letterink-NibData" = {
AngleInDegrees = "360";
};
}),
(156,294,o),
(206,337,o),
(265,373,c,{
"Letterink-NibData" = {
AngleInDegrees = "0";
};
}),
(268,304,o),
(264,182,o),
(258,84,cs,{
"Letterink-NibData" = {
AngleInDegrees = "0";
};
}),
(256,58,o),
(223,33,o),
(135,21,c,{
"Letterink-NibData" = {
AngleInDegrees = "0";
};
}),
(136,14,o),
(136,1,o),
(135,-6,c,{
"Letterink-NibData" = {
AngleInDegrees = "0";
};
})
);
}
);
width = 563;
}
);
},
{
glyphname = two.osf;
lastChange = "2025-08-27 18:15:34 +0000";
layers = (
{
layerId = m01;
shapes = (
{
closed = 1;
nodes = (
(160,-1,o),
(358,0,o),
(468,-8,c),
(507,137,l),
(469,144,l),
(448,85,o),
(414,58,o),
(380,57,cs),
(309,55,o),
(254,53,o),
(183,53,c),
(183,219,o),
(482,168,o),
(463,374,cs),
(454,474,o),
(389,507,o),
(286,507,cs),
(232,507,o),
(157,466,o),
(97,406,cs,{
"Letterink-NibData" = {
AngleInDegrees = "0";
};
}),
(78,388,o),
(66,367,o),
(66,357,cs),
(66,327,o),
(78,306,o),
(96,306,cs),
(148,306,o),
(184,327,o),
(184,356,cs),
(184,368,o),
(168,380,o),
(168,402,cs),
(168,430,o),
(193,449,o),
(229,449,cs),
(295,449,o),
(356,434,o),
(362,344,cs),
(375,136,o),
(24,237,o),
(58,-9,c)
);
}
);
width = 563;
}
);
},
{
glyphname = three.osf;
lastChange = "2025-08-27 18:20:25 +0000";
layers = (
{
background = {
shapes = (
{
closed = 0;
nodes = (
(309,713,ls),
(265,713,o),
(190,672,o),
(129,613,cs,{
"Letterink-NibData" = {
AngleInDegrees = "0";
};
}),
(111,594,o),
(99,573,o),
(99,563,cs),
(99,533,o),
(111,512,o),
(129,512,cs),
(181,512,o),
(217,533,o),
(217,562,cs),
(217,574,o),
(201,586,o),
(201,608,cs),
(201,636,o),
(226,655,o),
(262,655,cs)
);
}
);
};
layerId = m01;
shapes = (
{
closed = 1;
nodes = (
(399,-211,o),
(497,-118,o),
(497,-2,cs),
(497,74,o),
(449,135,o),
(372,163,c),
(437,196,o),
(477,261,o),
(477,338,cs),
(477,439,o),
(402,506,o),
(304,506,cs),
(258,506,o),
(195,476,o),
(130,427,cs),
(99,404,o),
(89,379,o),
(89,362,cs),
(89,332,o),
(101,311,o),
(119,311,cs),
(171,311,o),
(207,332,o),
(207,361,cs),
(207,373,o),
(191,385,o),
(191,407,c),
(191,441,o),
(220,463,o),
(265,463,cs),
(333,463,o),
(386,406,o),
(386,315,cs),
(386,230,o),
(343,177,o),
(275,177,cs),
(216,177,l),
(216,135,l),
(275,136,ls),
(356,133,o),
(407,74,o),
(407,-18,cs),
(407,-102,o),
(353,-169,o),
(285,-169,cs),
(218,-169,o),
(165,-101,o),
(165,-16,c),
(81,-36,l),
(81,-133,o),
(167,-211,o),
(275,-211,cs)
);
}
);
width = 563;
}
);
},
{
glyphname = four.osf;
lastChange = "2025-08-27 18:01:29 +0000";
layers = (
{
layerId = m01;
shapes = (
{
closed = 1;
nodes = (
(411,-207,l),
(410,-147,o),
(409,-58,o),
(409,2,c),
(445,1,o),
(482,0,o),
(520,-2,c),
(520,59,l),
(483,57,o),
(445,55,o),
(408,54,c),
(407,212,o),
(408,342,o),
(411,500,c),
(317,500,l),
(35,54,l),
(35,3,l),
(130,4,o),
(224,5,o),
(319,3,c),
(319,-57,o),
(318,-146,o),
(317,-207,c)
);
},
{
closed = 1;
nodes = (
(318,420,l),
(320,287,o),
(320,182,o),
(320,52,c),
(241,51,o),
(160,52,o),
(80,54,c)
);
}
);
width = 563;
}
);
},
{
glyphname = five.osf;
lastChange = "2025-08-27 18:20:37 +0000";
layers = (
{
background = {
shapes = (
{
closed = 0;
nodes = (
(375,645,ls),
(412,644,o),
(454,604,o),
(474,548,c),
(512,555,l),
(473,700,l)
);
}
);
};
layerId = m01;
shapes = (
{
closed = 1;
nodes = (
(465,568,l),
(432,573,l),
(425,529,o),
(414,500,o),
(388,499,c),
(112,500,l),
(77,129,l),
(110,87,l),
(150,148,o),
(217,192,o),
(270,192,cs),
(341,192,o),
(392,118,o),
(392,14,cs),
(392,-89,o),
(338,-170,o),
(270,-170,cs),
(222,-170,o),
(168,-124,o),
(149,-66,c),
(67,-104,l),
(94,-166,o),
(180,-216,o),
(260,-216,cs),
(390,-216,o),
(494,-103,o),
(494,39,cs),
(494,156,o),
(405,239,o),
(280,239,cs),
(223,239,o),
(159,211,o),
(126,172,c),
(152,411,l),
(236,414,o),
(397,414,o),
(446,413,c)
);
}
);
width = 563;
}
);
},
{
glyphname = six.osf;
lastChange = "2025-08-27 18:20:42 +0000";
layers = (
{
layerId = m01;
shapes = (
{
closed = 1;
nodes = (
(422,-18,o),
(521,79,o),
(521,216,cs),
(521,363,o),
(443,455,o),
(308,455,cs),
(251,455,o),
(197,427,o),
(154,377,c),
(191,522,o),
(295,632,o),
(438,670,c),
(417,712,l),
(190,660,o),
(48,482,o),
(48,283,cs),
(48,107,o),
(145,-18,o),
(282,-18,cs)
);
},
{
closed = 1;
nodes = (
(172,358,o),
(233,395,o),
(308,395,cs),
(381,395,o),
(421,322,o),
(421,205,cs),
(421,102,o),
(363,29,o),
(282,29,cs),
(192,29,o),
(137,141,o),
(148,299,c)
);
}
);
width = 563;
}
);
},
{
glyphname = seven.osf;
lastChange = "2025-08-27 18:16:26 +0000";
layers = (
{
layerId = m01;
shapes = (
{
closed = 1;
nodes = (
(314,-202,l),
(311,93,o),
(376,298,o),
(525,462,c),
(491,509,l),
(398,495,o),
(231,488,o),
(64,501,c),
(64,310,l),
(98,310,l),
(114,402,o),
(144,442,o),
(194,446,cs),
(262,451,o),
(341,452,o),
(405,445,c),
(276,294,o),
(242,36,o),
(199,-202,c)
);
}
);
width = 563;
}
);
},
{
glyphname = eight.osf;
lastChange = "2025-08-27 18:19:12 +0000";
layers = (
{
layerId = m01;
shapes = (
{
closed = 1;
nodes = (
(406,-11,o),
(507,83,o),
(507,202,cs),
(507,287,o),
(461,349,o),
(385,377,c),
(440,408,o),
(474,468,o),
(474,547,cs),
(474,634,o),
(388,704,o),
(280,704,cs),
(172,704,o),
(86,626,o),
(86,527,cs),
(86,457,o),
(120,403,o),
(174,375,c),
(97,343,o),
(55,274,o),
(57,182,cs),
(60,74,o),
(159,-11,o),
(280,-11,cs)
);
},
{
closed = 1;
nodes = (
(204,32,o),
(144,107,o),
(144,202,cs),
(144,290,o),
(200,352,o),
(280,352,cs),
(363,352,o),
(422,282,o),
(422,182,cs),
(422,98,o),
(359,32,o),
(280,32,cs)
);
},
{
closed = 1;
nodes = (
(216,394,o),
(171,457,o),
(171,547,cs),
(171,613,o),
(219,665,o),
(280,665,cs),
(341,665,o),
(390,604,o),
(390,527,cs),
(390,449,o),
(344,394,o),
(280,394,cs)
);
}
);
width = 563;
}
);
},
{
glyphname = nine.osf;
lastChange = "2025-08-27 18:20:55 +0000";
layers = (
{
layerId = m01;
shapes = (
{
closed = 1;
nodes = (
(388,-171,o),
(530,7,o),
(530,206,cs),
(530,382,o),
(433,507,o),
(296,507,cs),
(156,507,o),
(57,410,o),
(57,273,cs),
(57,126,o),
(135,34,o),
(270,34,cs),
(327,34,o),
(381,62,o),
(423,112,c),
(387,-33,o),
(283,-143,o),
(140,-181,c),
(161,-223,l)
);
},
{
closed = 1;
nodes = (
(157,387,o),
(215,460,o),
(296,460,cs),
(386,460,o),
(441,348,o),
(430,190,c),
(406,130,o),
(345,94,o),
(270,94,cs),
(197,94,o),
(157,167,o),
(157,284,cs)
);
}
);
width = 563;
}
);
},
{
color = 4;
glyphname = .notdef;
layers = (
{
layerId = m01;
shapes = (
{
closed = 1;
nodes = (
(700,0,l),
(700,700,l),
(0,700,l),
(0,0,l)
);
},
{
closed = 1;
nodes = (
(164,231,o),
(177,251,o),
(177,286,cs),
(177,320,o),
(165,339,o),
(144,339,cs),
(130,339,o),
(119,330,o),
(113,315,c),
(113,245,l),
(123,236,o),
(133,231,o),
(141,231,cs)
);
},
{
closed = 1;
nodes = (
(108,198,o),
(79,207,o),
(62,223,c),
(62,429,l),
(113,429,l),
(113,355,l),
(126,367,o),
(142,373,o),
(158,373,cs),
(202,373,o),
(227,343,o),
(227,289,cs),
(227,231,o),
(197,198,o),
(142,198,cs)
);
},
{
closed = 1;
nodes = (
(267,198,o),
(232,235,o),
(232,287,cs),
(232,337,o),
(267,373,o),
(317,373,cs),
(369,373,o),
(405,337,o),
(405,287,cs),
(405,235,o),
(369,198,o),
(317,198,cs)
);
},
{
closed = 1;
nodes = (
(340,231,o),
(353,251,o),
(353,287,cs),
(353,320,o),
(340,339,o),
(317,339,cs),
(295,339,o),
(283,320,o),
(283,287,cs),
(283,251,o),
(295,231,o),
(317,231,cs)
);
},
{
closed = 1;
nodes = (
(418,429,l),
(468,429,l),
(468,204,l),
(418,204,l)
);
},
{
closed = 1;
nodes = (
(159,428,l),
(181,428,o),
(195,437,o),
(198,453,c),
(141,601,l),
(141,591,l),
(114,591,l),
(114,505,ls),
(114,496,o),
(121,490,o),
(133,490,cs),
(150,490,l),
(150,455,l),
(119,455,ls),
(84,455,o),
(62,470,o),
(62,493,cs),
(62,591,l),
(37,591,l),
(37,623,l),
(62,623,l),
(72,662,l),
(114,662,l),
(114,623,l),
(188,623,l),
(226,511,l),
(257,623,l),
(362,623,l),
(362,611,l),
(370,618,o),
(387,628,o),
(410,628,cs),
(453,628,o),
(477,594,o),
(477,537,cs),
(477,481,o),
(452,450,o),
(407,450,cs),
(385,450,o),
(369,457,o),
(362,466,c),
(362,393,l),
(310,393,l),
(310,615,l),
(249,449,ls),
(235,410,o),
(208,393,o),
(159,393,c)
);
},
{
closed = 1;
nodes = (
(581,231,o),
(591,235,o),
(596,241,c),
(596,327,l),
(589,334,o),
(580,340,o),
(566,340,cs),
(544,340,o),
(532,321,o),
(532,287,cs),
(532,251,o),
(545,231,o),
(568,231,cs)
);
},
{
closed = 1;
nodes = (
(505,198,o),
(481,230,o),
(481,287,cs),
(481,343,o),
(506,374,o),
(551,374,cs),
(573,374,o),
(589,367,o),
(596,355,c),
(596,429,l),
(647,429,l),
(647,204,l),
(596,204,l),
(596,214,l),
(588,204,o),
(571,198,o),
(548,198,cs)
);
},
{
closed = 1;
nodes = (
(412,484,o),
(426,504,o),
(426,538,cs),
(426,574,o),
(411,594,o),
(388,594,cs),
(375,594,o),
(365,588,o),
(360,582,c),
(360,494,l),
(367,487,o),
(376,484,o),
(390,484,cs)
);
},
{
closed = 1;
nodes = (
(514,452,o),
(479,489,o),
(479,541,cs),
(479,591,o),
(514,627,o),
(565,627,cs),
(617,627,o),
(653,591,o),
(653,541,cs),
(653,489,o),
(617,452,o),
(565,452,cs)
);
},
{
closed = 1;
nodes = (
(588,485,o),
(601,505,o),
(601,541,cs),
(601,574,o),
(588,593,o),
(565,593,cs),
(542,593,o),
(530,574,o),
(530,541,cs),
(530,505,o),
(542,485,o),
(565,485,cs)
);
}
);
width = 700;
},
{
associatedMasterId = m01;
hints = (
{
horizontal = 1;
place = (0,198);
type = Stem;
},
{
horizontal = 1;
place = (373,20);
type = Stem;
},
{
horizontal = 1;
place = (429,26);
type = Stem;
},
{
horizontal = 1;
place = (623,77);
type = Stem;
},
{
place = (0,62);
type = Stem;
},
{
place = (113,46);
type = Stem;
},
{
place = (283,70);
type = Stem;
},
{
place = (405,13);
type = Stem;
},
{
place = (468,13);
type = Stem;
},
{
place = (530,71);
type = Stem;
},
{
place = (647,53);
type = Stem;
},
{
horizontal = 1;
place = (490,101);
type = Stem;
},
{
place = (0,37);
type = Stem;
},
{
horizontal = 1;
place = (662,38);
type = Stem;
},
{
place = (114,196);
type = Stem;
},
{
horizontal = 1;
place = (429,21);
type = Stem;
},
{
place = (362,64);
type = Stem;
},
{
place = (477,124);
type = Stem;
},
{
place = (362,56);
type = Stem;
},
{
horizontal = 1;
place = (428,27);
type = Stem;
},
{
place = (141,169);
type = Stem;
},
{
horizontal = 1;
place = (490,210);
type = Stem;
},
{
place = (150,9);
type = Stem;
},
{
horizontal = 1;
place = (231,108);
type = Stem;
},
{
place = (227,83);
type = Stem;
},
{
place = (0,177);
type = Stem;
},
{
place = (113,119);
type = Stem;
},
{
place = (283,135);
type = Stem;
},
{
horizontal = 1;
place = (484,110);
type = Stem;
},
{
place = (360,58);
type = Stem;
},
{
place = (360,66);
type = Stem;
},
{
horizontal = 1;
place = (0,204);
type = Stem;
},
{
horizontal = 1;
place = (429,23);
type = Stem;
},
{
horizontal = 1;
place = (627,73);
type = Stem;
},
{
place = (360,119);
type = Stem;
},
{
place = (653,47);
type = Stem;
},
{
place = (468,128);
type = Stem;
},
{
horizontal = 1;
place = (485,108);
type = Stem;
},
{
place = (530,170);
type = Stem;
},
{
horizontal = 1;
place = (231,109);
type = Stem;
},
{
place = (532,168);
type = Stem;
}
);
layerId = "D7591C8F-4196-4B99-96EB-E73125982FD0";
name = Black;
shapes = (
{
closed = 1;
nodes = (
(237,0,l),
(237,809,l),
(12,809,l),
(12,0,l)
);
},
{
closed = 1;
nodes = (
(90,9,l),
(70,9,l),
(70,25,l),
(45,32,l),
(45,59,l),
(70,59,l),
(70,107,l),
(142,131,l),
(70,151,l),
(70,219,l),
(77,219,l),
(73,224,o),
(67,235,o),
(67,250,cs),
(67,277,o),
(88,293,o),
(125,293,cs),
(161,293,o),
(181,277,o),
(181,248,cs),
(181,234,o),
(177,223,o),
(171,219,c),
(218,219,l),
(218,185,l),
(75,185,l),
(182,146,ls),
(207,137,o),
(218,119,o),
(218,88,c),
(195,88,l),
(195,102,o),
(190,111,o),
(179,113,c),
(84,76,l),
(90,76,l),
(90,59,l),
(146,59,ls),
(152,59,o),
(155,63,o),
(155,71,cs),
(155,82,l),
(178,82,l),
(178,62,ls),
(178,39,o),
(168,25,o),
(154,25,cs),
(90,25,l)
);
},
{
closed = 1;
nodes = (
(31,412,l),
(31,445,l),
(79,445,l),
(71,453,o),
(67,464,o),
(67,474,cs),
(67,502,o),
(86,518,o),
(121,518,cs),
(159,518,o),
(180,499,o),
(180,464,cs),
(180,442,o),
(174,423,o),
(164,412,c)
);
},
{
closed = 1;
nodes = (
(150,445,l),
(155,451,o),
(159,458,o),
(159,463,cs),
(159,478,o),
(146,486,o),
(123,486,cs),
(101,486,o),
(89,478,o),
(89,465,cs),
(89,456,o),
(94,445,o),
(105,445,cs)
);
},
{
closed = 1;
nodes = (
(90,522,o),
(67,544,o),
(67,576,cs),
(67,610,o),
(90,633,o),
(123,633,cs),
(156,633,o),
(180,610,o),
(180,576,cs),
(180,544,o),
(156,522,o),
(123,522,cs)
);
},
{
closed = 1;
nodes = (
(146,555,o),
(159,562,o),
(159,576,cs),
(159,591,o),
(146,600,o),
(123,600,cs),
(101,600,o),
(89,591,o),
(89,576,cs),
(89,562,o),
(101,555,o),
(123,555,cs)
);
},
{
closed = 1;
nodes = (
(153,217,l),
(157,222,o),
(159,228,o),
(159,237,cs),
(159,251,o),
(146,260,o),
(125,260,cs),
(101,260,o),
(88,250,o),
(88,235,cs),
(88,227,o),
(92,221,o),
(96,217,c)
);
},
{
closed = 1;
nodes = (
(176,642,l),
(31,642,l),
(31,674,l),
(176,674,l)
);
},
{
closed = 1;
nodes = (
(90,294,o),
(67,317,o),
(67,350,cs),
(67,383,o),
(90,406,o),
(123,406,cs),
(156,406,o),
(180,383,o),
(180,350,cs),
(180,317,o),
(156,294,o),
(123,294,cs)
);
},
{
closed = 1;
nodes = (
(86,682,o),
(67,698,o),
(67,727,cs),
(67,741,o),
(71,752,o),
(79,756,c),
(31,756,l),
(31,789,l),
(176,789,l),
(176,756,l),
(170,756,l),
(176,751,o),
(180,740,o),
(180,725,cs),
(180,698,o),
(159,682,o),
(123,682,cs)
);
},
{
closed = 1;
nodes = (
(146,327,o),
(159,335,o),
(159,350,cs),
(159,364,o),
(146,373,o),
(123,373,cs),
(101,373,o),
(89,364,o),
(89,350,cs),
(89,335,o),
(101,327,o),
(123,327,cs)
);
},
{
closed = 1;
nodes = (
(146,715,o),
(159,723,o),
(159,738,cs),
(159,747,o),
(156,753,o),
(152,756,c),
(97,756,l),
(92,752,o),
(88,746,o),
(88,737,cs),
(88,723,o),
(101,715,o),
(123,715,cs)
);
}
);
width = 250;
},
{
associatedMasterId = m01;
hints = (
{
horizontal = 1;
place = (0,198);
type = Stem;
},
{
horizontal = 1;
place = (373,20);
type = Stem;
},
{
horizontal = 1;
place = (429,26);
type = Stem;
},
{
horizontal = 1;
place = (623,77);
type = Stem;
},
{
place = (0,62);
type = Stem;
},
{
place = (113,46);
type = Stem;
},
{
place = (283,70);
type = Stem;
},
{
place = (405,13);
type = Stem;
},
{
place = (468,13);
type = Stem;
},
{
place = (530,71);
type = Stem;
},
{
place = (647,53);
type = Stem;
},
{
horizontal = 1;
place = (490,101);
type = Stem;
},
{
place = (0,37);
type = Stem;
},
{
horizontal = 1;
place = (662,38);
type = Stem;
},
{
place = (114,196);
type = Stem;
},
{
horizontal = 1;
place = (429,21);
type = Stem;
},
{
place = (362,64);
type = Stem;
},
{
place = (477,124);
type = Stem;
},
{
place = (362,56);
type = Stem;
},
{
horizontal = 1;
place = (428,27);
type = Stem;
},
{
place = (141,169);
type = Stem;
},
{
horizontal = 1;
place = (490,210);
type = Stem;
},
{
place = (150,9);
type = Stem;
},
{
horizontal = 1;
place = (231,108);
type = Stem;
},
{
place = (227,83);
type = Stem;
},
{
place = (0,177);
type = Stem;
},
{
place = (113,119);
type = Stem;
},
{
place = (283,135);
type = Stem;
},
{
horizontal = 1;
place = (484,110);
type = Stem;
},
{
place = (360,58);
type = Stem;
},
{
place = (360,66);
type = Stem;
},
{
horizontal = 1;
place = (0,204);
type = Stem;
},
{
horizontal = 1;
place = (429,23);
type = Stem;
},
{
horizontal = 1;
place = (627,73);
type = Stem;
},
{
place = (360,119);
type = Stem;
},
{
place = (653,47);
type = Stem;
},
{
place = (468,128);
type = Stem;
},
{
horizontal = 1;
place = (485,108);
type = Stem;
},
{
place = (530,170);
type = Stem;
},
{
horizontal = 1;
place = (231,109);
type = Stem;
},
{
place = (532,168);
type = Stem;
}
);
layerId = "E0989092-07D5-4BE4-A82B-4E03160A36DB";
name = Black;
shapes = (
{
closed = 1;
nodes = (
(700,0,l),
(700,700,l),
(0,700,l),
(0,0,l)
);
},
{
closed = 1;
nodes = (
(164,231,o),
(177,251,o),
(177,286,cs),
(177,320,o),
(165,339,o),
(144,339,cs),
(130,339,o),
(119,330,o),
(113,315,c),
(113,245,l),
(123,236,o),
(133,231,o),
(141,231,cs)
);
},
{
closed = 1;
nodes = (
(108,198,o),
(79,207,o),
(62,223,c),
(62,429,l),
(113,429,l),
(113,355,l),
(126,367,o),
(142,373,o),
(158,373,cs),
(202,373,o),
(227,343,o),
(227,289,cs),
(227,231,o),
(197,198,o),
(142,198,cs)
);
},
{
closed = 1;
nodes = (
(267,198,o),
(232,235,o),
(232,287,cs),
(232,337,o),
(267,373,o),
(317,373,cs),
(369,373,o),
(405,337,o),
(405,287,cs),
(405,235,o),
(369,198,o),
(317,198,cs)
);
},
{
closed = 1;
nodes = (
(340,231,o),
(353,251,o),
(353,287,cs),
(353,320,o),
(340,339,o),
(317,339,cs),
(295,339,o),
(283,320,o),
(283,287,cs),
(283,251,o),
(295,231,o),
(317,231,cs)
);
},
{
closed = 1;
nodes = (
(418,429,l),
(468,429,l),
(468,204,l),
(418,204,l)
);
},
{
closed = 1;
nodes = (
(159,428,l),
(181,428,o),
(195,437,o),
(198,453,c),
(141,601,l),
(141,591,l),
(114,591,l),
(114,505,ls),
(114,496,o),
(121,490,o),
(133,490,cs),
(150,490,l),
(150,455,l),
(119,455,ls),
(84,455,o),
(62,470,o),
(62,493,cs),
(62,591,l),
(37,591,l),
(37,623,l),
(62,623,l),
(72,662,l),
(114,662,l),
(114,623,l),
(188,623,l),
(226,511,l),
(257,623,l),
(362,623,l),
(362,611,l),
(370,618,o),
(387,628,o),
(410,628,cs),
(453,628,o),
(477,594,o),
(477,537,cs),
(477,481,o),
(452,450,o),
(407,450,cs),
(385,450,o),
(369,457,o),
(362,466,c),
(362,393,l),
(310,393,l),
(310,615,l),
(249,449,ls),
(235,410,o),
(208,393,o),
(159,393,c)
);
},
{
closed = 1;
nodes = (
(581,231,o),
(591,235,o),
(596,241,c),
(596,327,l),
(589,334,o),
(580,340,o),
(566,340,cs),
(544,340,o),
(532,321,o),
(532,287,cs),
(532,251,o),
(545,231,o),
(568,231,cs)
);
},
{
closed = 1;
nodes = (
(505,198,o),
(481,230,o),
(481,287,cs),
(481,343,o),
(506,374,o),
(551,374,cs),
(573,374,o),
(589,367,o),
(596,355,c),
(596,429,l),
(647,429,l),
(647,204,l),
(596,204,l),
(596,214,l),
(588,204,o),
(571,198,o),
(548,198,cs)
);
},
{
closed = 1;
nodes = (
(412,484,o),
(426,504,o),
(426,538,cs),
(426,574,o),
(411,594,o),
(388,594,cs),
(375,594,o),
(365,588,o),
(360,582,c),
(360,494,l),
(367,487,o),
(376,484,o),
(390,484,cs)
);
},
{
closed = 1;
nodes = (
(514,452,o),
(479,489,o),
(479,541,cs),
(479,591,o),
(514,627,o),
(565,627,cs),
(617,627,o),
(653,591,o),
(653,541,cs),
(653,489,o),
(617,452,o),
(565,452,cs)
);
},
{
closed = 1;
nodes = (
(588,485,o),
(601,505,o),
(601,541,cs),
(601,574,o),
(588,593,o),
(565,593,cs),
(542,593,o),
(530,574,o),
(530,541,cs),
(530,505,o),
(542,485,o),
(565,485,cs)
);
}
);
width = 700;
},
{
associatedMasterId = m01;
hints = (
{
horizontal = 1;
place = (0,198);
type = Stem;
},
{
horizontal = 1;
place = (373,20);
type = Stem;
},
{
horizontal = 1;
place = (429,26);
type = Stem;
},
{
horizontal = 1;
place = (623,77);
type = Stem;
},
{
place = (0,62);
type = Stem;
},
{
place = (113,46);
type = Stem;
},
{
place = (283,70);
type = Stem;
},
{
place = (405,13);
type = Stem;
},
{
place = (468,13);
type = Stem;
},
{
place = (530,71);
type = Stem;
},
{
place = (647,53);
type = Stem;
},
{
horizontal = 1;
place = (490,101);
type = Stem;
},
{
place = (0,37);
type = Stem;
},
{
horizontal = 1;
place = (662,38);
type = Stem;
},
{
place = (114,196);
type = Stem;
},
{
horizontal = 1;
place = (429,21);
type = Stem;
},
{
place = (362,64);
type = Stem;
},
{
place = (477,124);
type = Stem;
},
{
place = (362,56);
type = Stem;
},
{
horizontal = 1;
place = (428,27);
type = Stem;
},
{
place = (141,169);
type = Stem;
},
{
horizontal = 1;
place = (490,210);
type = Stem;
},
{
place = (150,9);
type = Stem;
},
{
horizontal = 1;
place = (231,108);
type = Stem;
},
{
place = (227,83);
type = Stem;
},
{
place = (0,177);
type = Stem;
},
{
place = (113,119);
type = Stem;
},
{
place = (283,135);
type = Stem;
},
{
horizontal = 1;
place = (484,110);
type = Stem;
},
{
place = (360,58);
type = Stem;
},
{
place = (360,66);
type = Stem;
},
{
horizontal = 1;
place = (0,204);
type = Stem;
},
{
horizontal = 1;
place = (429,23);
type = Stem;
},
{
horizontal = 1;
place = (627,73);
type = Stem;
},
{
place = (360,119);
type = Stem;
},
{
place = (653,47);
type = Stem;
},
{
place = (468,128);
type = Stem;
},
{
horizontal = 1;
place = (485,108);
type = Stem;
},
{
place = (530,170);
type = Stem;
},
{
horizontal = 1;
place = (231,109);
type = Stem;
},
{
place = (532,168);
type = Stem;
}
);
layerId = "EF5BBDAF-B9D3-43BD-98C2-FA6AF6A4CBD7";
name = BlackCondensed;
shapes = (
{
closed = 1;
nodes = (
(237,0,l),
(237,809,l),
(12,809,l),
(12,0,l)
);
},
{
closed = 1;
nodes = (
(90,9,l),
(70,9,l),
(70,25,l),
(45,32,l),
(45,59,l),
(70,59,l),
(70,107,l),
(142,131,l),
(70,151,l),
(70,219,l),
(77,219,l),
(73,224,o),
(67,235,o),
(67,250,cs),
(67,277,o),
(88,293,o),
(125,293,cs),
(161,293,o),
(181,277,o),
(181,248,cs),
(181,234,o),
(177,223,o),
(171,219,c),
(218,219,l),
(218,185,l),
(75,185,l),
(182,146,ls),
(207,137,o),
(218,119,o),
(218,88,c),
(195,88,l),
(195,102,o),
(190,111,o),
(179,113,c),
(84,76,l),
(90,76,l),
(90,59,l),
(146,59,ls),
(152,59,o),
(155,63,o),
(155,71,cs),
(155,82,l),
(178,82,l),
(178,62,ls),
(178,39,o),
(168,25,o),
(154,25,cs),
(90,25,l)
);
},
{
closed = 1;
nodes = (
(31,412,l),
(31,445,l),
(79,445,l),
(71,453,o),
(67,464,o),
(67,474,cs),
(67,502,o),
(86,518,o),
(121,518,cs),
(159,518,o),
(180,499,o),
(180,464,cs),
(180,442,o),
(174,423,o),
(164,412,c)
);
},
{
closed = 1;
nodes = (
(150,445,l),
(155,451,o),
(159,458,o),
(159,463,cs),
(159,478,o),
(146,486,o),
(123,486,cs),
(101,486,o),
(89,478,o),
(89,465,cs),
(89,456,o),
(94,445,o),
(105,445,cs)
);
},
{
closed = 1;
nodes = (
(90,522,o),
(67,544,o),
(67,576,cs),
(67,610,o),
(90,633,o),
(123,633,cs),
(156,633,o),
(180,610,o),
(180,576,cs),
(180,544,o),
(156,522,o),
(123,522,cs)
);
},
{
closed = 1;
nodes = (
(146,555,o),
(159,562,o),
(159,576,cs),
(159,591,o),
(146,600,o),
(123,600,cs),
(101,600,o),
(89,591,o),
(89,576,cs),
(89,562,o),
(101,555,o),
(123,555,cs)
);
},
{
closed = 1;
nodes = (
(153,217,l),
(157,222,o),
(159,228,o),
(159,237,cs),
(159,251,o),
(146,260,o),
(125,260,cs),
(101,260,o),
(88,250,o),
(88,235,cs),
(88,227,o),
(92,221,o),
(96,217,c)
);
},
{
closed = 1;
nodes = (
(176,642,l),
(31,642,l),
(31,674,l),
(176,674,l)
);
},
{
closed = 1;
nodes = (
(90,294,o),
(67,317,o),
(67,350,cs),
(67,383,o),
(90,406,o),
(123,406,cs),
(156,406,o),
(180,383,o),
(180,350,cs),
(180,317,o),
(156,294,o),
(123,294,cs)
);
},
{
closed = 1;
nodes = (
(86,682,o),
(67,698,o),
(67,727,cs),
(67,741,o),
(71,752,o),
(79,756,c),
(31,756,l),
(31,789,l),
(176,789,l),
(176,756,l),
(170,756,l),
(176,751,o),
(180,740,o),
(180,725,cs),
(180,698,o),
(159,682,o),
(123,682,cs)
);
},
{
closed = 1;
nodes = (
(146,327,o),
(159,335,o),
(159,350,cs),
(159,364,o),
(146,373,o),
(123,373,cs),
(101,373,o),
(89,364,o),
(89,350,cs),
(89,335,o),
(101,327,o),
(123,327,cs)
);
},
{
closed = 1;
nodes = (
(146,715,o),
(159,723,o),
(159,738,cs),
(159,747,o),
(156,753,o),
(152,756,c),
(97,756,l),
(92,752,o),
(88,746,o),
(88,737,cs),
(88,723,o),
(101,715,o),
(123,715,cs)
);
}
);
width = 250;
},
{
associatedMasterId = m01;
hints = (
{
horizontal = 1;
place = (102,242);
type = Stem;
},
{
horizontal = 1;
place = (366,116);
type = Stem;
},
{
horizontal = 1;
place = (406,120);
type = Stem;
},
{
horizontal = 1;
place = (544,156);
type = Stem;
},
{
place = (102,146);
type = Stem;
},
{
place = (182,134);
type = Stem;
},
{
place = (302,151);
type = Stem;
},
{
place = (389,111);
type = Stem;
},
{
place = (434,111);
type = Stem;
},
{
place = (478,152);
type = Stem;
},
{
place = (561,139);
type = Stem;
},
{
horizontal = 1;
place = (449,173);
type = Stem;
},
{
place = (102,128);
type = Stem;
},
{
horizontal = 1;
place = (572,128);
type = Stem;
},
{
place = (182,241);
type = Stem;
},
{
horizontal = 1;
place = (406,116);
type = Stem;
},
{
place = (359,147);
type = Stem;
},
{
place = (440,190);
type = Stem;
},
{
place = (359,141);
type = Stem;
},
{
horizontal = 1;
place = (405,121);
type = Stem;
},
{
place = (202,221);
type = Stem;
},
{
horizontal = 1;
place = (449,251);
type = Stem;
},
{
place = (208,108);
type = Stem;
},
{
horizontal = 1;
place = (266,178);
type = Stem;
},
{
place = (263,160);
type = Stem;
},
{
place = (102,227);
type = Stem;
},
{
place = (182,186);
type = Stem;
},
{
place = (302,197);
type = Stem;
},
{
horizontal = 1;
place = (445,180);
type = Stem;
},
{
place = (357,143);
type = Stem;
},
{
place = (357,148);
type = Stem;
},
{
horizontal = 1;
place = (102,246);
type = Stem;
},
{
horizontal = 1;
place = (406,118);
type = Stem;
},
{
horizontal = 1;
place = (547,153);
type = Stem;
},
{
place = (357,186);
type = Stem;
},
{
place = (565,135);
type = Stem;
},
{
place = (434,192);
type = Stem;
},
{
horizontal = 1;
place = (446,178);
type = Stem;
},
{
place = (478,222);
type = Stem;
},
{
horizontal = 1;
place = (266,179);
type = Stem;
},
{
place = (479,221);
type = Stem;
}
);
layerId = m003;
name = BlackCondensed;
shapes = (
{
closed = 1;
nodes = (
(599,0,l),
(599,700,l),
(102,700,l),
(102,0,l)
);
},
{
closed = 1;
nodes = (
(218,231,o),
(227,251,o),
(227,286,cs),
(227,320,o),
(219,339,o),
(204,339,cs),
(194,339,o),
(186,330,o),
(182,315,c),
(182,245,l),
(189,236,o),
(196,231,o),
(202,231,cs)
);
},
{
closed = 1;
nodes = (
(178,198,o),
(158,207,o),
(146,223,c),
(146,429,l),
(182,429,l),
(182,355,l),
(191,367,o),
(202,373,o),
(214,373,cs),
(245,373,o),
(263,343,o),
(263,289,cs),
(263,231,o),
(241,198,o),
(202,198,cs)
);
},
{
closed = 1;
nodes = (
(291,198,o),
(266,235,o),
(266,287,cs),
(266,337,o),
(291,373,o),
(327,373,cs),
(363,373,o),
(389,337,o),
(389,287,cs),
(389,235,o),
(363,198,o),
(327,198,cs)
);
},
{
closed = 1;
nodes = (
(343,231,o),
(352,251,o),
(352,287,cs),
(352,320,o),
(343,339,o),
(327,339,cs),
(311,339,o),
(302,320,o),
(302,287,cs),
(302,251,o),
(311,231,o),
(327,231,cs)
);
},
{
closed = 1;
nodes = (
(398,429,l),
(434,429,l),
(434,204,l),
(398,204,l)
);
},
{
closed = 1;
nodes = (
(214,428,l),
(230,428,o),
(240,437,o),
(242,453,c),
(202,601,l),
(202,591,l),
(182,591,l),
(182,505,ls),
(182,496,o),
(187,490,o),
(196,490,cs),
(208,490,l),
(208,455,l),
(186,455,ls),
(161,455,o),
(146,470,o),
(146,493,cs),
(146,591,l),
(128,591,l),
(128,623,l),
(146,623,l),
(153,662,l),
(182,662,l),
(182,623,l),
(235,623,l),
(262,511,l),
(284,623,l),
(359,623,l),
(359,611,l),
(364,618,o),
(376,628,o),
(393,628,cs),
(423,628,o),
(440,594,o),
(440,537,cs),
(440,481,o),
(422,450,o),
(390,450,cs),
(375,450,o),
(363,457,o),
(359,466,c),
(359,393,l),
(322,393,l),
(322,615,l),
(278,449,ls),
(268,410,o),
(249,393,o),
(214,393,c)
);
},
{
closed = 1;
nodes = (
(514,231,o),
(521,235,o),
(525,241,c),
(525,327,l),
(520,334,o),
(513,340,o),
(503,340,cs),
(488,340,o),
(479,321,o),
(479,287,cs),
(479,251,o),
(488,231,o),
(505,231,cs)
);
},
{
closed = 1;
nodes = (
(460,198,o),
(443,230,o),
(443,287,cs),
(443,343,o),
(461,374,o),
(493,374,cs),
(508,374,o),
(520,367,o),
(525,355,c),
(525,429,l),
(561,429,l),
(561,204,l),
(525,204,l),
(525,214,l),
(519,204,o),
(507,198,o),
(491,198,cs)
);
},
{
closed = 1;
nodes = (
(394,484,o),
(404,504,o),
(404,538,cs),
(404,574,o),
(393,594,o),
(377,594,cs),
(368,594,o),
(361,588,o),
(357,582,c),
(357,494,l),
(362,487,o),
(368,484,o),
(378,484,cs)
);
},
{
closed = 1;
nodes = (
(466,452,o),
(442,489,o),
(442,541,cs),
(442,591,o),
(466,627,o),
(503,627,cs),
(540,627,o),
(565,591,o),
(565,541,cs),
(565,489,o),
(540,452,o),
(503,452,cs)
);
},
{
closed = 1;
nodes = (
(519,485,o),
(528,505,o),
(528,541,cs),
(528,574,o),
(519,593,o),
(503,593,cs),
(486,593,o),
(478,574,o),
(478,541,cs),
(478,505,o),
(486,485,o),
(503,485,cs)
);
}
);
width = 700;
}
);
},
{
color = 4;
glyphname = "leftanglebracket-math";
layers = (
{
layerId = m01;
shapes = (
{
closed = 1;
nodes = (
(180,292,l),
(421,-96,l),
(421,-20,l),
(227,292,l),
(421,597,l),
(421,681,l)
);
}
);
width = 600;
},
{
associatedMasterId = m01;
layerId = "E0989092-07D5-4BE4-A82B-4E03160A36DB";
name = Black;
shapes = (
{
closed = 1;
nodes = (
(180,292,l),
(421,-96,l),
(421,-20,l),
(227,292,l),
(421,597,l),
(421,681,l)
);
}
);
width = 600;
},
{
associatedMasterId = m01;
layerId = m003;
name = BlackCondensed;
shapes = (
{
closed = 1;
nodes = (
(215,292,l),
(386,-96,l),
(386,-20,l),
(248,292,l),
(386,597,l),
(386,681,l)
);
}
);
width = 600;
}
);
unicode = 10216;
},
{
color = 4;
glyphname = "rightanglebracket-math";
layers = (
{
layerId = m01;
shapes = (
{
closed = 1;
nodes = (
(180,597,l),
(374,292,l),
(180,-20,l),
(180,-96,l),
(421,292,l),
(180,681,l)
);
}
);
width = 600;
},
{
associatedMasterId = m01;
layerId = "E0989092-07D5-4BE4-A82B-4E03160A36DB";
name = Black;
shapes = (
{
closed = 1;
nodes = (
(180,597,l),
(374,292,l),
(180,-20,l),
(180,-96,l),
(421,292,l),
(180,681,l)
);
}
);
width = 600;
},
{
associatedMasterId = m01;
layerId = m003;
name = BlackCondensed;
shapes = (
{
closed = 1;
nodes = (
(215,597,l),
(353,292,l),
(215,-20,l),
(215,-96,l),
(386,292,l),
(215,681,l)
);
}
);
width = 600;
}
);
unicode = 10217;
},
{
color = 4;
glyphname = hyphen;
layers = (
{
layerId = m01;
shapes = (
{
closed = 1;
nodes = (
(375,277,l),
(375,319,l),
(55,319,l),
(55,277,l)
);
}
);
width = 430;
},
{
associatedMasterId = m01;
hints = (
{
horizontal = 1;
place = (247,82);
type = Stem;
},
{
place = (38,320);
type = Stem;
}
);
layerId = "E0989092-07D5-4BE4-A82B-4E03160A36DB";
name = Black;
shapes = (
{
closed = 1;
nodes = (
(375,247,l),
(375,373,l),
(55,373,l),
(55,247,l)
);
}
);
width = 430;
},
{
associatedMasterId = m01;
hints = (
{
horizontal = 1;
place = (238,121);
type = Stem;
},
{
place = (89,290);
type = Stem;
}
);
layerId = m003;
name = BlackCondensed;
shapes = (
{
closed = 1;
nodes = (
(329,247,l),
(329,373,l),
(101,373,l),
(101,247,l)
);
}
);
width = 430;
}
);
unicode = 45;
},
{
color = 4;
glyphname = endash;
layers = (
{
layerId = m01;
shapes = (
{
closed = 1;
nodes = (
(535,327,l),
(535,369,l),
(65,369,l),
(65,327,l)
);
}
);
width = 600;
},
{
associatedMasterId = m01;
hints = (
{
horizontal = 1;
place = (247,82);
type = Stem;
},
{
place = (65,470);
type = Stem;
}
);
layerId = "E0989092-07D5-4BE4-A82B-4E03160A36DB";
name = Black;
shapes = (
{
closed = 1;
nodes = (
(535,257,l),
(535,409,l),
(65,409,l),
(65,257,l)
);
}
);
width = 600;
},
{
associatedMasterId = m01;
hints = (
{
horizontal = 1;
place = (262,145);
type = Stem;
},
{
place = (133,421);
type = Stem;
}
);
layerId = m003;
name = BlackCondensed;
shapes = (
{
closed = 1;
nodes = (
(467,257,l),
(467,409,l),
(133,409,l),
(133,257,l)
);
}
);
width = 600;
}
);
unicode = 8211;
},
{
color = 4;
glyphname = emdash;
layers = (
{
layerId = m01;
shapes = (
{
closed = 1;
nodes = (
(535,275,l),
(535,317,l),
(0,317,l),
(0,275,l)
);
}
);
width = 535;
},
{
associatedMasterId = m01;
hints = (
{
horizontal = 1;
place = (247,82);
type = Stem;
},
{
place = (0,535);
type = Stem;
}
);
layerId = "E0989092-07D5-4BE4-A82B-4E03160A36DB";
name = Black;
shapes = (
{
closed = 1;
nodes = (
(535,262,l),
(535,344,l),
(0,344,l),
(0,262,l)
);
}
);
width = 535;
},
{
associatedMasterId = m01;
hints = (
{
horizontal = 1;
place = (253,136);
type = Stem;
},
{
place = (78,457);
type = Stem;
}
);
layerId = m003;
name = BlackCondensed;
shapes = (
{
closed = 1;
nodes = (
(457,262,l),
(457,344,l),
(78,344,l),
(78,262,l)
);
}
);
width = 535;
}
);
unicode = 8212;
},
{
color = 4;
glyphname = underscore;
layers = (
{
layerId = m01;
shapes = (
{
closed = 1;
nodes = (
(600,-200,l),
(600,-175,l),
(0,-175,l),
(0,-200,l)
);
}
);
width = 600;
},
{
associatedMasterId = m01;
hints = (
{
horizontal = 1;
place = (-163,82);
type = Stem;
},
{
place = (0,600);
type = Stem;
}
);
layerId = "E0989092-07D5-4BE4-A82B-4E03160A36DB";
name = Black;
shapes = (
{
closed = 1;
nodes = (
(600,-203,l),
(600,-143,l),
(0,-143,l),
(0,-203,l)
);
}
);
width = 600;
},
{
associatedMasterId = m01;
hints = (
{
horizontal = 1;
place = (-29,145);
type = Stem;
},
{
place = (87,513);
type = Stem;
}
);
layerId = m003;
name = BlackCondensed;
shapes = (
{
closed = 1;
nodes = (
(513,-203,l),
(513,-143,l),
(87,-143,l),
(87,-203,l)
);
}
);
width = 600;
}
);
unicode = 95;
},
{
color = 4;
glyphname = parenleft;
layers = (
{
layerId = m01;
shapes = (
{
closed = 1;
nodes = (
(258,-142,l),
(190,-36,o),
(135,125,o),
(135,275,cs),
(135,428,o),
(191,593,o),
(261,704,c),
(235,726,l),
(155,597,o),
(94,422,o),
(94,274,cs),
(94,129,o),
(152,-37,o),
(229,-158,c)
);
}
);
width = 360;
},
{
associatedMasterId = m01;
hints = (
{
horizontal = 1;
place = (699,-20);
target = down;
type = TopGhost;
},
{
place = (101,101);
type = Stem;
}
);
layerId = "E0989092-07D5-4BE4-A82B-4E03160A36DB";
name = Black;
shapes = (
{
closed = 1;
nodes = (
(283,-139,l),
(223,-48,o),
(156,120,o),
(156,275,cs),
(156,433,o),
(224,603,o),
(283,699,c),
(188,744,l),
(77,565,o),
(51,389,o),
(51,274,cs),
(51,164,o),
(72,-2,o),
(188,-171,c)
);
}
);
width = 280;
},
{
associatedMasterId = m01;
hints = (
{
horizontal = 1;
place = (545,-20);
target = down;
type = TopGhost;
},
{
place = (120,120);
type = Stem;
}
);
layerId = m003;
name = BlackCondensed;
shapes = (
{
closed = 1;
nodes = (
(249,-139,l),
(207,-48,o),
(159,120,o),
(159,275,cs),
(159,433,o),
(207,603,o),
(249,699,c),
(182,744,l),
(103,565,o),
(85,389,o),
(85,274,cs),
(85,164,o),
(100,-2,o),
(182,-171,c)
);
}
);
width = 280;
}
);
unicode = 40;
},
{
color = 4;
glyphname = parenright;
layers = (
{
layerId = m01;
shapes = (
{
closed = 1;
nodes = (
(208,-37,o),
(266,129,o),
(266,274,cs),
(266,422,o),
(205,597,o),
(125,726,c),
(100,704,l),
(170,593,o),
(227,428,o),
(227,275,cs),
(227,125,o),
(171,-36,o),
(103,-142,c),
(131,-158,l)
);
}
);
width = 360;
},
{
associatedMasterId = m01;
hints = (
{
horizontal = 1;
place = (699,-20);
target = down;
type = TopGhost;
},
{
place = (157,119);
type = Stem;
}
);
layerId = "E0989092-07D5-4BE4-A82B-4E03160A36DB";
name = Black;
shapes = (
{
closed = 1;
nodes = (
(198,-2,o),
(219,164,o),
(219,274,cs),
(219,389,o),
(193,565,o),
(82,744,c),
(-13,699,l),
(46,603,o),
(114,433,o),
(114,275,cs),
(114,120,o),
(47,-48,o),
(-13,-139,c),
(82,-171,l)
);
}
);
width = 280;
},
{
associatedMasterId = m01;
hints = (
{
horizontal = 1;
place = (526,-20);
target = down;
type = TopGhost;
},
{
place = (141,114);
type = Stem;
}
);
layerId = m003;
name = BlackCondensed;
shapes = (
{
closed = 1;
nodes = (
(170,-2,o),
(185,164,o),
(185,274,cs),
(185,389,o),
(167,565,o),
(88,744,c),
(21,699,l),
(63,603,o),
(111,433,o),
(111,275,cs),
(111,120,o),
(63,-48,o),
(21,-139,c),
(88,-171,l)
);
}
);
width = 280;
}
);
unicode = 41;
},
{
color = 4;
glyphname = braceleft;
layers = (
{
layerId = m01;
shapes = (
{
closed = 1;
nodes = (
(304,-92,l),
(248,-92,o),
(208,-61,o),
(208,-16,cs),
(208,173,ls),
(208,212,o),
(165,256,o),
(132,279,c),
(165,302,o),
(208,346,o),
(208,385,cs),
(208,574,ls),
(208,619,o),
(248,650,o),
(304,650,c),
(304,702,l),
(211,702,o),
(165,649,o),
(165,574,cs),
(165,385,ls),
(165,333,o),
(101,297,o),
(39,297,c),
(39,261,l),
(101,261,o),
(165,225,o),
(165,173,cs),
(165,-16,ls),
(165,-91,o),
(211,-144,o),
(304,-144,c)
);
}
);
width = 343;
},
{
associatedMasterId = m01;
hints = (
{
horizontal = 1;
place = (-146,61);
type = Stem;
},
{
horizontal = 1;
place = (249,60);
type = Stem;
},
{
horizontal = 1;
place = (643,61);
type = Stem;
},
{
place = (250,150);
type = Stem;
}
);
layerId = "E0989092-07D5-4BE4-A82B-4E03160A36DB";
name = Black;
shapes = (
{
closed = 1;
nodes = (
(426,-95,l),
(340,-95,o),
(280,-56,o),
(280,-16,cs),
(280,173,ls),
(280,207,o),
(250,251,o),
(209,279,c),
(250,307,o),
(280,351,o),
(280,385,cs),
(280,574,ls),
(280,614,o),
(340,653,o),
(426,653,c),
(426,704,l),
(253,704,o),
(130,681,o),
(130,604,cs),
(130,385,ls),
(130,341,o),
(86,309,o),
(24,309,c),
(24,249,l),
(86,249,o),
(130,217,o),
(130,173,cs),
(130,-46,ls),
(130,-123,o),
(253,-146,o),
(426,-146,c)
);
}
);
width = 380;
},
{
associatedMasterId = m01;
hints = (
{
horizontal = 1;
place = (-38,109);
type = Stem;
},
{
horizontal = 1;
place = (242,108);
type = Stem;
},
{
horizontal = 1;
place = (522,109);
type = Stem;
},
{
place = (243,172);
type = Stem;
}
);
layerId = m003;
name = BlackCondensed;
shapes = (
{
closed = 1;
nodes = (
(368,-95,l),
(307,-95,o),
(264,-56,o),
(264,-16,cs),
(264,173,ls),
(264,207,o),
(243,251,o),
(214,279,c),
(243,307,o),
(264,351,o),
(264,385,cs),
(264,574,ls),
(264,614,o),
(307,653,o),
(368,653,c),
(368,704,l),
(245,704,o),
(168,681,o),
(168,604,cs),
(168,385,ls),
(168,341,o),
(126,309,o),
(82,309,c),
(82,249,l),
(126,249,o),
(168,217,o),
(168,173,cs),
(168,-46,ls),
(168,-123,o),
(245,-146,o),
(368,-146,c)
);
}
);
width = 380;
}
);
unicode = 123;
},
{
color = 4;
glyphname = braceright;
layers = (
{
layerId = m01;
shapes = (
{
closed = 1;
nodes = (
(132,-144,o),
(178,-91,o),
(178,-16,cs),
(178,173,ls),
(178,225,o),
(242,261,o),
(304,261,c),
(304,297,l),
(242,297,o),
(178,333,o),
(178,385,cs),
(178,574,ls),
(178,649,o),
(132,702,o),
(39,702,c),
(39,650,l),
(95,650,o),
(135,619,o),
(135,574,cs),
(135,385,ls),
(135,346,o),
(178,302,o),
(211,279,c),
(178,256,o),
(135,212,o),
(135,173,cs),
(135,-16,ls),
(135,-61,o),
(95,-92,o),
(39,-92,c),
(39,-144,l)
);
}
);
width = 343;
},
{
associatedMasterId = m01;
hints = (
{
horizontal = 1;
place = (-146,61);
type = Stem;
},
{
horizontal = 1;
place = (249,60);
type = Stem;
},
{
horizontal = 1;
place = (643,61);
type = Stem;
},
{
place = (283,150);
type = Stem;
}
);
layerId = "E0989092-07D5-4BE4-A82B-4E03160A36DB";
name = Black;
shapes = (
{
closed = 1;
nodes = (
(137,-146,o),
(260,-123,o),
(260,-46,cs),
(260,173,ls),
(260,217,o),
(304,249,o),
(366,249,c),
(366,309,l),
(304,309,o),
(260,341,o),
(260,385,cs),
(260,604,ls),
(260,681,o),
(137,704,o),
(-36,704,c),
(-36,653,l),
(50,653,o),
(110,614,o),
(110,574,cs),
(110,385,ls),
(110,351,o),
(140,307,o),
(181,279,c),
(140,251,o),
(110,207,o),
(110,173,cs),
(110,-16,ls),
(110,-56,o),
(50,-95,o),
(-36,-95,c),
(-36,-146,l)
);
}
);
width = 380;
},
{
associatedMasterId = m01;
hints = (
{
horizontal = 1;
place = (-56,91);
type = Stem;
},
{
horizontal = 1;
place = (225,90);
type = Stem;
},
{
horizontal = 1;
place = (504,91);
type = Stem;
},
{
place = (249,154);
type = Stem;
}
);
layerId = m003;
name = BlackCondensed;
shapes = (
{
closed = 1;
nodes = (
(145,-146,o),
(222,-123,o),
(222,-46,cs),
(222,173,ls),
(222,217,o),
(264,249,o),
(308,249,c),
(308,309,l),
(264,309,o),
(222,341,o),
(222,385,cs),
(222,604,ls),
(222,681,o),
(145,704,o),
(22,704,c),
(22,653,l),
(83,653,o),
(126,614,o),
(126,574,cs),
(126,385,ls),
(126,351,o),
(147,307,o),
(176,279,c),
(147,251,o),
(126,207,o),
(126,173,cs),
(126,-16,ls),
(126,-56,o),
(83,-95,o),
(22,-95,c),
(22,-146,l)
);
}
);
width = 380;
}
);
unicode = 125;
},
{
color = 4;
glyphname = bracketleft;
layers = (
{
layerId = m01;
shapes = (
{
closed = 1;
nodes = (
(371,-137,l),
(371,-102,l),
(229,-102,l),
(229,660,l),
(371,660,l),
(371,695,l),
(189,695,l),
(189,-137,l)
);
}
);
width = 440;
},
{
associatedMasterId = m01;
hints = (
{
horizontal = 1;
place = (-140,41);
type = Stem;
},
{
horizontal = 1;
place = (657,41);
type = Stem;
},
{
place = (42,147);
type = Stem;
}
);
layerId = "E0989092-07D5-4BE4-A82B-4E03160A36DB";
name = Black;
shapes = (
{
closed = 1;
nodes = (
(371,-140,l),
(371,-99,l),
(229,-99,l),
(229,657,l),
(371,657,l),
(371,698,l),
(82,698,l),
(82,-140,l)
);
}
);
width = 380;
},
{
associatedMasterId = m01;
hints = (
{
horizontal = 1;
place = (-34,95);
type = Stem;
},
{
horizontal = 1;
place = (532,95);
type = Stem;
},
{
place = (96,170);
type = Stem;
}
);
layerId = m003;
name = BlackCondensed;
shapes = (
{
closed = 1;
nodes = (
(329,-140,l),
(329,-99,l),
(228,-99,l),
(228,657,l),
(329,657,l),
(329,698,l),
(124,698,l),
(124,-140,l)
);
}
);
width = 380;
}
);
unicode = 91;
},
{
color = 4;
glyphname = bracketright;
layers = (
{
layerId = m01;
shapes = (
{
closed = 1;
nodes = (
(251,-137,l),
(251,695,l),
(69,695,l),
(69,660,l),
(211,660,l),
(211,-102,l),
(69,-102,l),
(69,-137,l)
);
}
);
width = 440;
},
{
associatedMasterId = m01;
hints = (
{
horizontal = 1;
place = (-140,41);
type = Stem;
},
{
horizontal = 1;
place = (657,41);
type = Stem;
},
{
place = (251,147);
type = Stem;
}
);
layerId = "E0989092-07D5-4BE4-A82B-4E03160A36DB";
name = Black;
shapes = (
{
closed = 1;
nodes = (
(268,-140,l),
(268,698,l),
(-21,698,l),
(-21,657,l),
(121,657,l),
(121,-99,l),
(-21,-99,l),
(-21,-140,l)
);
}
);
width = 380;
},
{
associatedMasterId = m01;
hints = (
{
horizontal = 1;
place = (-64,65);
type = Stem;
},
{
horizontal = 1;
place = (502,65);
type = Stem;
},
{
place = (214,140);
type = Stem;
}
);
layerId = m003;
name = BlackCondensed;
shapes = (
{
closed = 1;
nodes = (
(226,-140,l),
(226,698,l),
(21,698,l),
(21,657,l),
(122,657,l),
(122,-99,l),
(21,-99,l),
(21,-140,l)
);
}
);
width = 380;
}
);
unicode = 93;
},
{
color = 4;
glyphname = quotesinglbase;
layers = (
{
layerId = m01;
shapes = (
{
closed = 1;
nodes = (
(193,4,ls),
(204,18,o),
(212,40,o),
(212,57,cs),
(212,99,o),
(182,128,o),
(141,128,cs),
(99,128,o),
(68,99,o),
(68,57,cs),
(68,18,o),
(96,-12,o),
(135,-14,c),
(135,20,l),
(68,-128,l),
(92,-143,l)
);
}
);
width = 230;
},
{
associatedMasterId = m01;
hints = (
{
horizontal = 1;
place = (-7,21);
target = up;
type = BottomGhost;
},
{
place = (1,230);
type = Stem;
},
{
place = (22,209);
type = Stem;
},
{
horizontal = 1;
place = (-7,21);
target = up;
type = BottomGhost;
},
{
place = (1,230);
type = Stem;
},
{
place = (22,209);
type = Stem;
}
);
layerId = "E0989092-07D5-4BE4-A82B-4E03160A36DB";
name = Black;
shapes = (
{
closed = 1;
nodes = (
(236,10,ls),
(251,32,o),
(263,66,o),
(263,86,cs),
(263,144,o),
(218,190,o),
(161,190,cs),
(102,190,o),
(55,144,o),
(55,86,cs),
(55,32,o),
(98,-13,o),
(152,-16,c),
(152,34,l),
(55,-182,l),
(90,-204,l)
);
}
);
width = 328;
},
{
associatedMasterId = m01;
hints = (
{
horizontal = 1;
place = (41,21);
target = up;
type = BottomGhost;
},
{
place = (47,209);
type = Stem;
},
{
place = (62,195);
type = Stem;
},
{
horizontal = 1;
place = (41,21);
target = up;
type = BottomGhost;
},
{
place = (47,209);
type = Stem;
},
{
place = (62,195);
type = Stem;
}
);
layerId = m003;
name = BlackCondensed;
shapes = (
{
closed = 1;
nodes = (
(214,10,ls),
(224,32,o),
(233,66,o),
(233,86,cs),
(233,144,o),
(201,190,o),
(160,190,cs),
(119,190,o),
(85,144,o),
(85,86,cs),
(85,32,o),
(116,-13,o),
(154,-16,c),
(154,34,l),
(85,-182,l),
(110,-204,l)
);
}
);
width = 328;
}
);
unicode = 8218;
},
{
color = 4;
glyphname = quotedblbase;
layers = (
{
layerId = m01;
shapes = (
{
closed = 1;
nodes = (
(147,4,ls),
(157,18,o),
(166,40,o),
(166,57,cs),
(166,99,o),
(136,128,o),
(95,128,cs),
(53,128,o),
(22,99,o),
(22,57,cs),
(22,18,o),
(50,-12,o),
(89,-14,c),
(89,20,l),
(22,-128,l),
(46,-143,l)
);
},
{
closed = 1;
nodes = (
(362,4,ls),
(373,18,o),
(381,40,o),
(381,57,cs),
(381,99,o),
(352,128,o),
(310,128,cs),
(268,128,o),
(237,99,o),
(237,57,cs),
(237,18,o),
(266,-12,o),
(304,-14,c),
(304,20,l),
(237,-128,l),
(261,-143,l)
);
}
);
width = 383;
},
{
associatedMasterId = m01;
hints = (
{
horizontal = 1;
place = (-7,21);
target = up;
type = BottomGhost;
},
{
place = (41,496);
type = Stem;
},
{
place = (62,209);
type = Stem;
},
{
horizontal = 1;
place = (-15,21);
target = up;
type = BottomGhost;
},
{
place = (328,209);
type = Stem;
},
{
horizontal = 1;
place = (-7,21);
target = up;
type = BottomGhost;
},
{
place = (-1,230);
type = Stem;
},
{
place = (20,209);
type = Stem;
},
{
horizontal = 1;
place = (-7,21);
target = up;
type = BottomGhost;
},
{
place = (279,230);
type = Stem;
},
{
place = (300,209);
type = Stem;
}
);
layerId = "E0989092-07D5-4BE4-A82B-4E03160A36DB";
name = Black;
shapes = (
{
closed = 1;
nodes = (
(236,10,ls),
(251,32,o),
(263,66,o),
(263,86,cs),
(263,144,o),
(218,190,o),
(161,190,cs),
(102,190,o),
(55,144,o),
(55,86,cs),
(55,32,o),
(98,-13,o),
(152,-16,c),
(152,34,l),
(55,-182,l),
(90,-204,l)
);
},
{
closed = 1;
nodes = (
(516,10,ls),
(531,32,o),
(543,66,o),
(543,86,cs),
(543,144,o),
(498,190,o),
(441,190,cs),
(382,190,o),
(335,144,o),
(335,86,cs),
(335,32,o),
(378,-13,o),
(432,-16,c),
(432,34,l),
(335,-182,l),
(370,-204,l)
);
}
);
width = 608;
},
{
associatedMasterId = m01;
hints = (
{
horizontal = 1;
place = (82,21);
target = up;
type = BottomGhost;
},
{
place = (116,439);
type = Stem;
},
{
place = (131,235);
type = Stem;
},
{
horizontal = 1;
place = (76,21);
target = up;
type = BottomGhost;
},
{
place = (320,235);
type = Stem;
},
{
horizontal = 1;
place = (82,21);
target = up;
type = BottomGhost;
},
{
place = (86,250);
type = Stem;
},
{
place = (101,235);
type = Stem;
},
{
horizontal = 1;
place = (82,21);
target = up;
type = BottomGhost;
},
{
place = (285,250);
type = Stem;
},
{
place = (300,235);
type = Stem;
}
);
layerId = m003;
name = BlackCondensed;
shapes = (
{
closed = 1;
nodes = (
(254,10,ls),
(265,32,o),
(273,66,o),
(273,86,cs),
(273,144,o),
(241,190,o),
(201,190,cs),
(159,190,o),
(126,144,o),
(126,86,cs),
(126,32,o),
(156,-13,o),
(195,-16,c),
(195,34,l),
(126,-182,l),
(151,-204,l)
);
},
{
closed = 1;
nodes = (
(453,10,ls),
(464,32,o),
(472,66,o),
(472,86,cs),
(472,144,o),
(440,190,o),
(400,190,cs),
(358,190,o),
(325,144,o),
(325,86,cs),
(325,32,o),
(355,-13,o),
(393,-16,c),
(393,34,l),
(325,-182,l),
(349,-204,l)
);
}
);
width = 608;
}
);
unicode = 8222;
},
{
color = 4;
glyphname = quotedblleft;
layers = (
{
layerId = m01;
shapes = (
{
closed = 1;
nodes = (
(256,589,ls),
(246,575,o),
(237,553,o),
(237,536,cs),
(237,494,o),
(267,465,o),
(308,465,cs),
(350,465,o),
(381,494,o),
(381,536,c),
(381,575,o),
(353,605,o),
(314,607,c),
(314,573,l),
(381,721,l),
(357,736,l)
);
},
{
closed = 1;
nodes = (
(41,589,ls),
(30,575,o),
(22,553,o),
(22,536,cs),
(22,494,o),
(52,465,o),
(93,465,cs),
(135,465,o),
(166,494,o),
(166,536,cs),
(166,575,o),
(137,605,o),
(99,607,c),
(99,573,l),
(166,721,l),
(142,736,l)
);
}
);
width = 403;
},
{
associatedMasterId = m01;
hints = (
{
horizontal = 1;
place = (393,296);
type = Stem;
},
{
place = (33,179);
type = Stem;
},
{
horizontal = 1;
place = (694,-20);
target = down;
type = TopGhost;
},
{
place = (318,-230);
type = Stem;
},
{
place = (297,-209);
type = Stem;
},
{
horizontal = 1;
place = (694,-20);
target = down;
type = TopGhost;
},
{
place = (598,-230);
type = Stem;
},
{
place = (577,-209);
type = Stem;
}
);
layerId = "E0989092-07D5-4BE4-A82B-4E03160A36DB";
name = Black;
shapes = (
{
closed = 1;
nodes = (
(352,577,ls),
(337,555,o),
(325,521,o),
(325,501,cs),
(325,443,o),
(370,397,o),
(427,397,cs),
(486,397,o),
(533,443,o),
(533,501,cs),
(533,555,o),
(490,600,o),
(436,603,c),
(436,553,l),
(533,769,l),
(498,791,l)
);
},
{
closed = 1;
nodes = (
(72,577,ls),
(57,555,o),
(45,521,o),
(45,501,cs),
(45,443,o),
(90,397,o),
(147,397,cs),
(206,397,o),
(253,443,o),
(253,501,cs),
(253,555,o),
(210,600,o),
(156,603,c),
(156,553,l),
(253,769,l),
(218,791,l)
);
}
);
width = 608;
},
{
associatedMasterId = m01;
layerId = "4A9D6ABE-7E48-47BE-B9D4-D3DE93A200D8";
name = Regular;
shapes = (
{
closed = 1;
nodes = (
(338,707,l),
(312,711,l),
(228,542,l),
(268,527,l)
);
},
{
closed = 1;
nodes = (
(128,456,o),
(155,483,o),
(155,517,cs),
(155,551,o),
(128,578,o),
(93,578,cs),
(60,578,o),
(33,551,o),
(33,517,cs),
(33,483,o),
(60,456,o),
(93,456,cs)
);
},
{
closed = 1;
nodes = (
(148,707,l),
(122,711,l),
(38,542,l),
(78,527,l)
);
},
{
closed = 1;
nodes = (
(318,456,o),
(345,483,o),
(345,517,cs),
(345,551,o),
(318,578,o),
(283,578,cs),
(250,578,o),
(223,551,o),
(223,517,cs),
(223,483,o),
(250,456,o),
(283,456,cs)
);
}
);
width = 378;
},
{
associatedMasterId = m01;
hints = (
{
horizontal = 1;
place = (363,294);
type = Stem;
},
{
place = (107,211);
type = Stem;
},
{
horizontal = 1;
place = (577,-20);
target = down;
type = TopGhost;
},
{
place = (310,-79);
type = Stem;
},
{
place = (295,-65);
type = Stem;
},
{
horizontal = 1;
place = (577,-20);
target = down;
type = TopGhost;
},
{
place = (508,-79);
type = Stem;
},
{
place = (493,-65);
type = Stem;
}
);
layerId = m003;
name = BlackCondensed;
shapes = (
{
closed = 1;
nodes = (
(334,577,ls),
(323,555,o),
(315,521,o),
(315,501,cs),
(315,443,o),
(347,397,o),
(387,397,cs),
(429,397,o),
(462,443,o),
(462,501,cs),
(462,555,o),
(432,600,o),
(393,603,c),
(393,553,l),
(462,769,l),
(437,791,l)
);
},
{
closed = 1;
nodes = (
(135,577,ls),
(124,555,o),
(116,521,o),
(116,501,cs),
(116,443,o),
(148,397,o),
(188,397,cs),
(230,397,o),
(263,443,o),
(263,501,cs),
(263,555,o),
(233,600,o),
(195,603,c),
(195,553,l),
(263,769,l),
(239,791,l)
);
}
);
width = 608;
},
{
associatedMasterId = m01;
layerId = "C7675095-E1AA-4086-88AA-E1455C92C61D";
name = "7. Jan. 24, 13:12";
shapes = (
{
closed = 1;
nodes = (
(338,707,l),
(312,711,l),
(228,542,l),
(268,527,l)
);
},
{
closed = 1;
nodes = (
(128,456,o),
(155,483,o),
(155,517,cs),
(155,551,o),
(128,578,o),
(93,578,cs),
(60,578,o),
(33,551,o),
(33,517,cs),
(33,483,o),
(60,456,o),
(93,456,cs)
);
},
{
closed = 1;
nodes = (
(148,707,l),
(122,711,l),
(38,542,l),
(78,527,l)
);
},
{
closed = 1;
nodes = (
(318,456,o),
(345,483,o),
(345,517,cs),
(345,551,o),
(318,578,o),
(283,578,cs),
(250,578,o),
(223,551,o),
(223,517,cs),
(223,483,o),
(250,456,o),
(283,456,cs)
);
}
);
width = 378;
}
);
unicode = 8220;
},
{
color = 4;
glyphname = quotedblright;
layers = (
{
layerId = m01;
shapes = (
{
closed = 1;
nodes = (
(362,612,ls),
(373,626,o),
(381,648,o),
(381,665,cs),
(381,707,o),
(352,736,o),
(310,736,cs),
(268,736,o),
(237,707,o),
(237,665,cs),
(237,626,o),
(266,596,o),
(304,594,c),
(304,628,l),
(237,480,l),
(261,465,l)
);
},
{
closed = 1;
nodes = (
(147,612,ls),
(157,626,o),
(166,648,o),
(166,665,cs),
(166,707,o),
(136,736,o),
(95,736,cs),
(53,736,o),
(22,707,o),
(22,665,cs),
(22,626,o),
(50,596,o),
(89,594,c),
(89,628,l),
(22,480,l),
(46,465,l)
);
}
);
width = 403;
},
{
associatedMasterId = m01;
hints = (
{
horizontal = 1;
place = (518,261);
type = Stem;
},
{
place = (119,179);
type = Stem;
},
{
place = (362,179);
type = Stem;
},
{
horizontal = 1;
place = (702,21);
target = up;
type = BottomGhost;
},
{
place = (32,230);
type = Stem;
},
{
place = (53,209);
type = Stem;
},
{
horizontal = 1;
place = (702,21);
target = up;
type = BottomGhost;
},
{
place = (312,230);
type = Stem;
},
{
place = (333,209);
type = Stem;
}
);
layerId = "E0989092-07D5-4BE4-A82B-4E03160A36DB";
name = Black;
shapes = (
{
closed = 1;
nodes = (
(526,619,ls),
(541,641,o),
(553,675,o),
(553,695,cs),
(553,753,o),
(508,799,o),
(451,799,cs),
(392,799,o),
(345,753,o),
(345,695,cs),
(345,641,o),
(388,596,o),
(442,593,c),
(442,643,l),
(345,427,l),
(380,405,l)
);
},
{
closed = 1;
nodes = (
(246,619,ls),
(261,641,o),
(273,675,o),
(273,695,cs),
(273,753,o),
(228,799,o),
(171,799,cs),
(112,799,o),
(65,753,o),
(65,695,cs),
(65,641,o),
(108,596,o),
(162,593,c),
(162,643,l),
(65,427,l),
(100,405,l)
);
}
);
width = 608;
},
{
associatedMasterId = m01;
hints = (
{
horizontal = 1;
place = (457,275);
type = Stem;
},
{
place = (174,217);
type = Stem;
},
{
place = (347,217);
type = Stem;
},
{
horizontal = 1;
place = (588,21);
target = up;
type = BottomGhost;
},
{
place = (112,253);
type = Stem;
},
{
place = (127,238);
type = Stem;
},
{
horizontal = 1;
place = (588,21);
target = up;
type = BottomGhost;
},
{
place = (311,253);
type = Stem;
},
{
place = (326,238);
type = Stem;
}
);
layerId = m003;
name = BlackCondensed;
shapes = (
{
closed = 1;
nodes = (
(463,619,ls),
(474,641,o),
(482,675,o),
(482,695,cs),
(482,753,o),
(450,799,o),
(410,799,cs),
(368,799,o),
(335,753,o),
(335,695,cs),
(335,641,o),
(365,596,o),
(403,593,c),
(403,643,l),
(335,427,l),
(359,405,l)
);
},
{
closed = 1;
nodes = (
(264,619,ls),
(275,641,o),
(283,675,o),
(283,695,cs),
(283,753,o),
(251,799,o),
(211,799,cs),
(169,799,o),
(136,753,o),
(136,695,cs),
(136,641,o),
(166,596,o),
(205,593,c),
(205,643,l),
(136,427,l),
(161,405,l)
);
}
);
width = 608;
}
);
unicode = 8221;
},
{
color = 4;
glyphname = quoteleft;
layers = (
{
layerId = m01;
shapes = (
{
closed = 1;
nodes = (
(47,589,ls),
(36,575,o),
(28,553,o),
(28,536,cs),
(28,494,o),
(58,465,o),
(99,465,cs),
(141,465,o),
(172,494,o),
(172,536,c),
(172,575,o),
(144,605,o),
(105,607,c),
(105,573,l),
(172,721,l),
(148,736,l)
);
}
);
width = 230;
},
{
associatedMasterId = m01;
hints = (
{
horizontal = 1;
place = (393,288);
type = Stem;
},
{
place = (111,178);
type = Stem;
}
);
layerId = "E0989092-07D5-4BE4-A82B-4E03160A36DB";
name = Black;
shapes = (
{
closed = 1;
nodes = (
(62,577,ls),
(47,555,o),
(35,521,o),
(35,501,cs),
(35,443,o),
(80,397,o),
(137,397,cs),
(196,397,o),
(243,443,o),
(243,501,cs),
(243,555,o),
(200,600,o),
(146,603,c),
(146,553,l),
(243,769,l),
(208,791,l)
);
}
);
width = 328;
},
{
associatedMasterId = m01;
hints = (
{
horizontal = 1;
place = (319,245);
type = Stem;
},
{
place = (119,167);
type = Stem;
}
);
layerId = m003;
name = BlackCondensed;
shapes = (
{
closed = 1;
nodes = (
(84,577,ls),
(74,555,o),
(65,521,o),
(65,501,cs),
(65,443,o),
(97,397,o),
(138,397,cs),
(179,397,o),
(213,443,o),
(213,501,cs),
(213,555,o),
(182,600,o),
(144,603,c),
(144,553,l),
(213,769,l),
(188,791,l)
);
}
);
width = 328;
}
);
unicode = 8216;
},
{
color = 4;
glyphname = quoteright;
layers = (
{
layerId = m01;
shapes = (
{
closed = 1;
nodes = (
(150,652,ls),
(157,666,o),
(162,688,o),
(162,705,cs),
(162,741,o),
(141,766,o),
(111,766,cs),
(80,766,o),
(58,741,o),
(58,705,cs),
(58,671,o),
(77,646,o),
(105,644,c),
(105,668,l),
(62,550,l),
(84,535,l)
);
}
);
width = 220;
},
{
associatedMasterId = m01;
hints = (
{
horizontal = 1;
place = (519,260);
type = Stem;
},
{
place = (33,179);
type = Stem;
}
);
layerId = "E0989092-07D5-4BE4-A82B-4E03160A36DB";
name = Black;
shapes = (
{
closed = 1;
nodes = (
(236,659,ls),
(249,681,o),
(263,715,o),
(263,735,cs),
(263,793,o),
(218,839,o),
(161,839,cs),
(102,839,o),
(55,793,o),
(55,735,cs),
(55,681,o),
(98,636,o),
(152,633,c),
(152,683,l),
(75,467,l),
(110,445,l)
);
}
);
width = 318;
},
{
associatedMasterId = m01;
hints = (
{
horizontal = 1;
place = (415,231);
type = Stem;
},
{
place = (70,173);
type = Stem;
}
);
layerId = m003;
name = BlackCondensed;
shapes = (
{
closed = 1;
nodes = (
(214,659,ls),
(223,681,o),
(233,715,o),
(233,735,cs),
(233,793,o),
(201,839,o),
(160,839,cs),
(119,839,o),
(85,793,o),
(85,735,cs),
(85,681,o),
(116,636,o),
(154,633,c),
(154,683,l),
(99,467,l),
(124,445,l)
);
}
);
width = 318;
}
);
unicode = 8217;
},
{
color = 4;
glyphname = guillemetleft;
lastChange = "2025-08-28 20:19:12 +0000";
layers = (
{
layerId = m01;
shapes = (
{
closed = 1;
nodes = (
(523,69,l),
(340,276,l),
(523,489,l),
(477,509,l),
(268,276,l),
(477,43,l)
);
},
{
closed = 1;
nodes = (
(292,79,l),
(109,276,l),
(292,479,l),
(246,509,l),
(37,276,l),
(246,55,l)
);
}
);
width = 600;
},
{
associatedMasterId = m01;
layerId = "E0989092-07D5-4BE4-A82B-4E03160A36DB";
name = Black;
shapes = (
{
closed = 1;
nodes = (
(662,93,l),
(511,284,l),
(649,478,l),
(568,541,l),
(332,284,l),
(571,13,l)
);
},
{
closed = 1;
nodes = (
(362,93,l),
(211,284,l),
(349,478,l),
(268,541,l),
(32,284,l),
(271,13,l)
);
}
);
width = 720;
},
{
associatedMasterId = m01;
layerId = m003;
name = BlackCondensed;
shapes = (
{
closed = 1;
nodes = (
(571,93,l),
(463,284,l),
(561,478,l),
(504,541,l),
(336,284,l),
(506,13,l)
);
},
{
closed = 1;
nodes = (
(358,93,l),
(250,284,l),
(348,478,l),
(291,541,l),
(123,284,l),
(293,13,l)
);
}
);
width = 720;
}
);
unicode = 171;
},
{
color = 4;
glyphname = guillemetright;
lastChange = "2025-08-28 20:19:19 +0000";
layers = (
{
layerId = m01;
shapes = (
{
closed = 1;
nodes = (
(553,276,l),
(344,509,l),
(288,469,l),
(466,266,l),
(298,69,l),
(344,43,l)
);
},
{
closed = 1;
nodes = (
(322,276,l),
(113,509,l),
(57,469,l),
(235,266,l),
(67,69,l),
(113,43,l)
);
}
);
width = 600;
},
{
associatedMasterId = m01;
layerId = "E0989092-07D5-4BE4-A82B-4E03160A36DB";
name = Black;
shapes = (
{
closed = 1;
nodes = (
(688,272,l),
(452,541,l),
(358,465,l),
(509,272,l),
(371,80,l),
(449,13,l)
);
},
{
closed = 1;
nodes = (
(388,272,l),
(152,541,l),
(58,465,l),
(209,272,l),
(71,80,l),
(149,13,l)
);
}
);
width = 720;
},
{
associatedMasterId = m01;
layerId = m003;
name = BlackCondensed;
shapes = (
{
closed = 1;
nodes = (
(597,272,l),
(429,541,l),
(362,465,l),
(470,272,l),
(372,80,l),
(427,13,l)
);
},
{
closed = 1;
nodes = (
(384,272,l),
(216,541,l),
(149,465,l),
(257,272,l),
(159,80,l),
(214,13,l)
);
}
);
width = 720;
}
);
unicode = 187;
},
{
color = 4;
glyphname = guilsinglleft;
layers = (
{
layerId = m01;
shapes = (
{
closed = 1;
nodes = (
(307,89,l),
(149,286,l),
(297,469,l),
(251,509,l),
(42,286,l),
(251,43,l)
);
}
);
width = 380;
},
{
associatedMasterId = m01;
hints = (
{
horizontal = 1;
place = (13,528);
type = Stem;
},
{
place = (37,330);
type = Stem;
}
);
layerId = "E0989092-07D5-4BE4-A82B-4E03160A36DB";
name = Black;
shapes = (
{
closed = 1;
nodes = (
(358,93,l),
(207,284,l),
(345,478,l),
(264,541,l),
(28,284,l),
(267,13,l)
);
}
);
width = 410;
},
{
associatedMasterId = m01;
hints = (
{
horizontal = 1;
place = (65,431);
type = Stem;
},
{
place = (82,290);
type = Stem;
}
);
layerId = m003;
name = BlackCondensed;
shapes = (
{
closed = 1;
nodes = (
(310,93,l),
(203,284,l),
(301,478,l),
(243,541,l),
(76,284,l),
(246,13,l)
);
}
);
width = 410;
}
);
unicode = 8249;
},
{
color = 4;
glyphname = guilsinglright;
layers = (
{
layerId = m01;
shapes = (
{
closed = 1;
nodes = (
(328,266,l),
(119,509,l),
(63,459,l),
(221,266,l),
(73,79,l),
(119,43,l)
);
}
);
width = 380;
},
{
associatedMasterId = m01;
hints = (
{
horizontal = 1;
place = (13,528);
type = Stem;
},
{
place = (32,330);
type = Stem;
}
);
layerId = "E0989092-07D5-4BE4-A82B-4E03160A36DB";
name = Black;
shapes = (
{
closed = 1;
nodes = (
(382,272,l),
(146,541,l),
(52,465,l),
(203,272,l),
(65,80,l),
(143,13,l)
);
}
);
width = 390;
},
{
associatedMasterId = m01;
hints = (
{
horizontal = 1;
place = (72,438);
type = Stem;
},
{
place = (86,297);
type = Stem;
}
);
layerId = m003;
name = BlackCondensed;
shapes = (
{
closed = 1;
nodes = (
(334,272,l),
(167,541,l),
(100,465,l),
(207,272,l),
(109,80,l),
(164,13,l)
);
}
);
width = 390;
}
);
unicode = 8250;
},
{
color = 4;
glyphname = quotedbl;
layers = (
{
layerId = m01;
shapes = (
{
closed = 1;
nodes = (
(269,521,l),
(288,638,o),
(303,657,o),
(303,703,cs),
(303,743,o),
(282,775,o),
(256,775,cs),
(229,775,o),
(207,743,o),
(207,703,cs),
(207,660,o),
(221,639,o),
(239,521,c)
);
},
{
closed = 1;
nodes = (
(89,521,l),
(108,638,o),
(123,657,o),
(123,703,cs),
(123,743,o),
(102,775,o),
(76,775,cs),
(49,775,o),
(27,743,o),
(27,703,cs),
(27,660,o),
(41,639,o),
(59,521,c)
);
}
);
width = 330;
},
{
associatedMasterId = m01;
hints = (
{
horizontal = 1;
place = (468,311);
type = Stem;
},
{
place = (150,405);
type = Stem;
},
{
place = (150,172);
type = Stem;
},
{
place = (383,172);
type = Stem;
}
);
layerId = "E0989092-07D5-4BE4-A82B-4E03160A36DB";
name = Black;
shapes = (
{
closed = 1;
nodes = (
(355,540,l),
(381,650,o),
(395,689,o),
(395,730,cs),
(395,782,o),
(368,819,o),
(330,819,cs),
(292,819,o),
(265,782,o),
(265,730,cs),
(265,689,o),
(284,650,o),
(304,540,c)
);
},
{
closed = 1;
nodes = (
(155,540,l),
(181,650,o),
(195,689,o),
(195,730,cs),
(195,782,o),
(168,819,o),
(130,819,cs),
(92,819,o),
(65,782,o),
(65,730,cs),
(65,689,o),
(84,650,o),
(104,540,c)
);
}
);
width = 460;
},
{
associatedMasterId = m01;
layerId = "6CF450B1-DBBF-4CFE-A85D-7A5C56A9022C";
name = Regular;
shapes = (
{
closed = 1;
nodes = (
(318,443,l),
(342,630,l),
(270,630,l),
(292,443,l)
);
},
{
closed = 1;
nodes = (
(148,443,l),
(172,630,l),
(100,630,l),
(122,443,l)
);
},
{
closed = 1;
nodes = (
(170,594,o),
(177,621,o),
(177,655,cs),
(177,689,o),
(170,716,o),
(137,716,cs),
(102,716,o),
(95,689,o),
(95,655,cs),
(95,621,o),
(102,594,o),
(137,594,cs)
);
},
{
closed = 1;
nodes = (
(340,594,o),
(347,621,o),
(347,655,cs),
(347,689,o),
(340,716,o),
(307,716,cs),
(272,716,o),
(265,689,o),
(265,655,cs),
(265,621,o),
(272,594,o),
(307,594,cs)
);
}
);
width = 442;
},
{
associatedMasterId = m01;
hints = (
{
horizontal = 1;
place = (399,288);
type = Stem;
},
{
place = (173,354);
type = Stem;
},
{
place = (173,189);
type = Stem;
},
{
place = (339,189);
type = Stem;
}
);
layerId = m003;
name = BlackCondensed;
shapes = (
{
closed = 1;
nodes = (
(319,540,l),
(337,650,o),
(347,689,o),
(347,730,cs),
(347,782,o),
(328,819,o),
(301,819,cs),
(274,819,o),
(255,782,o),
(255,730,cs),
(255,689,o),
(268,650,o),
(283,540,c)
);
},
{
closed = 1;
nodes = (
(177,540,l),
(195,650,o),
(205,689,o),
(205,730,cs),
(205,782,o),
(186,819,o),
(159,819,cs),
(132,819,o),
(113,782,o),
(113,730,cs),
(113,689,o),
(126,650,o),
(141,540,c)
);
}
);
width = 460;
},
{
associatedMasterId = m01;
layerId = "0A8E6847-2AD7-4012-BCDC-508CA5A98CD2";
name = "7. Jan. 24, 13:33";
shapes = (
{
closed = 1;
nodes = (
(318,443,l),
(342,630,l),
(270,630,l),
(292,443,l)
);
},
{
closed = 1;
nodes = (
(148,443,l),
(172,630,l),
(100,630,l),
(122,443,l)
);
},
{
closed = 1;
nodes = (
(170,594,o),
(177,621,o),
(177,655,cs),
(177,689,o),
(170,716,o),
(137,716,cs),
(102,716,o),
(95,689,o),
(95,655,cs),
(95,621,o),
(102,594,o),
(137,594,cs)
);
},
{
closed = 1;
nodes = (
(340,594,o),
(347,621,o),
(347,655,cs),
(347,689,o),
(340,716,o),
(307,716,cs),
(272,716,o),
(265,689,o),
(265,655,cs),
(265,621,o),
(272,594,o),
(307,594,cs)
);
}
);
width = 442;
}
);
unicode = 34;
},
{
color = 9;
glyphname = quotesingle;
lastChange = "2025-08-28 19:24:47 +0000";
layers = (
{
layerId = m01;
shapes = (
{
closed = 1;
nodes = (
(96,528,l),
(122,811,l),
(34,801,l),
(54,520,l)
);
}
);
width = 157;
}
);
unicode = 39;
},
{
color = 9;
glyphname = period;
lastChange = "2025-08-28 19:24:47 +0000";
layers = (
{
layerId = m01;
shapes = (
{
closed = 1;
nodes = (
(168,-19,o),
(197,10,o),
(197,45,cs),
(197,80,o),
(168,108,o),
(133,108,cs),
(98,108,o),
(70,80,o),
(70,45,cs),
(70,10,o),
(98,-19,o),
(133,-19,cs)
);
}
);
width = 267;
}
);
unicode = 46;
},
{
color = 9;
glyphname = comma;
lastChange = "2025-08-28 19:24:47 +0000";
layers = (
{
layerId = m01;
shapes = (
{
closed = 1;
nodes = (
(167,-19,o),
(196,10,o),
(196,45,cs),
(196,80,o),
(167,108,o),
(132,108,cs),
(97,108,o),
(69,80,o),
(69,45,cs),
(69,10,o),
(97,-19,o),
(132,-19,cs)
);
},
{
closed = 1;
nodes = (
(151,-89,o),
(196,-16,o),
(196,45,c),
(154,45,l),
(149,-12,o),
(113,-81,o),
(60,-135,c),
(79,-144,l)
);
}
);
width = 266;
}
);
unicode = 44;
},
{
color = 9;
glyphname = colon;
lastChange = "2025-08-28 19:24:47 +0000";
layers = (
{
layerId = m01;
shapes = (
{
closed = 1;
nodes = (
(168,-19,o),
(197,10,o),
(197,45,cs),
(197,80,o),
(168,108,o),
(133,108,cs),
(98,108,o),
(70,80,o),
(70,45,cs),
(70,10,o),
(98,-19,o),
(133,-19,cs)
);
},
{
closed = 1;
nodes = (
(178,381,o),
(207,410,o),
(207,445,cs),
(207,480,o),
(178,508,o),
(143,508,cs),
(108,508,o),
(80,480,o),
(80,445,cs),
(80,410,o),
(108,381,o),
(143,381,cs)
);
}
);
width = 277;
}
);
unicode = 58;
},
{
color = 9;
glyphname = semicolon;
lastChange = "2025-08-28 19:24:47 +0000";
layers = (
{
layerId = m01;
shapes = (
{
closed = 1;
nodes = (
(187,381,o),
(216,410,o),
(216,445,cs),
(216,480,o),
(187,508,o),
(152,508,cs),
(117,508,o),
(89,480,o),
(89,445,cs),
(89,410,o),
(117,381,o),
(152,381,cs)
);
},
{
closed = 1;
nodes = (
(177,-19,o),
(206,10,o),
(206,45,cs),
(206,80,o),
(177,108,o),
(142,108,cs),
(107,108,o),
(79,80,o),
(79,45,cs),
(79,10,o),
(107,-19,o),
(142,-19,cs)
);
},
{
closed = 1;
nodes = (
(161,-89,o),
(206,-16,o),
(206,45,c),
(164,45,l),
(159,-12,o),
(123,-81,o),
(70,-135,c),
(89,-144,l)
);
}
);
width = 286;
}
);
unicode = 59;
},
{
color = 9;
glyphname = exclam;
lastChange = "2025-08-28 19:24:47 +0000";
layers = (
{
layerId = m01;
shapes = (
{
closed = 1;
nodes = (
(205,-19,o),
(234,10,o),
(234,45,cs),
(234,80,o),
(205,108,o),
(170,108,cs),
(135,108,o),
(107,80,o),
(107,45,cs),
(107,10,o),
(135,-19,o),
(170,-19,cs)
);
},
{
closed = 1;
nodes = (
(196,239,l),
(242,713,l),
(124,700,l),
(149,230,l)
);
}
);
width = 360;
}
);
unicode = 33;
},
{
color = 4;
glyphname = exclamdown;
lastChange = "2025-08-28 20:18:18 +0000";
layers = (
{
layerId = m01;
shapes = (
{
closed = 1;
nodes = (
(138,721,o),
(109,692,o),
(109,657,cs),
(109,622,o),
(138,594,o),
(173,594,cs),
(208,594,o),
(236,622,o),
(236,657,cs),
(236,692,o),
(208,721,o),
(173,721,cs)
);
},
{
closed = 1;
nodes = (
(147,463,l),
(101,-11,l),
(219,2,l),
(194,472,l)
);
}
);
width = 346;
},
{
associatedMasterId = m01;
hints = (
{
horizontal = 1;
place = (-16,21);
target = up;
type = BottomGhost;
},
{
horizontal = 1;
place = (525,208);
type = Stem;
},
{
place = (92,165);
type = Stem;
},
{
place = (69,208);
type = Stem;
}
);
layerId = "E0989092-07D5-4BE4-A82B-4E03160A36DB";
name = Black;
shapes = (
{
closed = 1;
nodes = (
(237,0,l),
(215,444,l),
(71,415,l),
(51,-26,l)
);
},
{
closed = 1;
nodes = (
(199,515,o),
(246,562,o),
(246,619,cs),
(246,676,o),
(199,723,o),
(141,723,cs),
(83,723,o),
(38,676,o),
(38,619,cs),
(38,562,o),
(83,515,o),
(141,515,cs)
);
}
);
width = 315;
},
{
associatedMasterId = m01;
hints = (
{
horizontal = 1;
place = (30,21);
target = up;
type = BottomGhost;
},
{
horizontal = 1;
place = (414,189);
type = Stem;
},
{
place = (107,158);
type = Stem;
},
{
place = (90,189);
type = Stem;
}
);
layerId = m003;
name = BlackCondensed;
shapes = (
{
closed = 1;
nodes = (
(209,0,l),
(194,444,l),
(92,415,l),
(77,-26,l)
);
},
{
closed = 1;
nodes = (
(182,515,o),
(216,562,o),
(216,619,cs),
(216,676,o),
(182,723,o),
(141,723,cs),
(100,723,o),
(68,676,o),
(68,619,cs),
(68,562,o),
(100,515,o),
(141,515,cs)
);
}
);
width = 315;
}
);
unicode = 161;
},
{
color = 9;
glyphname = question;
lastChange = "2025-08-28 19:24:47 +0000";
layers = (
{
background = {
shapes = (
{
closed = 0;
nodes = (
(226,716,ls),
(180,716,o),
(129,683,o),
(74,631,c,{
"Letterink-NibData" = {
AngleInDegrees = "0";
};
}),
(65,621,o),
(48,606,o),
(48,588,cs),
(48,570,o),
(54,545,o),
(74,545,cs),
(99,545,o),
(148,573,o),
(148,587,cs),
(148,597,o),
(135,608,o),
(135,626,cs),
(135,642,o),
(162,666,o),
(186,666,cs)
);
}
);
};
layerId = m01;
shapes = (
{
closed = 1;
nodes = (
(245,-20,o),
(268,3,o),
(268,44,cs),
(268,84,o),
(245,107,o),
(204,107,cs),
(164,107,o),
(141,84,o),
(141,44,cs),
(141,3,o),
(164,-20,o),
(204,-20,cs)
);
},
{
closed = 1;
nodes = (
(214,213,l),
(213,214,o),
(193,243,o),
(193,332,cs),
(193,416,o),
(359,487,o),
(359,606,cs),
(359,681,o),
(318,723,o),
(245,723,cs),
(201,723,o),
(125,684,o),
(75,632,cs),
(65,622,o),
(48,605,o),
(48,588,cs),
(48,561,o),
(59,545,o),
(74,545,cs),
(99,545,o),
(148,573,o),
(148,587,cs),
(148,597,o),
(135,610,o),
(135,626,cs),
(135,642,o),
(162,666,o),
(186,666,cs),
(238,666,o),
(267,616,o),
(267,527,cs),
(267,435,o),
(117,391,o),
(117,315,cs),
(117,277,o),
(122,238,o),
(131,205,c)
);
}
);
width = 428;
}
);
unicode = 63;
},
